<svg width="174" height="183" viewBox="0 0 174 183" fill="none" xmlns="http://www.w3.org/2000/svg">
<g clip-path="url(#clip0_1_3487)">
<rect width="174" height="183" rx="4" fill="#F4F734"/>
<path d="M67.818 92.1714C70.8134 105.494 62.4417 118.723 49.1188 121.719C35.7958 124.714 22.5669 116.342 19.5715 103.019L67.818 92.1714Z" fill="#231F20"/>
<path d="M19.5701 103.019C21.3676 111.013 29.3047 116.036 37.2984 114.239L34.0438 99.7648L19.5701 103.019Z" fill="#231F20"/>
<path d="M80.7144 104.472L77.4609 89.9982L34.039 99.7586L37.2925 114.232L80.7144 104.472Z" fill="#231F20"/>
<path d="M47.4202 110.748C49.5902 118.649 57.7537 123.295 65.6542 121.125L61.7257 106.82L47.4202 110.748Z" fill="#231F20"/>
<path d="M57.4553 108.92C59.6253 116.821 67.7889 121.467 75.6894 119.297L71.7608 104.992L57.4553 108.92Z" fill="#6E00FF"/>
<path d="M36.7561 117.058C38.9261 124.959 47.0897 129.604 54.9902 127.435L51.0616 113.129L36.7561 117.058Z" fill="#6E00FF"/>
<path d="M66.1663 106.136C68.3363 114.037 76.4998 118.682 84.4003 116.513L80.4718 102.207L66.1663 106.136Z" fill="#231F20"/>
<path d="M76.2131 104.221C78.3831 112.122 86.5467 116.768 94.4472 114.598L90.5186 100.292L76.2131 104.221Z" fill="#6E00FF"/>
<path d="M56.2787 84.1947C59.4905 98.4806 50.5138 112.666 36.228 115.878C21.9421 119.089 7.75704 110.113 4.54516 95.8268L56.2787 84.1947Z" fill="#231F20"/>
<path d="M4.54573 95.8275C6.47314 104.399 14.9839 109.785 23.5553 107.857L20.0655 92.3377L4.54573 95.8275Z" fill="#231F20"/>
<path d="M70.1058 97.3838L66.6172 81.8639L20.057 92.3298L23.5455 107.85L70.1058 97.3838Z" fill="#231F20"/>
<path d="M45.17 102.154C47.4968 110.626 56.2504 115.607 64.7219 113.281L60.5094 97.9415L45.17 102.154Z" fill="#C7EAFB"/>
<path d="M54.5098 99.1688C56.8367 107.641 65.5902 112.622 74.0618 110.296L69.8492 94.9563L54.5098 99.1688Z" fill="#231F20"/>
<path d="M65.2754 97.1146C67.6023 105.587 76.3559 110.568 84.8274 108.241L80.6149 92.9021L65.2754 97.1146Z" fill="#C7EAFB"/>
<path d="M56.8203 72.7577C56.818 73.1191 56.5511 73.4241 56.1933 73.4745L47.1844 74.7412C46.716 74.8071 46.3101 74.4162 46.3582 73.9457L46.6711 70.8854C46.7135 70.4714 47.0935 70.1769 47.505 70.2393L56.2041 71.5579C56.562 71.6121 56.8257 71.9209 56.8234 72.2829L56.8203 72.7577Z" fill="#FF9900"/>
<path d="M49.6853 66.5602C49.5769 66.9049 49.2322 67.1182 48.8754 67.0612L39.8916 65.6269C39.4246 65.5523 39.1513 65.0594 39.3355 64.6238L40.5332 61.7903C40.6952 61.407 41.145 61.237 41.5201 61.4175L49.4485 65.2323C49.7747 65.3892 49.9361 65.7618 49.8276 66.1071L49.6853 66.5602Z" fill="#FF9900"/>
<path d="M62.1351 66.7577C61.9233 66.9974 61.5736 67.0582 61.2934 66.9039L52.613 62.1248C52.1675 61.8795 52.104 61.2648 52.49 60.9336L53.89 59.7327C54.1604 59.5007 54.5589 59.4984 54.8321 59.7271L62.0616 65.7815C62.3564 66.0283 62.3895 66.4696 62.1351 66.7577V66.7577Z" fill="#FF9900"/>
<path d="M61.3326 73.6748C61.5959 73.9369 61.6199 74.3551 61.3882 74.6455L58.8124 77.8744C58.5285 78.2302 57.9914 78.2415 57.6929 77.8978L56.6561 76.7042C56.3545 76.3571 56.446 75.8208 56.8457 75.5934L60.4447 73.5446C60.7293 73.3826 61.0869 73.4303 61.319 73.6613L61.3326 73.6748Z" fill="#FF9900"/>
<path d="M41.3456 138.474L38.0664 140.512L39.9411 143.528L43.2203 141.491L41.3456 138.474Z" fill="#0A6FCB"/>
<path d="M34.4004 104.114C36.7273 112.586 45.4809 117.567 53.9524 115.241L49.7399 99.9017L34.4004 104.114Z" fill="#231F20"/>
<path d="M22.1153 109.342C24.4421 117.814 33.1957 122.795 41.6672 120.469L37.4547 105.13L22.1153 109.342Z" fill="#C7EAFB"/>
<path d="M110.967 93.3532C107.972 106.676 116.343 119.905 129.666 122.9C142.989 125.896 156.218 117.524 159.214 104.201L110.967 93.3532Z" fill="#231F20"/>
<path d="M159.215 104.201C157.418 112.195 149.48 117.218 141.487 115.42L144.741 100.947L159.215 104.201Z" fill="#231F20"/>
<path d="M98.0708 105.654L101.324 91.1799L144.746 100.94L141.493 115.414L98.0708 105.654Z" fill="#231F20"/>
<path d="M131.365 111.93C129.195 119.831 121.031 124.477 113.131 122.307L117.059 108.001L131.365 111.93Z" fill="#231F20"/>
<path d="M121.33 110.102C119.16 118.003 110.996 122.649 103.096 120.479L107.024 106.174L121.33 110.102Z" fill="#6E00FF"/>
<path d="M143.592 115.603C141.422 123.504 133.258 128.149 125.357 125.98L129.286 111.674L143.592 115.603Z" fill="#6E00FF"/>
<path d="M112.619 107.318C110.449 115.219 102.285 119.864 94.3848 117.695L98.3134 103.389L112.619 107.318Z" fill="#231F20"/>
<path d="M102.572 105.403C100.402 113.304 92.2385 117.949 84.338 115.78L88.2665 101.474L102.572 105.403Z" fill="#6E00FF"/>
<path d="M122.506 85.3765C119.295 99.6624 128.271 113.847 142.557 117.059C156.843 120.271 171.028 111.294 174.24 97.0086L122.506 85.3765Z" fill="#231F20"/>
<path d="M174.239 97.0092C172.312 105.581 163.801 110.967 155.23 109.039L158.72 93.5194L174.239 97.0092Z" fill="#231F20"/>
<path d="M108.679 98.5655L112.168 83.0457L158.728 93.5116L155.24 109.031L108.679 98.5655Z" fill="#231F20"/>
<path d="M144.385 105.296C142.058 113.768 133.304 118.749 124.833 116.423L129.045 101.083L144.385 105.296Z" fill="#231F20"/>
<path d="M133.529 103.343C131.202 111.815 122.449 116.796 113.977 114.47L118.19 99.1302L133.529 103.343Z" fill="#C7EAFB"/>
<path d="M156.549 108.697C154.222 117.169 145.468 122.15 136.997 119.824L141.209 104.484L156.549 108.697Z" fill="#C7EAFB"/>
<path d="M124.275 100.351C121.948 108.822 113.195 113.804 104.723 111.477L108.936 96.138L124.275 100.351Z" fill="#231F20"/>
<path d="M113.51 98.2963C111.183 106.768 102.429 111.75 93.9578 109.423L98.1703 94.0838L113.51 98.2963Z" fill="#C7EAFB"/>
<path d="M122.08 72.6138C122.082 72.9671 122.343 73.2654 122.693 73.3146L128.657 74.1532C129.125 74.2191 129.531 73.8282 129.483 73.3577L129.311 71.6731C129.269 71.259 128.889 70.9645 128.477 71.0269L122.686 71.9048C122.336 71.9579 122.078 72.2598 122.08 72.6138V72.6138Z" fill="#FF9900"/>
<path d="M124.65 67.9395C124.862 68.1792 125.212 68.24 125.492 68.0857L134.172 63.3065C134.618 63.0613 134.681 62.4465 134.295 62.1154L132.895 60.9145C132.625 60.6825 132.226 60.6801 131.953 60.9089L124.724 66.9633C124.429 67.2101 124.396 67.6513 124.65 67.9395V67.9395Z" fill="#FF9900"/>
<path d="M117.453 74.8566C117.189 75.1186 117.165 75.5369 117.397 75.8273L119.973 79.0561C120.257 79.412 120.794 79.4232 121.092 79.0796L122.129 77.886C122.431 77.5389 122.339 77.0026 121.939 76.7751L118.34 74.7263C118.056 74.5643 117.698 74.6121 117.466 74.8431L117.453 74.8566Z" fill="#FF9900"/>
<path d="M137.44 139.656L140.719 141.693L138.844 144.71L135.565 142.672L137.44 139.656Z" fill="#0A6FCB"/>
<path d="M87.9656 165.8H83.8083L79.0297 134.739C78.958 134.273 78.5218 133.953 78.0557 134.025C77.5895 134.097 77.2698 134.533 77.3415 134.999L82.0802 165.801H73.2958C72.824 165.801 72.4414 166.183 72.4414 166.655C72.4414 167.127 72.824 167.509 73.2958 167.509H83.0723C83.0723 167.509 83.0742 167.509 83.0748 167.509C83.0761 167.509 83.0767 167.509 83.0779 167.509H87.9662C88.4379 167.509 88.8206 167.127 88.8206 166.655C88.8206 166.183 88.4379 165.801 87.9662 165.801L87.9656 165.8Z" fill="#2D2D2D"/>
<path d="M82.8911 166.092C81.2426 162.195 76.7475 160.373 72.8509 162.021" stroke="#2D2D2D" stroke-width="2.07467" stroke-linecap="round"/>
<path d="M87.503 161.595C85.2987 161.501 83.4351 163.211 83.3406 165.416" stroke="#2D2D2D" stroke-width="1.67569" stroke-linecap="round"/>
<path d="M108.878 165.845L100.094 165.79L105.027 135.018C105.101 134.553 104.784 134.115 104.319 134.04C103.853 133.965 103.415 134.282 103.34 134.748L98.3662 165.778L94.209 165.752C93.7372 165.749 93.3522 166.129 93.3492 166.601C93.3463 167.073 93.7265 167.458 94.1982 167.461L99.0864 167.491C99.0864 167.491 99.0882 167.491 99.0895 167.491C99.0901 167.491 99.0914 167.491 99.092 167.491L108.868 167.553C109.34 167.556 109.725 167.176 109.728 166.704C109.731 166.232 109.351 165.847 108.879 165.844L108.878 165.845Z" fill="#2D2D2D"/>
<path d="M104.759 100.902C99.6877 93.7276 101.392 83.8011 108.566 78.73L117.748 91.7196L104.759 100.902Z" fill="#231F20"/>
<path d="M75.9467 100.889C81.0178 93.7149 79.3132 83.7885 72.1391 78.7173L62.957 91.7069L75.9467 100.889Z" fill="#231F20"/>
<path d="M114.293 83.0847H66.5391V106.961H114.293V83.0847Z" fill="#2D2D2D"/>
<path d="M114.293 106.962H66.5391V130.839H114.293V106.962Z" fill="#2D2D2D"/>
<path d="M90.408 106.962C103.595 106.962 114.285 96.2716 114.285 83.0848C114.285 69.8981 103.595 59.2081 90.408 59.2081C77.2212 59.2081 66.5312 69.8981 66.5312 83.0848C66.5312 96.2716 77.2212 106.962 90.408 106.962Z" fill="#2D2D2D"/>
<path d="M90.4158 154.716C103.603 154.716 114.292 144.026 114.292 130.839C114.292 117.652 103.603 106.962 90.4158 106.962C77.229 106.962 66.5391 117.652 66.5391 130.839C66.5391 144.026 77.229 154.716 90.4158 154.716Z" fill="#2D2D2D"/>
<path d="M80.2548 81.0016C83.9358 81.0016 86.9198 78.0175 86.9198 74.3366C86.9198 70.6556 83.9358 67.6716 80.2548 67.6716C76.5738 67.6716 73.5898 70.6556 73.5898 74.3366C73.5898 78.0175 76.5738 81.0016 80.2548 81.0016Z" fill="white"/>
<path d="M80.2586 79.2383C82.0992 79.2383 83.5914 77.7462 83.5914 75.9055C83.5914 74.0649 82.0992 72.5728 80.2586 72.5728C78.4179 72.5728 76.9258 74.0649 76.9258 75.9055C76.9258 77.7462 78.4179 79.2383 80.2586 79.2383Z" fill="#231F20"/>
<path d="M77.9803 75.4661C79.43 75.4661 80.6052 74.291 80.6052 72.8413C80.6052 71.3916 79.43 70.2164 77.9803 70.2164C76.5307 70.2164 75.3555 71.3916 75.3555 72.8413C75.3555 74.291 76.5307 75.4661 77.9803 75.4661Z" fill="white"/>
<path d="M77.2429 96.3342C82.6389 96.3342 87.0132 91.9599 87.0132 86.5639C87.0132 81.168 82.6389 76.7936 77.2429 76.7936C71.847 76.7936 67.4727 81.168 67.4727 86.5639C67.4727 91.9599 71.847 96.3342 77.2429 96.3342Z" fill="#2D2D2D"/>
<path d="M100.552 81.0017C104.233 81.0017 107.217 78.0177 107.217 74.3367C107.217 70.6558 104.233 67.6718 100.552 67.6718C96.8707 67.6718 93.8867 70.6558 93.8867 74.3367C93.8867 78.0177 96.8707 81.0017 100.552 81.0017Z" fill="white"/>
<path d="M100.555 79.2383C102.396 79.2383 103.888 77.7462 103.888 75.9055C103.888 74.0649 102.396 72.5728 100.555 72.5728C98.7148 72.5728 97.2227 74.0649 97.2227 75.9055C97.2227 77.7462 98.7148 79.2383 100.555 79.2383Z" fill="#231F20"/>
<path d="M98.2772 75.4661C99.7269 75.4661 100.902 74.291 100.902 72.8413C100.902 71.3916 99.7269 70.2164 98.2772 70.2164C96.8275 70.2164 95.6523 71.3916 95.6523 72.8413C95.6523 74.291 96.8275 75.4661 98.2772 75.4661Z" fill="white"/>
<path d="M103.583 96.3343C108.979 96.3343 113.353 91.96 113.353 86.564C113.353 81.168 108.979 76.7937 103.583 76.7937C98.1868 76.7937 93.8125 81.168 93.8125 86.564C93.8125 91.96 98.1868 96.3343 103.583 96.3343Z" fill="#2D2D2D"/>
<path d="M116.271 66.8793C116.139 66.5515 116.268 66.1765 116.573 65.9983L121.773 62.9607C122.182 62.7222 122.706 62.9299 122.84 63.3835L123.319 65.0076C123.437 65.4068 123.197 65.8234 122.792 65.9218L117.1 67.3057C116.757 67.3893 116.403 67.2077 116.271 66.8793V66.8793Z" fill="#FF9900"/>
<path d="M117.054 59.694C116.818 59.4379 116.796 59.0507 117.002 58.7698L126.752 45.4544C127.045 45.0541 127.644 45.0574 127.932 45.4609L130.574 49.1538C130.792 49.4586 130.743 49.8791 130.461 50.1259L118.691 60.4229C118.394 60.6829 117.944 60.6587 117.676 60.3683L117.054 59.694Z" fill="#FF9900"/>
<path d="M133.703 78.8255C133.779 78.4619 134.117 78.2137 134.486 78.2495L138.598 78.6475C139.051 78.6914 139.353 79.1354 139.228 79.5731L138.793 81.0931C138.666 81.5351 138.167 81.7509 137.758 81.54L134.078 79.6408C133.787 79.4906 133.632 79.1648 133.699 78.8443L133.703 78.8255Z" fill="#FF9900"/>
<path d="M90.5681 76.3557C85.3443 76.3557 81.1094 80.2649 81.1094 85.0868L90.5687 101.329V76.3557H90.5681Z" fill="#C7EAFB"/>
<path d="M100.025 85.0868C100.025 80.2649 95.7902 76.3557 90.5664 76.3557V101.329L100.026 85.0868H100.025Z" fill="#6E00FF"/>
<path d="M103.777 86.25C97.8197 86.25 92.7315 82.1609 91.6795 76.5277C91.5677 75.9312 91.0335 75.4982 90.4083 75.4982C89.7832 75.4982 89.2482 75.9312 89.1372 76.5277C88.0844 82.1609 82.997 86.25 77.0393 86.25C73.7587 86.25 70.6725 85.0191 68.3493 82.7839C66.0262 80.5487 64.7461 77.5793 64.7461 74.4229C64.7461 67.9015 70.2605 62.5958 77.0385 62.5958H103.777C110.555 62.5958 116.07 67.9015 116.07 74.4229C116.07 77.5793 114.791 80.5487 112.467 82.7839C110.144 85.0191 107.058 86.25 103.777 86.25Z" fill="#D4D4D4" fill-opacity="0.3"/>
<path d="M103.777 86.25C97.8197 86.25 92.7315 82.1609 91.6795 76.5277C91.5677 75.9312 91.0335 75.4982 90.4083 75.4982C89.7832 75.4982 89.2482 75.9312 89.1372 76.5277C88.0844 82.1609 82.997 86.25 77.0393 86.25C73.7587 86.25 70.6725 85.0191 68.3493 82.7839C66.0262 80.5487 64.7461 77.5793 64.7461 74.4229C64.7461 67.9015 70.2605 62.5958 77.0385 62.5958H103.777C110.555 62.5958 116.07 67.9015 116.07 74.4229C116.07 77.5793 114.791 80.5487 112.467 82.7839C110.144 85.0191 107.058 86.25 103.777 86.25ZM90.4076 73.3476C92.1161 73.3476 93.5757 74.5254 93.8789 76.1477C94.7395 80.7551 98.9023 84.0994 103.777 84.0994C106.46 84.0994 108.985 83.0922 110.886 81.2634C112.788 79.4346 113.834 77.0051 113.834 74.4229C113.834 69.0872 109.322 64.7465 103.777 64.7465H77.0385C71.4928 64.7465 66.9814 69.0872 66.9814 74.4229C66.9814 77.0051 68.0282 79.4339 69.9289 81.2634C71.8296 83.0929 74.3547 84.0994 77.0385 84.0994C81.9129 84.0994 86.0757 80.7551 86.9362 76.1477C87.2395 74.5254 88.6991 73.3476 90.4076 73.3476Z" fill="#FFCC01"/>
<path d="M187.003 167.275H-1.89453V184.266H187.003V167.275Z" fill="#C5C900"/>
<path d="M22.0866 111.44H8.41772V112.959H22.0866V111.44Z" fill="#AFA2FB"/>
<path d="M31.7698 118.275H8.98828V120.933H31.7698V118.275Z" fill="#0A6FCB"/>
<path d="M31.7698 118.275H8.98828V115.639H20.6443L21.4345 110.014L28.4352 107.074L31.7698 118.275Z" fill="#AFA2FB"/>
<path d="M17.5107 82.3993L13.8008 81.3306L12.8176 84.7435L16.5275 85.8122L17.5107 82.3993Z" fill="#0A6FCB"/>
<path d="M18.7462 84.9347L11.4141 82.8225L7.60124 96.0583L14.9334 98.1705L18.7462 84.9347Z" fill="#AFA2FB"/>
<path d="M16.6754 95.3036C18.4054 95.3036 19.8079 93.9012 19.8079 92.1712C19.8079 90.4411 18.4054 89.0387 16.6754 89.0387C14.9454 89.0387 13.543 90.4411 13.543 92.1712C13.543 93.9012 14.9454 95.3036 16.6754 95.3036Z" fill="#0A6FCB"/>
<path d="M21.2268 111.251V109.041C25.8179 109.041 29.5532 105.477 29.5532 101.094C29.5532 96.7118 25.8179 93.1469 21.2268 93.1469H14.1133V90.9374H21.2268C24.0346 90.9374 26.6767 91.9887 28.666 93.8973C30.6668 95.8173 31.769 98.3729 31.769 101.094C31.769 103.815 30.6668 106.371 28.666 108.291C26.6767 110.2 24.0346 111.251 21.2268 111.251Z" fill="#0A6FCB"/>
<path d="M169.728 120.933H166.121V167.255H169.728V120.933Z" fill="#C5C900"/>
<path d="M7.59926 120.933H3.99219V167.255H7.59926V120.933Z" fill="#C5C900"/>
<path d="M163.453 104.115V97.8941L164.272 96.0629H156.969L157.583 97.8941V104.115C154.9 105.268 153.02 107.955 153.02 111.084C153.02 115.265 156.377 118.655 160.518 118.655C164.66 118.655 168.017 115.265 168.017 111.084C168.017 107.955 166.137 105.269 163.454 104.115H163.453Z" fill="#E2F4FD"/>
<path d="M160.426 86.381L167.07 77.4583H153.781L160.426 86.381Z" fill="#E2F4FD"/>
<path d="M163.845 81.6349H156.82L159.398 85.1276V88.849L161.267 87.1079V85.1276L163.845 81.6349Z" fill="#8CEB4D"/>
<path d="M174.852 120.933H-1.89453V127.957H174.852V120.933Z" fill="#C5C900"/>
<path d="M168.017 111.061C168.017 115.255 164.66 118.655 160.518 118.655C156.377 118.655 153.02 115.255 153.02 111.061H168.017H168.017Z" fill="#8CEB4D"/>
<path d="M171.056 118.465H147.895V120.743H171.056V118.465Z" fill="#5FBCFF"/>
<path d="M147.895 79.5467V120.174H149.034V79.5467H147.895Z" fill="#5FBCFF"/>
<path d="M170.677 84.4822H143.719V85.6213H170.677V84.4822Z" fill="#5FBCFF"/>
<path d="M148.463 87.3302C149.617 87.3302 150.552 86.3952 150.552 85.2419C150.552 84.0885 149.617 83.1536 148.463 83.1536C147.31 83.1536 146.375 84.0885 146.375 85.2419C146.375 86.3952 147.31 87.3302 148.463 87.3302Z" fill="#0A6FCB"/>
<path d="M161.588 91.0326L160.524 89.2464V89.2286L160.519 89.2375L160.514 89.23V89.2446L159.451 91.0308C159.23 91.4027 159.23 91.8611 159.451 92.2329C159.671 92.6021 160.075 92.8304 160.514 92.8339V92.8357C160.957 92.8357 161.366 92.6065 161.587 92.2347C161.808 91.8629 161.808 91.4044 161.587 91.0326H161.588Z" fill="#8CEB4D"/>
<path d="M155.775 112.39C156.562 112.39 157.199 111.71 157.199 110.871C157.199 110.032 156.562 109.352 155.775 109.352C154.989 109.352 154.352 110.032 154.352 110.871C154.352 111.71 154.989 112.39 155.775 112.39Z" fill="#9CD9F8"/>
<path d="M158.054 109.162C158.525 109.162 158.908 108.737 158.908 108.213C158.908 107.689 158.525 107.264 158.054 107.264C157.582 107.264 157.199 107.689 157.199 108.213C157.199 108.737 157.582 109.162 158.054 109.162Z" fill="#9CD9F8"/>
<path d="M100.192 123.517L96.2929 116.831V112.516L96.7352 110.966H91.8758L92.3181 112.516V116.831L88.419 123.517C87.8833 124.436 88.553 125.584 89.6239 125.584H98.9871C100.058 125.584 100.728 124.436 100.192 123.517Z" fill="#E2F4FD"/>
<circle cx="94.3055" cy="121.819" r="7.82107" fill="url(#paint0_radial_1_3487)"/>
<path d="M94.3097 115.285L89.4107 123.203C88.9649 123.923 89.5223 124.824 90.4135 124.824H98.206C99.0976 124.824 99.6545 123.924 99.2087 123.203L94.3097 115.285Z" fill="#5FBCFF"/>
<path d="M94.3097 115.285L89.4107 123.203C88.9649 123.923 89.5223 124.824 90.4135 124.824H98.206C99.0976 124.824 99.6545 123.924 99.2087 123.203L94.3097 115.285Z" fill="#BA85FF"/>
<rect x="93.1172" y="112.67" width="2.38766" height="4.51287" fill="#BA85FF"/>
<path d="M99.5714 166.697C101.189 162.788 105.669 160.929 109.579 162.547" stroke="#2D2D2D" stroke-width="2.07467" stroke-linecap="round"/>
<path d="M94.9243 162.238C97.1277 162.126 99.0049 163.821 99.117 166.025" stroke="#2D2D2D" stroke-width="1.67569" stroke-linecap="round"/>
<g opacity="0.4">
<path d="M90.9319 109.767C92.3268 109.767 93.4576 108.637 93.4576 107.242C93.4576 105.847 92.3268 104.716 90.9319 104.716C89.537 104.716 88.4062 105.847 88.4062 107.242C88.4062 108.637 89.537 109.767 90.9319 109.767Z" fill="#AD79F4"/>
<path d="M91.5205 106.329C92.5717 106.329 93.4238 105.476 93.4238 104.425C93.4238 103.374 92.5717 102.522 91.5205 102.522C90.4693 102.522 89.6172 103.374 89.6172 104.425C89.6172 105.476 90.4693 106.329 91.5205 106.329Z" fill="#AD79F4"/>
<path d="M93.8723 105.051C94.9235 105.051 95.7757 104.199 95.7757 103.148C95.7757 102.097 94.9235 101.245 93.8723 101.245C92.8211 101.245 91.969 102.097 91.969 103.148C91.969 104.199 92.8211 105.051 93.8723 105.051Z" fill="#AD79F4"/>
<path d="M97.0516 106.955C98.1028 106.955 98.955 106.103 98.955 105.051C98.955 104 98.1028 103.148 97.0516 103.148C96.0005 103.148 95.1483 104 95.1483 105.051C95.1483 106.103 96.0005 106.955 97.0516 106.955Z" fill="#AD79F4"/>
<path d="M93.4554 109.767C94.8503 109.767 95.9811 108.637 95.9811 107.242C95.9811 105.847 94.8503 104.716 93.4554 104.716C92.0605 104.716 90.9297 105.847 90.9297 107.242C90.9297 108.637 92.0605 109.767 93.4554 109.767Z" fill="#AD79F4"/>
<path d="M93.9434 111.266C94.515 110.947 94.72 110.225 94.4013 109.654C94.0825 109.082 93.3607 108.877 92.789 109.196C92.2173 109.515 92.0123 110.236 92.3311 110.808C92.6498 111.38 93.3717 111.585 93.9434 111.266Z" fill="#AD79F4"/>
<path d="M95.1507 106.874C96.5456 106.874 97.6764 105.744 97.6764 104.349C97.6764 102.954 96.5456 101.823 95.1507 101.823C93.7558 101.823 92.625 102.954 92.625 104.349C92.625 105.744 93.7558 106.874 95.1507 106.874Z" fill="#AD79F4"/>
<path d="M96.4319 105.051C97.8268 105.051 98.9576 103.921 98.9576 102.526C98.9576 101.131 97.8268 100 96.4319 100C95.037 100 93.9062 101.131 93.9062 102.526C93.9062 103.921 95.037 105.051 96.4319 105.051Z" fill="#AD79F4"/>
<path d="M96.6077 109.767C98.0026 109.767 99.1334 108.637 99.1334 107.242C99.1334 105.847 98.0026 104.716 96.6077 104.716C95.2128 104.716 94.082 105.847 94.082 107.242C94.082 108.637 95.2128 109.767 96.6077 109.767Z" fill="#AD79F4"/>
<path d="M95.6113 110.853C96.183 110.534 96.388 109.812 96.0692 109.24C95.7505 108.669 95.0286 108.464 94.457 108.782C93.8853 109.101 93.6803 109.823 93.999 110.395C94.3178 110.966 95.0396 111.171 95.6113 110.853Z" fill="#AD79F4"/>
<path d="M95.2715 112.007C95.8431 111.688 96.0482 110.966 95.7294 110.395C95.4106 109.823 94.6888 109.618 94.1171 109.937C93.5455 110.255 93.3404 110.977 93.6592 111.549C93.978 112.121 94.6998 112.326 95.2715 112.007Z" fill="#AD79F4"/>
<path d="M94.7441 112.67C95.3158 112.351 95.5208 111.629 95.2021 111.058C94.8833 110.486 94.1615 110.281 93.5898 110.6C93.0181 110.919 92.8131 111.64 93.1319 112.212C93.4506 112.784 94.1725 112.989 94.7441 112.67Z" fill="#AD79F4"/>
<path d="M98.303 106.874C99.6979 106.874 100.829 105.744 100.829 104.349C100.829 102.954 99.6979 101.823 98.303 101.823C96.9081 101.823 95.7773 102.954 95.7773 104.349C95.7773 105.744 96.9081 106.874 98.303 106.874Z" fill="#AD79F4"/>
</g>
<path d="M15.236 20.27C11.492 20.27 8.576 17.48 8.576 13.484C8.576 9.668 11.348 6.806 15.128 6.806C18.404 6.806 20.744 8.75 21.59 11.558H18.368C17.972 10.244 16.784 9.254 15.056 9.254C12.968 9.254 11.384 10.784 11.384 13.556C11.384 16.04 12.77 17.948 15.362 17.948C17.27 17.948 18.476 16.814 18.836 15.212H15.092V13.034H21.752C21.914 17.246 19.358 20.27 15.236 20.27ZM27.3302 20.18C24.5402 20.18 22.4522 17.984 22.4522 15.194C22.4522 12.386 24.5402 10.208 27.3302 10.208C30.1202 10.208 32.2082 12.386 32.2082 15.194C32.2082 17.984 30.1202 20.18 27.3302 20.18ZM27.3302 17.966C28.5722 17.966 29.6342 16.976 29.6342 15.194C29.6342 13.412 28.5722 12.44 27.3302 12.44C26.0882 12.44 25.0262 13.412 25.0262 15.194C25.0262 16.976 26.0882 17.966 27.3302 17.966ZM37.6928 20.18C34.9028 20.18 32.8148 17.984 32.8148 15.194C32.8148 12.386 34.9028 10.208 37.6928 10.208C40.4828 10.208 42.5708 12.386 42.5708 15.194C42.5708 17.984 40.4828 20.18 37.6928 20.18ZM37.6928 17.966C38.9348 17.966 39.9968 16.976 39.9968 15.194C39.9968 13.412 38.9348 12.44 37.6928 12.44C36.4508 12.44 35.3888 13.412 35.3888 15.194C35.3888 16.976 36.4508 17.966 37.6928 17.966ZM43.1775 15.194C43.1775 12.35 44.8515 10.208 47.4435 10.208C48.5955 10.208 49.5675 10.712 50.2875 11.63V7.076H52.7715V20H50.4855V18.614C49.7295 19.622 48.6855 20.18 47.4435 20.18C44.8515 20.18 43.1775 18.002 43.1775 15.194ZM45.7515 15.194C45.7515 16.994 46.7775 17.948 48.0015 17.948C49.2435 17.948 50.2695 16.976 50.2695 15.158C50.2695 13.34 49.2255 12.422 48.0015 12.422C46.7775 12.422 45.7515 13.358 45.7515 15.194Z" fill="#231F20"/>
</g>
<defs>
<radialGradient id="paint0_radial_1_3487" cx="0" cy="0" r="1" gradientUnits="userSpaceOnUse" gradientTransform="translate(94.3054 121.819) rotate(90) scale(7.82107)">
<stop stop-color="#C5AFF5"/>
<stop offset="1" stop-color="#C5AFF5" stop-opacity="0"/>
</radialGradient>
<clipPath id="clip0_1_3487">
<rect width="174" height="183" rx="4" fill="white"/>
</clipPath>
</defs>
</svg>
