<svg width="174" height="183" viewBox="0 0 174 183" fill="none" xmlns="http://www.w3.org/2000/svg">
<g clip-path="url(#clip0_1_3317)">
<rect width="174" height="183" rx="4" fill="#A0FF00"/>
<path d="M124.977 41.0227L126.321 38.181L125.065 37.8223L124.258 39.5282L121.788 38.9043L120.713 41.1782L118.243 40.5545L116.899 43.3961L118.155 43.755L118.962 42.0487L121.432 42.6725L122.507 40.3988L124.977 41.0227Z" fill="#00C800"/>
<path d="M66.3084 87.9647C58.53 98.968 43.3045 101.583 32.3013 93.8043C21.298 86.0258 18.6832 70.8003 26.4617 59.7971L66.3084 87.9647Z" fill="#231F20"/>
<path d="M26.4599 59.797C21.7931 66.3991 23.3618 75.5341 29.9639 80.2009L38.4139 68.247L26.4599 59.797Z" fill="#231F20"/>
<path d="M65.8265 105.545L74.2773 93.5915L38.4173 68.2387L29.9665 80.1919L65.8265 105.545Z" fill="#231F20"/>
<path d="M39.2145 85.3023C34.8619 92.1159 36.8568 101.167 43.6698 105.52L51.5509 93.1835L39.2145 85.3023Z" fill="#231F20"/>
<path d="M47.1832 91.4482C42.8306 98.2618 44.8255 107.313 51.6385 111.666L59.5197 99.3293L47.1832 91.4482Z" fill="#6E00FF"/>
<path d="M54.9879 95.9871C50.6353 102.801 52.6302 111.852 59.4432 116.205L67.3244 103.868L54.9879 95.9871Z" fill="#231F20"/>
<path d="M63.0309 102.078C58.6783 108.891 60.6732 117.943 67.4862 122.295L75.3673 109.959L63.0309 102.078Z" fill="#6E00FF"/>
<path d="M64.5159 74.2377C56.1752 86.0362 39.8493 88.84 28.0508 80.4993C16.2523 72.1587 13.4486 55.8328 21.7892 44.0342L64.5159 74.2377Z" fill="#231F20"/>
<path d="M21.7906 44.0342C16.7864 51.1135 18.4685 60.9088 25.5478 65.9129L34.6085 53.095L21.7906 44.0342Z" fill="#231F20"/>
<path d="M64.0048 93.0883L73.0664 80.2712L34.6145 53.086L25.5529 65.9031L64.0048 93.0883Z" fill="#231F20"/>
<path d="M35.4669 71.3834C30.7998 78.6894 32.9388 88.395 40.2442 93.0622L48.695 79.8341L35.4669 71.3834Z" fill="#231F20"/>
<path d="M44.0138 77.973C39.3466 85.279 41.4857 94.9846 48.7911 99.6518L57.2419 86.4237L44.0138 77.973Z" fill="#C7EAFB"/>
<path d="M52.381 82.84C47.7138 90.1461 49.8529 99.8517 57.1583 104.519L65.6091 91.2908L52.381 82.84Z" fill="#231F20"/>
<path d="M61.006 89.3712C56.3388 96.6772 58.4779 106.383 65.7833 111.05L74.2341 97.8219L61.006 89.3712Z" fill="#C7EAFB"/>
<path d="M59.4316 75.8761C59.4215 76.2247 59.1574 76.5132 58.8111 76.554L52.9204 77.2478C52.4507 77.3032 52.0536 76.9032 52.1123 76.434L52.3168 74.7978C52.3685 74.3848 52.755 74.0989 53.165 74.1705L58.8498 75.1632C59.1939 75.2233 59.4417 75.5269 59.4316 75.8761V75.8761Z" fill="#FFE500"/>
<path d="M64.8876 71.385C64.6734 71.6169 64.3269 71.6691 64.0539 71.5107L55.6069 66.6097C55.167 66.3545 55.1174 65.7385 55.5107 65.4161L56.9018 64.276C57.1774 64.0502 57.5758 64.0568 57.8438 64.2916L64.8368 70.4202C65.1221 70.6702 65.1451 71.1064 64.8876 71.385V71.385Z" fill="#FFE500"/>
<path d="M63.9305 78.1836C64.1878 78.4515 64.2036 78.8715 63.9655 79.1566L61.3649 82.2705C61.0731 82.6199 60.5359 82.6191 60.2451 82.2688L59.2631 81.0856C58.9694 80.7318 59.0729 80.1977 59.4776 79.9793L63.058 78.0462C63.3461 77.8907 63.7036 77.9475 63.9305 78.1836V78.1836Z" fill="#FFE500"/>
<path d="M14.8883 99.1911L11.2266 98.1363L10.2562 101.505L13.9179 102.56L14.8883 99.1911Z" fill="#0A6FCB"/>
<path d="M57.5032 41.4513L58.5293 38.4802L57.2419 38.2604L56.6256 40.044L54.1025 39.6928L53.2811 42.0703L50.7578 41.7193L49.7312 44.6903L51.0188 44.9104L51.6353 43.1263L54.1586 43.4773L54.9801 41.1001L57.5032 41.4513Z" fill="#FF5A00"/>
<path d="M32.7277 39.5964C34.2535 39.5964 35.4905 38.3594 35.4905 36.8336C35.4905 35.3077 34.2535 34.0707 32.7277 34.0707C31.2019 34.0707 29.9648 35.3077 29.9648 36.8336C29.9648 38.3594 31.2019 39.5964 32.7277 39.5964Z" fill="#0082FF"/>
<path d="M88.6705 166.208H84.5682L79.8528 135.558C79.7821 135.098 79.3516 134.783 78.8916 134.853C78.4316 134.924 78.1162 135.355 78.1869 135.815L82.8629 166.209H74.1947C73.7291 166.209 73.3516 166.587 73.3516 167.052C73.3516 167.518 73.7291 167.895 74.1947 167.895H83.8419C83.8419 167.895 83.8438 167.895 83.8444 167.895C83.8456 167.895 83.8462 167.895 83.8475 167.895H88.6711C89.1366 167.895 89.5142 167.518 89.5142 167.052C89.5142 166.587 89.1366 166.209 88.6711 166.209L88.6705 166.208Z" fill="#2D2D2D"/>
<path d="M120.41 151.115L115.52 158.271L93.0636 137.262C92.7237 136.944 92.1903 136.961 91.8724 137.301C91.5545 137.641 91.5721 138.174 91.912 138.492L114.557 159.679L112.242 163.066C111.98 163.45 112.078 163.975 112.463 164.238C112.847 164.5 113.372 164.402 113.635 164.017L116.356 160.035C116.356 160.035 116.357 160.033 116.358 160.032C116.358 160.032 116.359 160.031 116.359 160.03L121.802 152.065C122.065 151.681 121.966 151.156 121.582 150.893C121.198 150.631 120.673 150.729 120.41 151.114L120.41 151.115Z" fill="#2D2D2D"/>
<path d="M115.766 87.9763C123.544 98.9796 138.77 101.594 149.773 93.8158C160.776 86.0374 163.391 70.8119 155.612 59.8087L115.766 87.9763Z" fill="#231F20"/>
<path d="M104.292 114.013C99.6248 107.411 101.193 98.2758 107.796 93.609L116.246 105.563L104.292 114.013Z" fill="#231F20"/>
<path d="M155.614 59.8087C160.281 66.4107 158.712 75.5458 152.11 80.2126L143.66 68.2586L155.614 59.8087Z" fill="#231F20"/>
<path d="M152.119 80.2118L143.668 68.2586L107.808 93.6114L116.259 105.565L152.119 80.2118Z" fill="#231F20"/>
<path d="M142.852 85.3149C147.205 92.1285 145.21 101.18 138.397 105.532L130.516 93.196L142.852 85.3149Z" fill="#231F20"/>
<path d="M134.876 91.4604C139.228 98.274 137.233 107.325 130.42 111.678L122.539 99.3416L134.876 91.4604Z" fill="#6E00FF"/>
<path d="M127.075 95.9995C131.427 102.813 129.432 111.864 122.619 116.217L114.738 103.881L127.075 95.9995Z" fill="#231F20"/>
<path d="M119.032 102.09C123.384 108.903 121.389 117.955 114.576 122.307L106.695 109.971L119.032 102.09Z" fill="#6E00FF"/>
<path d="M77.7743 114.001C82.4411 107.399 80.8724 98.2642 74.2703 93.5974L65.8203 105.551L77.7743 114.001Z" fill="#231F20"/>
<path d="M117.551 74.2505C125.892 86.049 142.217 88.8528 154.016 80.5121C165.814 72.1715 168.618 55.8456 160.278 44.0471L117.551 74.2505Z" fill="#231F20"/>
<path d="M105.248 102.169C100.243 95.0899 101.926 85.2946 109.005 80.2905L118.066 93.1084L105.248 102.169Z" fill="#231F20"/>
<path d="M160.271 44.0471C165.275 51.1263 163.593 60.9216 156.514 65.9257L147.453 53.1078L160.271 44.0471Z" fill="#231F20"/>
<path d="M156.53 65.925L147.469 53.1078L109.017 80.293L118.078 93.1101L156.53 65.925Z" fill="#231F20"/>
<path d="M146.599 71.3966C151.266 78.7027 149.127 88.4083 141.822 93.0754L133.371 79.8474L146.599 71.3966Z" fill="#231F20"/>
<path d="M138.041 77.9865C142.708 85.2926 140.569 94.9982 133.263 99.6654L124.812 86.4373L138.041 77.9865Z" fill="#C7EAFB"/>
<path d="M129.685 82.8533C134.352 90.1594 132.213 99.865 124.908 104.532L116.457 91.3041L129.685 82.8533Z" fill="#231F20"/>
<path d="M121.056 89.3836C125.723 96.6897 123.584 106.395 116.279 111.062L107.828 97.8344L121.056 89.3836Z" fill="#C7EAFB"/>
<path d="M76.8179 102.156C81.8221 95.0771 80.1399 85.2818 73.0607 80.2776L64 93.0956L76.8179 102.156Z" fill="#231F20"/>
<path d="M114.658 84.5876H67.5352V108.149H114.658V84.5876Z" fill="#2D2D2D"/>
<path d="M114.658 108.149H67.5352V131.71H114.658V108.149Z" fill="#2D2D2D"/>
<path d="M91.0884 108.149C104.101 108.149 114.65 97.6007 114.65 84.5882C114.65 71.5758 104.101 61.0272 91.0884 61.0272C78.076 61.0272 67.5273 71.5758 67.5273 84.5882C67.5273 97.6007 78.076 108.149 91.0884 108.149Z" fill="#2D2D2D"/>
<path d="M91.0962 155.271C104.109 155.271 114.657 144.722 114.657 131.71C114.657 118.698 104.109 108.149 91.0962 108.149C78.0838 108.149 67.5352 118.698 67.5352 131.71C67.5352 144.722 78.0838 155.271 91.0962 155.271Z" fill="#2D2D2D"/>
<path d="M81.0734 82.5328C84.7059 82.5328 87.6506 79.588 87.6506 75.9555C87.6506 72.323 84.7059 69.3782 81.0734 69.3782C77.4408 69.3782 74.4961 72.323 74.4961 75.9555C74.4961 79.588 77.4408 82.5328 81.0734 82.5328Z" fill="white"/>
<path d="M81.0781 79.2442C82.8946 79.2442 84.3671 77.7717 84.3671 75.9552C84.3671 74.1387 82.8946 72.6662 81.0781 72.6662C79.2616 72.6662 77.7891 74.1387 77.7891 75.9552C77.7891 77.7717 79.2616 79.2442 81.0781 79.2442Z" fill="#231F20"/>
<path d="M78.833 75.5229C80.2639 75.5229 81.4238 74.3629 81.4238 72.9321C81.4238 71.5012 80.2639 70.3412 78.833 70.3412C77.4021 70.3412 76.2422 71.5012 76.2422 72.9321C76.2422 74.3629 77.4021 75.5229 78.833 75.5229Z" fill="white"/>
<path d="M78.0943 97.6619C83.4189 97.6619 87.7354 93.3454 87.7354 88.0208C87.7354 82.6961 83.4189 78.3796 78.0943 78.3796C72.7696 78.3796 68.4531 82.6961 68.4531 88.0208C68.4531 93.3454 72.7696 97.6619 78.0943 97.6619Z" fill="#2D2D2D"/>
<path d="M101.101 82.5331C104.733 82.5331 107.678 79.5884 107.678 75.9559C107.678 72.3233 104.733 69.3786 101.101 69.3786C97.4682 69.3786 94.5234 72.3233 94.5234 75.9559C94.5234 79.5884 97.4682 82.5331 101.101 82.5331Z" fill="white"/>
<path d="M101.105 79.2446C102.922 79.2446 104.394 77.7721 104.394 75.9556C104.394 74.1391 102.922 72.6666 101.105 72.6666C99.289 72.6666 97.8164 74.1391 97.8164 75.9556C97.8164 77.7721 99.289 79.2446 101.105 79.2446Z" fill="#231F20"/>
<path d="M98.8642 75.5231C100.295 75.5231 101.455 74.3632 101.455 72.9323C101.455 71.5014 100.295 70.3415 98.8642 70.3415C97.4334 70.3415 96.2734 71.5014 96.2734 72.9323C96.2734 74.3632 97.4334 75.5231 98.8642 75.5231Z" fill="white"/>
<path d="M104.083 97.6621C109.407 97.6621 113.724 93.3456 113.724 88.021C113.724 82.6963 109.407 78.3798 104.083 78.3798C98.7579 78.3798 94.4414 82.6963 94.4414 88.021C94.4414 93.3456 98.7579 97.6621 104.083 97.6621Z" fill="#2D2D2D"/>
<path fill-rule="evenodd" clip-rule="evenodd" d="M128.075 89.4628C131.109 89.4628 133.568 87.0033 133.568 83.9694C133.568 80.9355 131.109 78.4761 128.075 78.4761C127.937 78.4761 127.801 78.4811 127.667 78.491C130.294 78.8843 132.309 81.1508 132.309 83.888C132.309 86.8737 129.912 89.2994 126.937 89.3448C127.304 89.4221 127.685 89.4628 128.075 89.4628ZM128.075 91.4621C132.213 91.4621 135.567 88.1075 135.567 83.9694C135.567 79.8313 132.213 76.4767 128.075 76.4767C123.937 76.4767 120.582 79.8313 120.582 83.9694C120.582 85.3727 120.968 86.6859 121.639 87.8087H110.519V88.2742H105.137V89.2366H110.519V89.2367H105.137V90.1991H110.519V91.4611H127.44V91.4356C127.649 91.4532 127.861 91.4621 128.075 91.4621ZM122.057 89.6348H123.171L123.171 89.6349H122.057V89.6348ZM126.883 87.346C128.779 87.3293 130.31 85.7875 130.31 83.888C130.31 82.0268 128.84 80.5089 126.997 80.4329C128.37 80.9694 129.343 82.3053 129.343 83.8683C129.343 85.4742 128.316 86.8403 126.883 87.346ZM127.343 83.8683C127.343 84.8004 126.588 85.5559 125.656 85.5559C124.724 85.5559 123.968 84.8004 123.968 83.8683C123.968 82.9362 124.724 82.1807 125.656 82.1807C126.588 82.1807 127.343 82.9362 127.343 83.8683Z" fill="#FEF138"/>
<mask id="mask0_1_3317" style="mask-type:alpha" maskUnits="userSpaceOnUse" x="105" y="76" width="31" height="16">
<path fill-rule="evenodd" clip-rule="evenodd" d="M128.071 89.4628C131.105 89.4628 133.564 87.0034 133.564 83.9695C133.564 80.9356 131.105 78.4761 128.071 78.4761C127.934 78.4761 127.798 78.4811 127.663 78.491C130.291 78.8845 132.306 81.151 132.306 83.888C132.306 86.8738 129.908 89.2996 126.933 89.3448C127.3 89.4222 127.681 89.4628 128.071 89.4628ZM128.071 91.4622C132.209 91.4622 135.563 88.1076 135.563 83.9695C135.563 79.8314 132.209 76.4768 128.071 76.4768C123.933 76.4768 120.578 79.8314 120.578 83.9695C120.578 85.3727 120.964 86.6858 121.635 87.8086H110.52V88.2742H105.133V89.2366V89.2366V90.1991H110.52V91.4611H127.44V91.436C127.648 91.4533 127.858 91.4622 128.071 91.4622ZM122.053 89.6348H123.167L123.167 89.6349H122.053V89.6348ZM126.88 87.346C128.775 87.3291 130.306 85.7873 130.306 83.888C130.306 82.0266 128.836 80.5087 126.993 80.4328C128.366 80.9692 129.339 82.3052 129.339 83.8684C129.339 85.4741 128.312 86.8402 126.88 87.346ZM127.339 83.8684C127.339 84.8004 126.584 85.556 125.652 85.556C124.72 85.556 123.964 84.8004 123.964 83.8684C123.964 82.9363 124.72 82.1807 125.652 82.1807C126.584 82.1807 127.339 82.9363 127.339 83.8684Z" fill="#FEF138"/>
</mask>
<g mask="url(#mask0_1_3317)">
<circle cx="105.747" cy="90.7173" r="1.34833" fill="#FF7EF2"/>
<circle cx="108.044" cy="87.35" r="1.34833" fill="#FF7EF2"/>
<circle cx="112.376" cy="91.2303" r="1.34833" fill="#FF7EF2"/>
<circle cx="118.055" cy="91.2303" r="1.34833" fill="#FF7EF2"/>
<circle cx="114.657" cy="87.4785" r="1.34833" fill="#FF7EF2"/>
<circle cx="121.337" cy="88.2601" r="1.34833" fill="#FF7EF2"/>
<circle cx="123.466" cy="90.046" r="1.34833" fill="#FF7EF2"/>
<circle cx="126.743" cy="88.5342" r="1.34833" fill="#FF7EF2"/>
<circle cx="124.876" cy="78.3806" r="1.34833" fill="#FF7EF2"/>
<circle cx="121.649" cy="83.0279" r="0.941602" fill="#FF7EF2"/>
<circle cx="123.629" cy="86.2448" r="0.941602" fill="#FF7EF2"/>
<circle cx="127.684" cy="82.2364" r="0.941602" fill="#FF7EF2"/>
<circle cx="129.383" cy="79.9809" r="0.941602" fill="#FF7EF2"/>
<circle cx="134.625" cy="82.5327" r="0.941602" fill="#FF7EF2"/>
<circle cx="133.09" cy="87.7565" r="0.941602" fill="#FF7EF2"/>
</g>
<path d="M82.5548 90.1991C82.5548 95.9292 86.8428 100.575 92.132 100.575L109.948 90.1985L82.5548 90.1985L82.5548 90.1991Z" fill="#C7EAFB"/>
<path d="M90.6949 80.3073C85.4508 80.9962 81.8044 86.1604 82.5507 91.8417L109.711 88.2739L90.6949 80.3067L90.6949 80.3073Z" fill="#6E00FF"/>
<rect x="109.488" y="87.7641" width="1.07974" height="3.69737" fill="#FF7EF2"/>
<path d="M116.618 68.5967C116.488 68.2732 116.614 67.9031 116.915 67.7272L122.037 64.7357C122.445 64.4972 122.969 64.7049 123.103 65.1585L123.57 66.74C123.688 67.1392 123.448 67.5558 123.043 67.6541L117.436 69.0175C117.097 69.1 116.748 68.9208 116.618 68.5967V68.5967Z" fill="#FFE500"/>
<path d="M117.316 61.609C117.08 61.353 117.058 60.9657 117.264 60.6848L123.885 51.6427C124.178 51.2425 124.777 51.2458 125.065 51.6493L126.651 53.8655C126.869 54.1703 126.82 54.5909 126.538 54.8377L118.512 61.8591C118.215 62.1192 117.764 62.095 117.497 61.8046L117.316 61.609Z" fill="#FFE500"/>
<path d="M122.718 73.295C122.69 72.9245 122.946 72.5908 123.311 72.5227L127.299 71.7791C127.747 71.6957 128.16 72.0385 128.161 72.4937L128.164 74.0313C128.165 74.4912 127.745 74.8369 127.294 74.7475L123.303 73.9567C122.982 73.8931 122.742 73.6215 122.718 73.295V73.295Z" fill="#FFE500"/>
<path d="M104.28 87.7109C98.4013 87.7109 93.3805 83.676 92.3424 78.1173C92.2321 77.5288 91.705 77.1015 91.0881 77.1015C90.4713 77.1015 89.9434 77.5288 89.8338 78.1173C88.7949 83.676 83.7749 87.7109 77.896 87.7109C74.6589 87.7109 71.6136 86.4964 69.3212 84.2907C67.0287 82.0851 65.7656 79.1551 65.7656 76.0404C65.7656 69.6053 71.207 64.3699 77.8953 64.3699H104.28C110.968 64.3699 116.41 69.6053 116.41 76.0404C116.41 79.1551 115.147 82.0851 112.855 84.2907C110.563 86.4964 107.517 87.7109 104.28 87.7109Z" fill="#D4D4D4" fill-opacity="0.3"/>
<path d="M104.28 87.7109C98.4013 87.7109 93.3805 83.676 92.3424 78.1173C92.2321 77.5288 91.705 77.1015 91.0881 77.1015C90.4713 77.1015 89.9434 77.5288 89.8338 78.1173C88.795 83.676 83.7749 87.7109 77.896 87.7109C74.6589 87.7109 71.6136 86.4964 69.3212 84.2907C67.0287 82.0851 65.7656 79.1551 65.7656 76.0404C65.7656 69.6053 71.207 64.3699 77.8953 64.3699H104.28C110.968 64.3699 116.41 69.6053 116.41 76.0404C116.41 79.1551 115.147 82.0851 112.855 84.2907C110.563 86.4964 107.517 87.7109 104.28 87.7109ZM91.0874 74.9794C92.7732 74.9794 94.2135 76.1416 94.5128 77.7424C95.3619 82.2888 99.4696 85.5888 104.279 85.5888C106.928 85.5888 109.419 84.5949 111.295 82.7903C113.171 80.9858 114.203 78.5885 114.203 76.0404C114.203 70.7753 109.752 66.4921 104.279 66.4921H77.8953C72.4231 66.4921 67.9713 70.7753 67.9713 76.0404C67.9713 78.5885 69.0043 80.9851 70.8798 82.7903C72.7554 84.5956 75.247 85.5888 77.8953 85.5888C82.7051 85.5888 86.8128 82.2888 87.662 77.7424C87.9612 76.1416 89.4015 74.9794 91.0874 74.9794Z" fill="#FFCC01"/>
<path d="M186.463 167.894H0.0664062V184.661H186.463V167.894Z" fill="#8ADD00"/>
<path d="M23.7273 112.799H10.2383V114.298H23.7273V112.799Z" fill="#AFA2FB"/>
<path d="M33.2851 119.544H10.8047V122.166H33.2851V119.544Z" fill="#0A6FCB"/>
<path d="M33.2851 119.544H10.8047V116.943H22.3066L23.0863 111.392L29.9945 108.491L33.2851 119.544Z" fill="#AFA2FB"/>
<path d="M19.2204 84.143L15.5586 83.0882L14.5882 86.4569L18.25 87.5117L19.2204 84.143Z" fill="#0A6FCB"/>
<path d="M20.4309 86.6448L13.1953 84.5605L9.43266 97.6222L16.6683 99.7065L20.4309 86.6448Z" fill="#AFA2FB"/>
<path d="M18.3919 96.877C20.0992 96.877 21.4832 95.4929 21.4832 93.7857C21.4832 92.0784 20.0992 90.6943 18.3919 90.6943C16.6846 90.6943 15.3005 92.0784 15.3005 93.7857C15.3005 95.4929 16.6846 96.877 18.3919 96.877Z" fill="#0A6FCB"/>
<path d="M22.8788 112.613V110.432C27.4092 110.432 31.0952 106.915 31.0952 102.59C31.0952 98.2659 27.4092 94.7481 22.8788 94.7481H15.8594V92.5678H22.8788C25.6496 92.5678 28.2567 93.6052 30.2197 95.4886C32.1941 97.3833 33.2817 99.905 33.2817 102.59C33.2817 105.276 32.1941 107.797 30.2197 109.692C28.2567 111.575 25.6496 112.613 22.8788 112.613Z" fill="#0A6FCB"/>
<path d="M169.415 122.166H165.856V167.876H169.415V122.166Z" fill="#72B503"/>
<path d="M9.43439 122.166H5.875V167.876H9.43439V122.166Z" fill="#72B503"/>
<path d="M163.226 105.572V99.4325L164.033 97.6254H156.827L157.433 99.4325V105.572C154.786 106.709 152.93 109.36 152.93 112.448C152.93 116.574 156.243 119.918 160.329 119.918C164.416 119.918 167.729 116.574 167.729 112.448C167.729 109.36 165.873 106.71 163.226 105.572H163.226Z" fill="#E2F4FD"/>
<path d="M160.241 88.0726L166.798 79.2673H153.684L160.241 88.0726Z" fill="#E2F4FD"/>
<path d="M163.604 83.3885H156.672L159.216 86.8353V90.5079L161.06 88.7896V86.8353L163.604 83.3885Z" fill="#8CEB4D"/>
<path d="M174.473 122.166H0.0664062V129.097H174.473V122.166Z" fill="#98DA2A"/>
<path d="M167.73 112.425C167.73 116.564 164.417 119.919 160.33 119.919C156.243 119.919 152.93 116.564 152.93 112.425H167.73H167.73Z" fill="#8CEB4D"/>
<path d="M170.73 119.731H147.875V121.979H170.73V119.731Z" fill="#5FBCFF"/>
<path d="M147.875 81.3271V121.417H148.999V81.3271H147.875Z" fill="#5FBCFF"/>
<path d="M170.352 86.1982H143.75V87.3222H170.352V86.1982Z" fill="#5FBCFF"/>
<path d="M148.436 89.0095C149.575 89.0095 150.497 88.0866 150.497 86.9482C150.497 85.8099 149.575 84.887 148.436 84.887C147.298 84.887 146.375 85.8099 146.375 86.9482C146.375 88.0866 147.298 89.0095 148.436 89.0095Z" fill="#0A6FCB"/>
<path d="M161.386 92.6625L160.336 90.8994V90.8819L160.331 90.8907L160.327 90.8832V90.8977L159.277 92.6607C159.059 93.0277 159.059 93.4802 159.277 93.8472C159.494 94.2116 159.893 94.4369 160.327 94.4404V94.4422C160.764 94.4422 161.167 94.2159 161.386 93.849C161.604 93.482 161.604 93.0295 161.386 92.6625H161.386Z" fill="#8CEB4D"/>
<path d="M155.648 113.737C156.424 113.737 157.053 113.066 157.053 112.238C157.053 111.41 156.424 110.739 155.648 110.739C154.871 110.739 154.242 111.41 154.242 112.238C154.242 113.066 154.871 113.737 155.648 113.737Z" fill="#9CD9F8"/>
<path d="M157.89 110.552C158.356 110.552 158.733 110.133 158.733 109.615C158.733 109.098 158.356 108.678 157.89 108.678C157.424 108.678 157.047 109.098 157.047 109.615C157.047 110.133 157.424 110.552 157.89 110.552Z" fill="#9CD9F8"/>
<path d="M100.8 124.718L96.9524 118.119V113.861L97.3889 112.331H92.5935L93.03 113.861V118.119L89.1821 124.718C88.6535 125.624 89.3144 126.757 90.3712 126.757H99.6112C100.668 126.757 101.329 125.624 100.8 124.718Z" fill="#5FBCFF"/>
<circle cx="94.9927" cy="119.19" r="12.52" fill="url(#paint0_radial_1_3317)" fill-opacity="0.7"/>
<path d="M94.9937 116.593L90.1587 124.408C89.7187 125.119 90.2688 126.008 91.1484 126.008H98.839C99.7189 126.008 100.269 125.119 99.8286 124.408L94.9937 116.593Z" fill="#5FBCFF"/>
<path d="M94.9937 116.593L90.1587 124.408C89.7187 125.119 90.2688 126.008 91.1484 126.008H98.839C99.7189 126.008 100.269 125.119 99.8286 124.408L94.9937 116.593Z" fill="#BA85FF"/>
<rect x="93.8164" y="114.012" width="2.35669" height="4.45434" fill="#BA85FF"/>
<path d="M101.389 106.93L101.085 108.806L102.785 109.672L100.907 109.968L100.611 111.848L99.7461 110.155L97.8607 110.447L99.2072 109.102L98.3426 107.409L100.043 108.275L101.389 106.93Z" fill="#FFE500"/>
<path d="M89.6155 113.828L90.3019 114.672L91.3183 114.274L90.7312 115.189L91.4222 116.03L90.3699 115.757L89.7781 116.674L89.7147 115.587L88.6624 115.313L89.6789 114.915L89.6155 113.828Z" fill="#FFE500"/>
<path d="M89.3301 102.518L90.5182 103.977L92.2777 103.289L91.2613 104.873L92.4575 106.33L90.636 105.856L89.6115 107.443L89.5018 105.562L87.6803 105.088L89.4398 104.399L89.3301 102.518Z" fill="#FFE500"/>
<rect width="28.8624" height="4.73113" rx="0.79795" transform="matrix(-0.455719 -0.890124 -0.890124 0.455719 161.719 62.5234)" fill="#FA78C3"/>
<path d="M93.869 39.9965L97.012 40.045L96.8193 38.7532L94.9324 38.7238L94.4793 36.2171L91.9643 36.178L91.5109 33.671L88.3679 33.6221L88.5604 34.9141L90.4477 34.9435L90.901 37.4505L93.4159 37.4898L93.869 39.9965Z" fill="#FF5A00"/>
<path d="M137.307 57.9162L140.449 57.9647L140.257 56.6729L138.37 56.6435L137.917 54.1367L135.402 54.0977L134.948 51.5907L131.805 51.5418L131.998 52.8338L133.885 52.8632L134.339 55.3702L136.853 55.4095L137.307 57.9162Z" fill="#FF5A00"/>
<path d="M74.2316 52.1305C75.7574 52.1305 76.9944 50.911 76.9944 49.4066C76.9944 47.9022 75.7574 46.6827 74.2316 46.6827C72.7058 46.6827 71.4688 47.9022 71.4688 49.4066C71.4688 50.911 72.7058 52.1305 74.2316 52.1305Z" fill="#00C800"/>
<path d="M51.9498 61.9742L53.2933 59.1325L52.0375 58.7738L51.2306 60.4797L48.7608 59.8558L47.6854 62.1297L45.2153 61.506L43.8712 64.3476L45.1272 64.7065L45.9343 63.0002L48.4044 63.6239L49.4799 61.3503L51.9498 61.9742Z" fill="#00C800"/>
<g opacity="0.4">
<path d="M91.5474 108.879C92.9415 109.154 94.2948 108.247 94.57 106.853C94.8451 105.459 93.938 104.105 92.5439 103.83C91.1497 103.555 89.7965 104.462 89.5213 105.856C89.2461 107.251 90.1532 108.604 91.5474 108.879Z" fill="#AD79F4"/>
<path d="M92.8154 105.558C93.866 105.766 94.8858 105.082 95.0932 104.031C95.3006 102.981 94.617 101.961 93.5664 101.754C92.5158 101.546 91.496 102.23 91.2886 103.28C91.0812 104.331 91.7648 105.351 92.8154 105.558Z" fill="#AD79F4"/>
<path d="M95.4131 104.745C96.4637 104.953 97.4835 104.269 97.6909 103.218C97.8982 102.168 97.2146 101.148 96.164 100.941C95.1134 100.733 94.0936 101.417 93.8862 102.467C93.6789 103.518 94.3625 104.538 95.4131 104.745Z" fill="#AD79F4"/>
<path d="M98.2139 107.275C99.2645 107.482 100.284 106.799 100.492 105.748C100.699 104.697 100.015 103.678 98.9648 103.47C97.9142 103.263 96.8944 103.947 96.687 104.997C96.4797 106.048 97.1633 107.068 98.2139 107.275Z" fill="#AD79F4"/>
<path d="M94.0669 109.377C95.4611 109.652 96.8143 108.745 97.0895 107.351C97.3647 105.956 96.4575 104.603 95.0634 104.328C93.6692 104.053 92.316 104.96 92.0408 106.354C91.7657 107.748 92.6728 109.102 94.0669 109.377Z" fill="#AD79F4"/>
<path d="M94.2609 110.971C94.8952 110.765 95.2425 110.084 95.0367 109.45C94.8308 108.816 94.1498 108.468 93.5156 108.674C92.8813 108.88 92.534 109.561 92.7399 110.195C92.9457 110.829 93.6267 111.177 94.2609 110.971Z" fill="#AD79F4"/>
<path d="M96.3325 106.82C97.7267 107.095 99.0799 106.188 99.3551 104.794C99.6303 103.399 98.7232 102.046 97.329 101.771C95.9349 101.496 94.5816 102.403 94.3064 103.797C94.0313 105.191 94.9384 106.544 96.3325 106.82Z" fill="#AD79F4"/>
<path d="M97.9732 105.25C99.3673 105.525 100.721 104.618 100.996 103.224C101.271 101.83 100.364 100.477 98.9696 100.202C97.5755 99.9264 96.2222 100.834 95.9471 102.228C95.6719 103.622 96.579 104.975 97.9732 105.25Z" fill="#AD79F4"/>
<path d="M97.2193 109.999C98.6134 110.274 99.9667 109.367 100.242 107.973C100.517 106.579 99.6099 105.225 98.2157 104.95C96.8216 104.675 95.4683 105.582 95.1932 106.976C94.918 108.37 95.8251 109.724 97.2193 109.999Z" fill="#AD79F4"/>
<path d="M96.007 110.887C96.6413 110.681 96.9886 110 96.7828 109.366C96.5769 108.731 95.8959 108.384 95.2617 108.59C94.6274 108.796 94.2801 109.477 94.486 110.111C94.6918 110.745 95.3728 111.093 96.007 110.887Z" fill="#AD79F4"/>
<path d="M95.4406 111.973C96.0749 111.767 96.4222 111.086 96.2164 110.452C96.0105 109.818 95.3295 109.47 94.6953 109.676C94.061 109.882 93.7137 110.563 93.9195 111.197C94.1254 111.831 94.8064 112.179 95.4406 111.973Z" fill="#AD79F4"/>
<path d="M94.7844 112.532C95.4186 112.326 95.7659 111.645 95.5601 111.011C95.3543 110.377 94.6733 110.03 94.039 110.235C93.4048 110.441 93.0575 111.122 93.2633 111.756C93.4691 112.391 94.1501 112.738 94.7844 112.532Z" fill="#AD79F4"/>
<path d="M99.4849 107.442C100.879 107.717 102.232 106.81 102.507 105.416C102.783 104.021 101.876 102.668 100.481 102.393C99.0872 102.118 97.734 103.025 97.4588 104.419C97.1836 105.813 98.0907 107.167 99.4849 107.442Z" fill="#AD79F4"/>
</g>
<path d="M13.236 20.27C9.492 20.27 6.576 17.48 6.576 13.484C6.576 9.668 9.348 6.806 13.128 6.806C16.404 6.806 18.744 8.75 19.59 11.558H16.368C15.972 10.244 14.784 9.254 13.056 9.254C10.968 9.254 9.384 10.784 9.384 13.556C9.384 16.04 10.77 17.948 13.362 17.948C15.27 17.948 16.476 16.814 16.836 15.212H13.092V13.034H19.752C19.914 17.246 17.358 20.27 13.236 20.27ZM23.5842 15.338V20H21.0822V10.388H23.3862V12.242C24.0882 11.018 25.5822 10.28 27.1302 10.28V12.872C25.0062 12.71 23.5842 13.214 23.5842 15.338ZM32.1755 20.162C29.2955 20.162 27.3695 18.164 27.3695 15.158C27.3695 12.296 29.3675 10.208 32.1395 10.208C35.1815 10.208 37.1975 12.674 36.7475 15.806H29.9255C30.0875 17.372 30.8435 18.236 32.1215 18.236C33.2195 18.236 33.9575 17.696 34.2455 16.742H36.7295C36.1895 18.92 34.5155 20.162 32.1755 20.162ZM32.0855 12.044C30.9155 12.044 30.1775 12.8 29.9615 14.222H34.1015C34.0295 12.89 33.2735 12.044 32.0855 12.044ZM43.7873 20V18.812C43.1573 19.712 42.2033 20.18 40.8893 20.18C38.8913 20.18 37.5593 19.01 37.5593 17.21C37.5593 15.338 39.0713 14.33 41.8793 14.33C42.4193 14.33 42.8873 14.366 43.4813 14.438V13.862C43.4813 12.782 42.8693 12.152 41.8253 12.152C40.7453 12.152 40.0973 12.782 40.0073 13.862H37.7573C37.9013 11.648 39.5033 10.208 41.8253 10.208C44.3453 10.208 45.8213 11.594 45.8213 13.952V20H43.7873ZM39.9173 17.138C39.9173 17.948 40.4933 18.452 41.4293 18.452C42.7073 18.452 43.4813 17.75 43.4813 16.634V15.95C42.8873 15.86 42.4733 15.824 42.0413 15.824C40.6193 15.824 39.9173 16.274 39.9173 17.138ZM53.4528 17.57V19.748C52.8408 20.054 52.2648 20.18 51.5268 20.18C49.5468 20.18 48.3048 19.046 48.3048 16.886V12.53H46.3608V10.388H48.3048V7.544H50.7888V10.388H53.5428V12.53H50.7888V16.31C50.7888 17.426 51.2928 17.876 52.1928 17.876C52.6608 17.876 53.0928 17.768 53.4528 17.57Z" fill="#231F20"/>
</g>
<defs>
<radialGradient id="paint0_radial_1_3317" cx="0" cy="0" r="1" gradientUnits="userSpaceOnUse" gradientTransform="translate(94.9927 119.19) rotate(90) scale(12.52)">
<stop stop-color="#C5AFF5"/>
<stop offset="1" stop-color="#C5AFF5" stop-opacity="0"/>
</radialGradient>
<clipPath id="clip0_1_3317">
<rect width="174" height="183" rx="4" fill="white"/>
</clipPath>
</defs>
</svg>
