<svg width="782" height="292" viewBox="0 0 782 292" fill="none" xmlns="http://www.w3.org/2000/svg">
<rect width="93.2153" height="15.2799" rx="2" transform="matrix(0.521562 0.853213 0.853213 -0.521562 245 66.9688)" fill="#FED75A"/>
<rect width="93.2153" height="15.2799" rx="2" transform="matrix(-0.455719 -0.890124 -0.890124 0.455719 527.078 245.973)" fill="#FA78C3"/>
<circle cx="212.5" cy="42.5234" r="18.5" fill="#FED75A"/>
<circle cx="713.5" cy="55.8672" r="30.5" fill="#FA78C3"/>
<path d="M526.048 135.646C557.541 135.646 583.072 110.312 583.072 79.0603C583.072 47.8089 557.541 22.4746 526.048 22.4746C494.554 22.4746 469.023 47.8089 469.023 79.0603C469.023 110.312 494.554 135.646 526.048 135.646Z" fill="#2D2D2D"/>
<path d="M525.409 70.209C511.674 70.209 500.539 80.4872 500.539 93.1651L525.41 135.869V70.209H525.409Z" fill="#C7EAFB"/>
<path d="M550.276 93.1651H550.275C550.275 80.4872 539.141 70.209 525.406 70.209V135.869L550.277 93.1651H550.276Z" fill="#6E00FF"/>
<path d="M550.085 41.4592C550.179 41.1703 550.588 41.1712 550.681 41.4605L554.274 52.6745C554.315 52.8041 554.436 52.892 554.572 52.892H566.394C566.697 52.892 566.823 53.2802 566.578 53.4584L557.046 60.3752C556.937 60.4549 556.891 60.5963 556.933 60.7253L560.583 71.9481C560.677 72.2364 560.347 72.4763 560.101 72.2982L550.568 65.38C550.459 65.3006 550.311 65.3004 550.201 65.3795L540.606 72.3029C540.361 72.4801 540.032 72.2402 540.125 71.9522L543.777 60.7253C543.819 60.5963 543.773 60.4549 543.663 60.3752L534.132 53.4584C533.887 53.2802 534.013 52.892 534.316 52.892H546.139C546.275 52.892 546.395 52.8047 546.437 52.6758L550.085 41.4592Z" fill="#FFE500"/>
<path d="M500.413 41.4592C500.507 41.1703 500.916 41.1712 501.009 41.4605L504.602 52.6745C504.643 52.8041 504.764 52.892 504.9 52.892H516.722C517.025 52.892 517.151 53.2802 516.906 53.4584L507.375 60.3752C507.265 60.4549 507.219 60.5963 507.261 60.7253L510.911 71.9481C511.005 72.2364 510.675 72.4763 510.429 72.2982L500.896 65.38C500.787 65.3006 500.639 65.3004 500.529 65.3795L490.934 72.3029C490.689 72.4801 490.36 72.2402 490.453 71.9522L494.105 60.7253C494.147 60.5963 494.101 60.4549 493.991 60.3752L484.46 53.4584C484.215 53.2802 484.341 52.892 484.644 52.892H496.467C496.603 52.892 496.723 52.8047 496.765 52.6758L500.413 41.4592Z" fill="#FFE500"/>
<path d="M582.134 53.612C581.796 52.7717 582.125 51.8106 582.907 51.3538L597.257 42.9717C598.281 42.3738 599.594 42.8946 599.93 44.0314L601.329 48.7715C601.624 49.7721 601.023 50.8163 600.009 51.0627L584.328 54.8754C583.446 55.0897 582.541 54.6243 582.202 53.7826L582.134 53.612Z" fill="#FFE500"/>
<path d="M456.07 52.717C456.044 53.6224 455.358 54.3717 454.459 54.4777L437.953 56.4218C436.776 56.5604 435.781 55.5581 435.928 54.3818L436.541 49.4777C436.67 48.4425 437.639 47.726 438.667 47.9055L454.564 50.6817C455.458 50.8378 456.102 51.6264 456.075 52.5332L456.07 52.717Z" fill="#FFE500"/>
<path d="M582.636 29.5422C582.045 28.9005 581.99 27.93 582.506 27.2259L600.933 2.0593C601.667 1.05617 603.168 1.06445 603.891 2.07563L608.484 8.49549C609.031 9.25953 608.908 10.3136 608.201 10.9322L585.892 30.4496C585.147 31.1015 584.018 31.0408 583.347 30.313L582.636 29.5422Z" fill="#FFE500"/>
<path d="M471.063 40.2968C470.483 40.9246 469.545 41.0659 468.806 40.637L445.352 27.0289C444.25 26.3892 444.125 24.8453 445.111 24.0373L449.246 20.6481C449.937 20.082 450.936 20.0985 451.607 20.6871L470.96 37.6475C471.732 38.3246 471.795 39.5055 471.098 40.26L471.063 40.2968Z" fill="#FFE500"/>
<path d="M599.081 63.0712C599.341 62.1771 600.232 61.6218 601.15 61.7824L612.495 63.7689C613.619 63.9657 614.289 65.1335 613.892 66.2032L612.273 70.5639C611.871 71.6444 610.582 72.0875 609.601 71.4819L599.791 65.4232C599.093 64.992 598.768 64.1479 598.997 63.3598L599.081 63.0712Z" fill="#FFE500"/>
<path d="M468.555 59.0858C469.2 59.7572 469.237 60.8066 468.64 61.5213L461.257 70.3617C460.525 71.2374 459.179 71.2354 458.45 70.3574L455.479 66.7781C454.743 65.8912 455.003 64.5526 456.017 64.0051L466.163 58.5273C466.885 58.1374 467.778 58.2772 468.347 58.869L468.555 59.0858Z" fill="#FFE500"/>
<path d="M362.773 243.077C386.817 252.614 414.04 240.855 423.577 216.811C433.115 192.767 421.355 165.544 397.311 156.007C373.267 146.469 346.044 158.229 336.507 182.273C326.969 206.316 338.729 233.539 362.773 243.077Z" fill="#2D2D2D"/>
<path d="M392.481 214.141C396.307 204.128 391.38 192.705 381.476 188.627L344.708 192.637C343.787 192.738 343.632 194.027 344.498 194.384L392.481 214.141L392.481 214.141Z" fill="#C7EAFB"/>
<path d="M366.946 225.927L366.947 225.926C376.851 230.004 387.981 225.194 391.807 215.182L343.824 195.424C342.958 195.068 342.22 196.117 342.824 196.846L366.946 225.928L366.946 225.927Z" fill="#6E00FF"/>
<path d="M371.252 167.022C377.878 169.65 381.135 177.13 378.522 183.716C378.194 184.543 377.283 184.934 376.451 184.604C375.619 184.274 375.223 183.365 375.551 182.538C377.519 177.576 375.042 171.944 370.08 169.976C365.118 168.008 359.442 170.439 357.486 175.372C357.158 176.199 356.246 176.589 355.414 176.259C354.582 175.929 354.187 175.02 354.515 174.193C357.127 167.607 364.626 164.394 371.252 167.022Z" fill="white"/>
<path d="M408.24 181.689C414.866 184.317 418.123 191.797 415.51 198.383C415.182 199.21 414.271 199.601 413.439 199.271C412.607 198.941 412.211 198.032 412.539 197.205C414.508 192.243 412.03 186.611 407.068 184.643C402.106 182.674 396.431 185.106 394.474 190.039C394.146 190.866 393.235 191.256 392.403 190.926C391.571 190.596 391.175 189.687 391.503 188.86C394.116 182.274 401.614 179.061 408.24 181.689Z" fill="white"/>
<path d="M329.232 182.442C330.541 179.142 328.937 175.372 325.61 174.052C322.283 172.733 318.541 174.35 317.221 177.678C315.901 181.006 317.516 184.748 320.843 186.068L322.845 186.862L342.835 194.792" stroke="#00C800" stroke-width="1.75802" stroke-linecap="round" stroke-linejoin="round"/>
<path d="M422.567 187.335L390.646 155.621L442.156 137.95L422.567 187.335Z" fill="#00C800" stroke="#00C800" stroke-width="0.0775596" stroke-linecap="round" stroke-linejoin="round"/>
<path d="M438.777 146.484C443.489 148.353 448.824 146.049 450.693 141.337C452.562 136.626 450.257 131.291 445.545 129.422C440.834 127.553 435.499 129.857 433.63 134.569C431.761 139.281 434.066 144.615 438.777 146.484Z" fill="#6E00FF"/>
<path d="M440.314 199.164C442.305 200.79 445.236 200.494 446.862 198.503C448.487 196.512 448.192 193.581 446.201 191.955C444.21 190.33 441.279 190.625 439.653 192.616C438.027 194.607 438.323 197.538 440.314 199.164Z" fill="#FF5A00"/>
<path d="M417.505 221.273C419.496 222.898 422.428 222.602 424.053 220.612C425.679 218.621 425.383 215.689 423.392 214.064C421.402 212.438 418.47 212.734 416.844 214.725C415.219 216.715 415.515 219.647 417.505 221.273Z" fill="#FF00FF"/>
<path d="M355.494 146.969C357.849 147.904 360.517 146.751 361.451 144.396C362.386 142.04 361.233 139.372 358.878 138.438C356.522 137.503 353.855 138.656 352.92 141.012C351.986 143.367 353.138 146.035 355.494 146.969Z" fill="#0082FF"/>
<path d="M375.151 144.736C377.506 145.671 380.163 144.546 381.084 142.223C382.006 139.9 380.843 137.26 378.487 136.325C376.131 135.391 373.475 136.516 372.553 138.839C371.632 141.162 372.795 143.802 375.151 144.736Z" fill="#00C800"/>
<path d="M313.701 110.881C336.787 104.718 350.506 81.0076 344.343 57.9217C338.18 34.8358 314.47 21.1168 291.384 27.2795C268.298 33.4422 254.579 57.1528 260.742 80.2387C266.904 103.325 290.615 117.044 313.701 110.881Z" fill="#2D2D2D"/>
<path d="M301.68 62.2925C290.987 65.336 284.199 75.3174 286.519 84.586L313.699 110.294L301.681 62.2923L301.68 62.2925Z" fill="#C7EAFB"/>
<path d="M324.288 74.1617L324.287 74.1619C321.967 64.8934 311.417 59.8464 300.724 62.8899L312.742 110.892L324.289 74.1615L324.288 74.1617Z" fill="#6E00FF"/>
<path d="M320.459 29.5749C321.452 34.042 325.915 36.7682 330.396 35.6467C334.898 34.5485 337.737 30.0289 336.72 25.582C335.703 21.1351 325.154 13.4664 325.379 13.3951C325.514 13.3611 319.443 25.128 320.436 29.5951L320.459 29.5749Z" fill="#0082FF"/>
<path d="M321.309 33.7305C320.406 32.6598 319.725 31.3208 319.385 29.8532C318.554 26.2075 321.631 18.9724 324.022 13.8745C324.162 13.5566 324.294 13.3256 324.33 13.1751C324.435 12.7672 324.748 12.4616 325.152 12.3594C325.555 12.2572 326.04 12.445 326.232 12.7212C326.232 12.7212 326.271 12.7678 326.291 12.7911C326.428 12.954 326.799 13.1993 327.223 13.5578C332.007 17.4873 337.001 21.9567 337.77 25.3355C338.323 27.7804 337.883 30.3072 336.518 32.4613C335.152 34.6154 333.083 36.1287 330.619 36.7388C327.036 37.6185 323.484 36.3575 321.285 33.7506L321.309 33.7305ZM321.512 29.3281C322.385 33.2173 326.249 35.5721 330.168 34.6073C332.05 34.1303 333.672 32.9567 334.703 31.3252C335.758 29.6736 336.075 27.7285 335.666 25.8405C334.963 22.685 328.11 17.0762 325.841 15.2077L325.801 15.1611C322.487 22.3573 321.045 27.1298 321.536 29.3079L321.512 29.3281Z" fill="#0082FF"/>
<path d="M278.101 49.8029C284.463 48.1046 290.997 51.8593 292.685 58.1836C292.897 58.9776 292.436 59.7691 291.637 59.9823C290.838 60.1956 290.044 59.7392 289.832 58.9451C288.56 54.1807 283.622 51.3671 278.858 52.6388C274.094 53.9106 271.222 58.8393 272.487 63.5754C272.699 64.3695 272.238 65.1609 271.439 65.3742C270.64 65.5874 269.846 65.131 269.634 64.3369C267.946 58.0127 271.739 51.5011 278.101 49.8029Z" fill="white"/>
<path d="M313.609 40.3254C319.971 38.6272 326.505 42.3819 328.193 48.7062C328.405 49.5002 327.944 50.2917 327.145 50.5049C326.346 50.7182 325.552 50.2618 325.34 49.4677C324.068 44.7032 319.13 41.8896 314.366 43.1614C309.602 44.4332 306.73 49.3619 307.994 54.098C308.206 54.8921 307.745 55.6835 306.947 55.8968C306.148 56.11 305.354 55.6536 305.142 54.8595C303.453 48.5353 307.247 42.0237 313.609 40.3254Z" fill="white"/>
<path d="M212.237 229.732C230.593 234.846 249.619 224.111 254.733 205.755C259.846 187.399 249.112 168.373 230.756 163.259C212.4 158.146 193.374 168.88 188.26 187.236C183.146 205.592 193.881 224.618 212.237 229.732Z" fill="#2D2D2D"/>
<path d="M208.428 189.397C213.687 190.969 218.998 188.207 220.291 183.228C221.583 178.249 218.368 172.938 213.108 171.365C207.849 169.793 202.538 172.555 201.246 177.534C199.953 182.513 203.169 187.824 208.428 189.397Z" fill="white"/>
<path d="M209.597 184.893C212.226 185.679 214.881 184.299 215.528 181.809C216.174 179.32 214.566 176.664 211.937 175.878C209.307 175.092 206.652 176.473 206.006 178.962C205.36 181.452 206.967 184.107 209.597 184.893Z" fill="#231F20"/>
<path d="M236.666 197.266C241.925 198.839 247.237 196.077 248.529 191.098C249.822 186.119 246.606 180.808 241.347 179.235C236.088 177.663 230.776 180.424 229.484 185.404C228.191 190.383 231.407 195.694 236.666 197.266Z" fill="white"/>
<path d="M237.835 192.763C240.464 193.549 243.12 192.168 243.766 189.679C244.412 187.189 242.804 184.534 240.175 183.748C237.546 182.962 234.89 184.342 234.244 186.832C233.598 189.321 235.206 191.977 237.835 192.763Z" fill="#231F20"/>
<path d="M222.999 191.583C214.491 189.062 206.029 192.991 204.099 200.359L213.004 229.738L223 191.583L222.999 191.583Z" fill="#C7EAFB"/>
<path d="M234.141 208.999L234.141 208.999C236.071 201.632 230.739 193.616 222.23 191.095L212.235 229.251L234.142 209L234.141 208.999Z" fill="#6E00FF"/>
<path d="M200.246 177.477C201.863 171.67 207.881 168.276 213.686 169.893C219.491 171.51 222.887 177.529 221.27 183.334L200.244 177.477L200.246 177.477Z" fill="#0082FF"/>
<path d="M228.476 185.35C230.094 179.543 236.112 176.148 241.917 177.766C247.722 179.383 251.117 185.401 249.5 191.207L228.475 185.349L228.476 185.35Z" fill="#0082FF"/>
<path d="M89.8926 147.268C109.198 140.15 119.079 118.729 111.961 99.4238C104.843 80.1181 83.4228 70.2378 64.1172 77.3555C44.8115 84.4731 34.9312 105.894 42.0488 125.199C49.1665 144.505 70.5869 154.385 89.8926 147.268Z" fill="#2D2D2D"/>
<path d="M75.7459 106.635C66.7786 110.088 61.7222 119.159 64.4525 126.895L89.8866 146.698L75.7465 106.634L75.7459 106.635Z" fill="#C7EAFB"/>
<path d="M96.0881 114.966L96.0874 114.966C93.3572 107.231 83.8745 103.759 74.9072 107.212L89.0472 147.275L96.0887 114.966L96.0881 114.966Z" fill="#6E00FF"/>
<path d="M54.5258 97.7384C59.8459 95.777 65.7468 98.4775 67.6966 103.766C67.9414 104.43 67.6089 105.146 66.9409 105.392C66.2729 105.638 65.5557 105.31 65.3109 104.646C63.842 100.661 59.3843 98.6411 55.4002 100.11C51.4161 101.579 49.3455 106.033 50.8057 109.994C51.0505 110.658 50.718 111.373 50.0501 111.619C49.3821 111.865 48.6648 111.537 48.42 110.873C46.4702 105.584 49.2058 99.6998 54.5258 97.7384Z" fill="white"/>
<path d="M84.2212 86.7853C89.5413 84.8238 95.4421 87.5244 97.3919 92.8131C97.6367 93.4771 97.3042 94.1924 96.6363 94.4387C95.9683 94.685 95.251 94.3567 95.0062 93.6927C93.5373 89.7084 89.0796 87.688 85.0955 89.1569C81.1114 90.6258 79.0408 95.0799 80.501 99.0405C80.7458 99.7045 80.4134 100.42 79.7454 100.666C79.0774 100.912 78.3602 100.584 78.1153 99.92C76.1655 94.6314 78.9011 88.7467 84.2212 86.7853Z" fill="white"/>
<path d="M116.534 87.4269C114.021 88.3534 112.708 91.146 113.648 93.6947C112.72 91.1783 109.929 89.8619 107.384 90.8002C104.839 91.7385 103.559 94.5193 104.499 97.068C107.532 105.295 118.671 107.418 118.671 107.418C118.671 107.418 125.766 98.572 122.733 90.3452C121.805 87.8288 119.014 86.5124 116.469 87.4507L116.534 87.4269Z" fill="#FF5A00"/>
<path d="M123.799 66.5347C121.805 67.27 120.764 69.4877 121.51 71.5121C120.773 69.5133 118.558 68.4672 116.538 69.2119C114.518 69.9566 113.502 72.1649 114.249 74.1893C116.658 80.7239 125.5 82.4125 125.5 82.4125C125.5 82.4125 131.13 75.3883 128.721 68.8538C127.984 66.855 125.768 65.8089 123.748 66.5536L123.799 66.5347Z" fill="#FF5A00"/>
<path d="M103.561 57.0936C101.885 57.7112 101.011 59.5751 101.639 61.277C101.019 59.5967 99.1576 58.7169 97.4609 59.3425C95.7642 59.968 94.9115 61.824 95.5389 63.5258C97.5642 69.019 104.993 70.4402 104.993 70.4402C104.993 70.4402 109.721 64.5372 107.695 59.044C107.076 57.3637 105.214 56.4839 103.518 57.1094L103.561 57.0936Z" fill="#FF5A00"/>
<path d="M161.53 121.038L164.844 111.444L160.687 110.734L158.696 116.494L150.549 115.36L147.897 123.037L139.748 121.904L136.433 131.498L140.591 132.208L142.582 126.447L150.73 127.581L153.383 119.904L161.53 121.038Z" fill="#FF5A00"/>
<path d="M31.3693 180.586L41.5185 180.743L40.8964 176.572L34.8033 176.477L33.3402 168.382L25.2187 168.256L23.7547 160.16L13.6053 160.002L14.2268 164.174L20.3213 164.269L21.7853 172.365L29.9062 172.492L31.3693 180.586Z" fill="#FF5A00"/>
<path d="M301.369 217.563L311.518 217.719L310.896 213.548L304.803 213.453L303.34 205.358L295.219 205.232L293.755 197.137L283.605 196.979L284.227 201.151L290.321 201.246L291.785 209.341L299.906 209.468L301.369 217.563Z" fill="#FF5A00"/>
<path d="M39.5864 231.657C30.7927 241.489 21.999 251.322 13.2099 261.154C11.9305 262.583 10.6512 264.012 9.37255 265.446C7.3947 267.657 11.183 270.302 13.1405 268.11C21.9341 258.277 30.7278 248.445 39.5169 238.613C40.7963 237.183 42.0757 235.754 43.3543 234.32C45.3321 232.11 41.5439 229.464 39.5864 231.657Z" fill="#6E00FF"/>
<path d="M54.2531 231.238C40.82 246.331 27.3816 261.42 13.9485 276.512C12.0272 278.671 10.1014 280.83 8.18016 282.989C6.25888 285.147 9.99138 287.849 11.9481 285.652C25.3811 270.559 38.8196 255.47 52.2526 240.377C54.1739 238.219 56.0997 236.06 58.021 233.901C59.9423 231.743 56.2098 229.04 54.2531 231.238Z" fill="#6E00FF"/>
<path d="M399.123 84.7045L408.6 88.3392L409.45 84.2082L403.76 82.0252L405.168 73.9206L397.585 71.0112L398.992 62.9057L389.515 59.2695L388.665 63.401L394.355 65.5845L392.948 73.6901L400.531 76.5999L399.123 84.7045Z" fill="#F8B552"/>
<path d="M747.153 124.333C748.896 124.886 750.756 123.922 751.309 122.179C751.861 120.437 750.897 118.577 749.155 118.024C747.412 117.471 745.552 118.436 744.999 120.178C744.447 121.92 745.411 123.781 747.153 124.333Z" fill="#FF00FF"/>
<path d="M117.921 203.732C122.847 203.732 126.841 199.738 126.841 194.811C126.841 189.885 122.847 185.891 117.921 185.891C112.994 185.891 109 189.885 109 194.811C109 199.738 112.994 203.732 117.921 203.732Z" fill="#0082FF"/>
<path d="M151.827 185.614C156.754 185.614 160.748 181.676 160.748 176.818C160.748 171.961 156.754 168.023 151.827 168.023C146.9 168.023 142.906 171.961 142.906 176.818C142.906 181.676 146.9 185.614 151.827 185.614Z" fill="#00C800"/>
<path d="M398.103 101.799C402.578 103.218 407.356 100.741 408.776 96.2662C410.195 91.7913 407.719 87.0131 403.244 85.5936C398.769 84.1742 393.99 86.6511 392.571 91.126C391.151 95.6009 393.628 100.379 398.103 101.799Z" fill="#FF5A00"/>
<path d="M753.584 200.327C768.988 195.89 777.878 179.806 773.441 164.402C769.004 148.998 752.92 140.107 737.516 144.544C722.112 148.981 713.222 165.065 717.659 180.469C722.096 195.873 738.18 204.764 753.584 200.327Z" fill="#2D2D2D"/>
<path d="M732.789 173.19C737.205 171.828 739.873 167.338 738.75 163.162C737.626 158.985 733.136 156.703 728.721 158.065C724.306 159.427 721.637 163.917 722.761 168.094C723.884 172.27 728.374 174.552 732.789 173.19Z" fill="white"/>
<path d="M731.773 169.413C733.981 168.732 735.315 166.487 734.753 164.399C734.191 162.311 731.947 161.17 729.739 161.851C727.532 162.532 726.197 164.777 726.759 166.865C727.321 168.953 729.566 170.094 731.773 169.413Z" fill="#231F20"/>
<path d="M756.485 166.369C760.9 165.007 763.568 160.517 762.445 156.34C761.322 152.163 756.832 149.881 752.416 151.243C748.001 152.605 745.333 157.095 746.456 161.272C747.579 165.449 752.069 167.731 756.485 166.369Z" fill="white"/>
<path d="M755.468 162.591C757.676 161.91 759.01 159.665 758.448 157.577C757.887 155.489 755.642 154.348 753.434 155.029C751.227 155.71 749.893 157.955 750.454 160.043C751.016 162.131 753.261 163.272 755.468 162.591Z" fill="#231F20"/>
<path d="M744.895 167.905C737.752 170.088 733.321 176.869 734.999 183.05L753.584 199.916L744.896 167.905L744.895 167.905Z" fill="#C7EAFB"/>
<path d="M760.214 175.559L760.214 175.559C758.536 169.378 751.385 166.137 744.242 168.321L752.931 200.332L760.215 175.559L760.214 175.559Z" fill="#6E00FF"/>
<path d="M721.939 168.19C720.536 163.317 723.348 158.231 728.22 156.827C733.091 155.424 738.179 158.237 739.582 163.108L721.938 168.191L721.939 168.19Z" fill="#FA03FF"/>
<path d="M745.631 161.371C744.227 156.498 747.04 151.411 751.911 150.008C756.782 148.605 761.87 151.417 763.273 156.289L745.63 161.371L745.631 161.371Z" fill="#FA03FF"/>
<path d="M637.921 166.709C642.847 166.709 646.841 162.715 646.841 157.788C646.841 152.861 642.847 148.867 637.921 148.867C632.994 148.867 629 152.861 629 157.788C629 162.715 632.994 166.709 637.921 166.709Z" fill="#0082FF"/>
<path d="M671.827 148.59C676.754 148.59 680.748 144.652 680.748 139.795C680.748 134.938 676.754 131 671.827 131C666.9 131 662.906 134.938 662.906 139.795C662.906 144.652 666.9 148.59 671.827 148.59Z" fill="#00C800"/>
<path d="M586.609 267.718C607.925 277.335 633.001 267.851 642.618 246.535C652.235 225.22 642.752 200.143 621.436 190.526C600.12 180.909 575.044 190.393 565.427 211.708C555.81 233.024 565.293 258.1 586.609 267.718Z" fill="#2D2D2D"/>
<path d="M589.479 218.045C595.605 220.911 602.605 218.559 605.114 212.791C607.623 207.023 604.691 200.023 598.565 197.156C592.439 194.289 585.439 196.641 582.93 202.409C580.421 208.178 583.353 215.178 589.479 218.045Z" fill="white"/>
<path d="M591.411 213.547C594.758 215.071 598.667 213.632 600.142 210.333C601.617 207.035 600.099 203.125 596.752 201.602C593.405 200.078 589.496 201.517 588.021 204.816C586.546 208.114 588.064 212.024 591.411 213.547Z" fill="black"/>
<path d="M589.896 206.365C592.44 207.556 595.347 206.579 596.389 204.184C597.431 201.788 596.213 198.881 593.669 197.691C591.125 196.5 588.218 197.477 587.177 199.872C586.135 202.268 587.352 205.175 589.896 206.365Z" fill="white"/>
<path d="M622.292 232.85C628.418 235.717 635.418 233.365 637.927 227.597C640.436 221.828 637.504 214.828 631.378 211.961C625.252 209.095 618.252 211.447 615.743 217.215C613.234 222.983 616.166 229.983 622.292 232.85Z" fill="white"/>
<path d="M624.223 228.351C627.57 229.875 631.479 228.436 632.954 225.137C634.429 221.839 632.912 217.93 629.565 216.406C626.218 214.882 622.309 216.321 620.834 219.62C619.359 222.918 620.876 226.828 624.223 228.351Z" fill="black"/>
<path d="M622.709 221.171C625.252 222.361 628.159 221.384 629.201 218.989C630.243 216.594 629.026 213.687 626.482 212.496C623.938 211.306 621.031 212.283 619.989 214.678C618.947 217.073 620.165 219.98 622.709 221.171Z" fill="white"/>
<path d="M574.121 238.759C582.843 242.694 593.105 238.814 597.04 230.091C600.975 221.369 597.095 211.108 588.372 207.172C579.65 203.237 569.388 207.118 565.453 215.84C561.518 224.562 565.398 234.824 574.121 238.759Z" fill="#2D2D2D"/>
<path d="M616.683 257.959C625.406 261.894 635.667 258.013 639.602 249.291C643.538 240.569 639.657 230.307 630.935 226.372C622.212 222.437 611.951 226.317 608.016 235.04C604.08 243.762 607.961 254.023 616.683 257.959Z" fill="#2D2D2D"/>
<path d="M606.859 223.506C596.977 218.909 585.937 222.104 582.201 230.642L587.511 267.724L606.859 223.506L606.859 223.506Z" fill="#C7EAFB"/>
<path d="M617.082 246.632L617.081 246.632C620.817 238.094 615.836 227.446 605.954 222.849L586.605 267.066L617.083 246.633L617.082 246.632Z" fill="#6E00FF"/>
<path d="M650.085 231.852C650.115 231.134 650.667 230.546 651.381 230.471L661.683 229.387C663.595 229.186 665.189 230.832 664.927 232.737V232.737C664.696 234.414 663.11 235.556 661.447 235.244L651.266 233.336C650.558 233.203 650.056 232.571 650.085 231.852V231.852Z" fill="#F8B552"/>
<path d="M570.977 194.748C570.596 195.531 569.698 195.917 568.867 195.654L556.894 191.864C554.671 191.16 553.698 188.558 554.913 186.568V186.568C555.982 184.817 558.299 184.316 559.996 185.469L570.384 192.527C571.106 193.017 571.359 193.963 570.977 194.748V194.748Z" fill="#F8B552"/>
<path d="M661.372 214.974C661.299 214.113 661.846 213.322 662.676 213.085L681.38 207.74C683.97 207 686.525 209.008 686.419 211.699V211.699C686.339 213.733 684.729 215.373 682.697 215.492L663.277 216.625C662.3 216.682 661.455 215.95 661.372 214.974V214.974Z" fill="#F8B552"/>
<path d="M567.753 178.76C567.154 179.014 566.459 178.818 566.081 178.289L555.727 163.824C554.46 162.053 555.351 159.562 557.454 158.996V158.996C558.927 158.6 560.47 159.327 561.103 160.715L568.475 176.904C568.799 177.616 568.473 178.454 567.753 178.76V178.76Z" fill="#F8B552"/>
<path d="M656.455 243.739C657.125 242.955 658.277 242.8 659.13 243.38L666.667 248.506C668.618 249.832 668.888 252.602 667.23 254.28V254.28C665.556 255.975 662.749 255.714 661.416 253.739L656.317 246.184C655.808 245.43 655.865 244.43 656.455 243.739V243.739Z" fill="#F8B552"/>
<path d="M566.548 202.774C566.676 203.531 566.215 204.263 565.477 204.474L558.953 206.333C557.265 206.815 555.553 205.647 555.386 203.899V203.899C555.217 202.134 556.705 200.656 558.469 200.837L565.218 201.529C565.891 201.598 566.435 202.107 566.548 202.774V202.774Z" fill="#F8B552"/>
<path d="M548.113 164.888C548.65 164.312 549.61 164.764 549.544 165.562L549.28 168.794C549.251 169.153 549.449 169.496 549.772 169.647L552.788 171.059C553.537 171.409 553.406 172.529 552.601 172.662L549.582 173.164C549.211 173.225 548.932 173.535 548.903 173.918L548.665 176.998C548.603 177.809 547.563 178.052 547.138 177.355L545.345 174.418C545.165 174.124 544.83 173.967 544.498 174.021L541.152 174.567C540.367 174.695 539.857 173.727 540.401 173.143L542.478 170.911C542.736 170.635 542.775 170.213 542.574 169.884L540.938 167.205C540.502 166.49 541.225 165.648 541.974 165.998L544.993 167.411C545.315 167.561 545.692 167.489 545.932 167.231L548.113 164.888Z" fill="#F8B552"/>
<path d="M586.336 159.448C586.872 158.872 587.832 159.324 587.767 160.122L587.503 163.353C587.474 163.713 587.671 164.055 587.995 164.207L591.011 165.618C591.759 165.968 591.629 167.088 590.824 167.222L587.804 167.723C587.434 167.785 587.155 168.095 587.125 168.477L586.888 171.558C586.825 172.369 585.786 172.612 585.36 171.915L583.567 168.978C583.387 168.683 583.053 168.526 582.721 168.581L579.374 169.127C578.59 169.255 578.08 168.287 578.624 167.702L580.701 165.471C580.958 165.195 580.998 164.773 580.797 164.444L579.161 161.764C578.725 161.05 579.448 160.207 580.196 160.557L583.215 161.97C583.538 162.121 583.914 162.049 584.155 161.791L586.336 159.448Z" fill="#F8B552"/>
<path d="M510.22 260.176C510.756 259.6 511.716 260.052 511.651 260.85L510.994 268.895C510.965 269.254 511.162 269.597 511.486 269.748L519.147 273.333C519.895 273.683 519.765 274.803 518.96 274.937L511.081 276.245C510.71 276.306 510.431 276.616 510.402 276.999L509.792 284.902C509.73 285.713 508.69 285.956 508.265 285.259L503.839 278.01C503.659 277.715 503.325 277.558 502.993 277.612L494.765 278.955C493.981 279.083 493.471 278.115 494.015 277.531L499.332 271.819C499.59 271.543 499.629 271.121 499.428 270.792L495.16 263.799C494.724 263.085 495.447 262.243 496.195 262.593L503.859 266.179C504.181 266.33 504.558 266.258 504.799 266L510.22 260.176Z" fill="#F8B552"/>
<path d="M542.254 204.043C542.79 203.466 543.75 203.918 543.685 204.717L543.421 207.948C543.392 208.307 543.589 208.65 543.913 208.801L546.929 210.213C547.677 210.563 547.547 211.683 546.742 211.816L543.722 212.318C543.352 212.379 543.073 212.689 543.043 213.072L542.806 216.152C542.743 216.963 541.703 217.206 541.278 216.51L539.485 213.572C539.305 213.278 538.971 213.121 538.639 213.175L535.292 213.721C534.508 213.849 533.998 212.881 534.542 212.297L536.619 210.066C536.876 209.789 536.915 209.367 536.715 209.038L535.079 206.359C534.643 205.645 535.366 204.802 536.114 205.152L539.133 206.565C539.456 206.716 539.832 206.644 540.073 206.385L542.254 204.043Z" fill="#F8B552"/>
<path d="M650.472 250.038C651.009 249.462 651.969 249.914 651.904 250.712L651.64 253.944C651.61 254.303 651.808 254.646 652.132 254.797L655.148 256.209C655.896 256.559 655.765 257.679 654.961 257.812L651.941 258.313C651.57 258.375 651.291 258.685 651.262 259.068L651.024 262.148C650.962 262.959 649.922 263.202 649.497 262.505L647.704 259.568C647.524 259.274 647.19 259.117 646.858 259.171L643.511 259.717C642.727 259.845 642.217 258.877 642.761 258.293L644.838 256.061C645.095 255.785 645.134 255.363 644.933 255.034L643.298 252.354C642.862 251.64 643.585 250.798 644.333 251.148L647.352 252.56C647.674 252.711 648.051 252.639 648.292 252.381L650.472 250.038Z" fill="#F8B552"/>
<path d="M688.035 240.066C688.572 239.489 689.532 239.941 689.466 240.74L689.202 243.971C689.173 244.33 689.37 244.673 689.694 244.825L692.71 246.236C693.459 246.586 693.328 247.706 692.523 247.84L689.504 248.341C689.133 248.403 688.854 248.712 688.824 249.095L688.587 252.176C688.524 252.986 687.485 253.23 687.059 252.533L685.266 249.596C685.087 249.301 684.752 249.144 684.42 249.198L681.073 249.745C680.289 249.873 679.779 248.904 680.323 248.32L682.4 246.089C682.657 245.813 682.697 245.391 682.496 245.062L680.86 242.382C680.424 241.668 681.147 240.825 681.895 241.175L684.914 242.588C685.237 242.739 685.614 242.667 685.854 242.408L688.035 240.066Z" fill="#F8B552"/>
<path d="M655.722 198.558C656.259 197.981 657.219 198.433 657.154 199.232L656.89 202.463C656.86 202.822 657.058 203.165 657.382 203.317L660.398 204.728C661.146 205.078 661.015 206.198 660.211 206.332L657.191 206.833C656.82 206.894 656.541 207.204 656.512 207.587L656.274 210.668C656.212 211.478 655.172 211.722 654.747 211.025L652.954 208.088C652.774 207.793 652.44 207.636 652.108 207.69L648.761 208.237C647.977 208.365 647.467 207.396 648.011 206.812L650.088 204.581C650.345 204.305 650.384 203.883 650.183 203.554L648.548 200.874C648.112 200.16 648.835 199.317 649.583 199.667L652.602 201.08C652.924 201.231 653.301 201.159 653.542 200.9L655.722 198.558Z" fill="#F8B552"/>
</svg>
