<svg width="185" height="155" viewBox="0 0 185 155" fill="none" xmlns="http://www.w3.org/2000/svg">
<g clip-path="url(#clip0_1_73)">
<rect width="184" height="155" transform="translate(0.5)" fill="#FAC800"/>
<path d="M75.5081 33.2C74.5748 33.2 73.7548 33.0267 73.0481 32.68C72.3548 32.32 71.8148 31.82 71.4281 31.18C71.0548 30.5267 70.8681 29.76 70.8681 28.88V22.52C70.8681 21.6267 71.0548 20.86 71.4281 20.22C71.8148 19.58 72.3548 19.0867 73.0481 18.74C73.7548 18.38 74.5748 18.2 75.5081 18.2C76.4548 18.2 77.2681 18.38 77.9481 18.74C78.6415 19.0867 79.1815 19.58 79.5681 20.22C79.9548 20.86 80.1481 21.6267 80.1481 22.52H77.6281C77.6281 21.8267 77.4415 21.3 77.0681 20.94C76.7081 20.58 76.1881 20.4 75.5081 20.4C74.8281 20.4 74.3015 20.58 73.9281 20.94C73.5548 21.3 73.3681 21.82 73.3681 22.5V28.88C73.3681 29.56 73.5548 30.0867 73.9281 30.46C74.3015 30.8333 74.8281 31.02 75.5081 31.02C76.1881 31.02 76.7081 30.8333 77.0681 30.46C77.4415 30.0867 77.6281 29.56 77.6281 28.88V27.4H75.1481V25.24H80.1481V28.88C80.1481 29.76 79.9548 30.5267 79.5681 31.18C79.1815 31.82 78.6415 32.32 77.9481 32.68C77.2681 33.0267 76.4548 33.2 75.5081 33.2ZM87.0203 33.2C86.087 33.2 85.2736 33.0267 84.5803 32.68C83.9003 32.32 83.3736 31.82 83.0003 31.18C82.6403 30.5267 82.4603 29.76 82.4603 28.88V22.52C82.4603 21.64 82.6403 20.88 83.0003 20.24C83.3736 19.5867 83.9003 19.0867 84.5803 18.74C85.2736 18.38 86.087 18.2 87.0203 18.2C87.967 18.2 88.7803 18.38 89.4603 18.74C90.1403 19.0867 90.6603 19.5867 91.0203 20.24C91.3936 20.88 91.5803 21.6333 91.5803 22.5V28.88C91.5803 29.76 91.3936 30.5267 91.0203 31.18C90.6603 31.82 90.1403 32.32 89.4603 32.68C88.7803 33.0267 87.967 33.2 87.0203 33.2ZM87.0203 31C87.7003 31 88.2136 30.82 88.5603 30.46C88.907 30.0867 89.0803 29.56 89.0803 28.88V22.52C89.0803 21.8267 88.907 21.3 88.5603 20.94C88.2136 20.58 87.7003 20.4 87.0203 20.4C86.3403 20.4 85.827 20.58 85.4803 20.94C85.1336 21.3 84.9603 21.8267 84.9603 22.52V28.88C84.9603 29.56 85.1336 30.0867 85.4803 30.46C85.8403 30.82 86.3536 31 87.0203 31ZM98.6125 33.2C97.6792 33.2 96.8658 33.0267 96.1725 32.68C95.4925 32.32 94.9658 31.82 94.5925 31.18C94.2325 30.5267 94.0525 29.76 94.0525 28.88V22.52C94.0525 21.64 94.2325 20.88 94.5925 20.24C94.9658 19.5867 95.4925 19.0867 96.1725 18.74C96.8658 18.38 97.6792 18.2 98.6125 18.2C99.5592 18.2 100.373 18.38 101.053 18.74C101.733 19.0867 102.253 19.5867 102.613 20.24C102.986 20.88 103.173 21.6333 103.173 22.5V28.88C103.173 29.76 102.986 30.5267 102.613 31.18C102.253 31.82 101.733 32.32 101.053 32.68C100.373 33.0267 99.5592 33.2 98.6125 33.2ZM98.6125 31C99.2925 31 99.8058 30.82 100.153 30.46C100.499 30.0867 100.673 29.56 100.673 28.88V22.52C100.673 21.8267 100.499 21.3 100.153 20.94C99.8058 20.58 99.2925 20.4 98.6125 20.4C97.9325 20.4 97.4192 20.58 97.0725 20.94C96.7258 21.3 96.5525 21.8267 96.5525 22.52V28.88C96.5525 29.56 96.7258 30.0867 97.0725 30.46C97.4325 30.82 97.9458 31 98.6125 31ZM105.705 33V18.4H110.045C111.031 18.4 111.885 18.5867 112.605 18.96C113.338 19.3333 113.905 19.86 114.305 20.54C114.705 21.22 114.905 22.0267 114.905 22.96V28.42C114.905 29.34 114.705 30.1467 114.305 30.84C113.905 31.52 113.338 32.0533 112.605 32.44C111.885 32.8133 111.031 33 110.045 33H105.705ZM108.205 30.7H110.045C110.765 30.7 111.338 30.5 111.765 30.1C112.191 29.6867 112.405 29.1267 112.405 28.42V22.96C112.405 22.2667 112.191 21.72 111.765 21.32C111.338 20.9067 110.765 20.7 110.045 20.7H108.205V30.7Z" fill="black"/>
<path d="M30.8516 129.225C33.0607 129.225 34.8516 127.434 34.8516 125.225C34.8516 123.015 33.0607 121.225 30.8516 121.225C28.6424 121.225 26.8516 123.015 26.8516 125.225C26.8516 127.434 28.6424 129.225 30.8516 129.225Z" fill="#6E00FF"/>
<path d="M146.753 75.6489C148.962 75.6489 150.753 73.8581 150.753 71.6489C150.753 69.4398 148.962 67.6489 146.753 67.6489C144.544 67.6489 142.753 69.4398 142.753 71.6489C142.753 73.8581 144.544 75.6489 146.753 75.6489Z" fill="#6E00FF"/>
<path d="M68.1641 75.6484C70.3732 75.6484 72.1641 73.8576 72.1641 71.6484C72.1641 69.4393 70.3732 67.6484 68.1641 67.6484C65.9549 67.6484 64.1641 69.4393 64.1641 71.6484C64.1641 73.8576 65.9549 75.6484 68.1641 75.6484Z" fill="white"/>
<path d="M114.362 59.8633C116.571 59.8633 118.362 58.0724 118.362 55.8633C118.362 53.6541 116.571 51.8633 114.362 51.8633C112.153 51.8633 110.362 53.6541 110.362 55.8633C110.362 58.0724 112.153 59.8633 114.362 59.8633Z" fill="white"/>
<path d="M20.7954 89.77C23.0045 89.77 24.7954 87.9792 24.7954 85.77C24.7954 83.5609 23.0045 81.77 20.7954 81.77C18.5863 81.77 16.7954 83.5609 16.7954 85.77C16.7954 87.9792 18.5863 89.77 20.7954 89.77Z" fill="#2D2D2D"/>
<path d="M128.789 99.0586C130.998 99.0586 132.789 97.2677 132.789 95.0586C132.789 92.8495 130.998 91.0586 128.789 91.0586C126.58 91.0586 124.789 92.8495 124.789 95.0586C124.789 97.2677 126.58 99.0586 128.789 99.0586Z" fill="white"/>
<path d="M160.602 115.061C165.02 115.061 168.602 111.479 168.602 107.061C168.602 102.642 165.02 99.0605 160.602 99.0605C156.183 99.0605 152.602 102.642 152.602 107.061C152.602 111.479 156.183 115.061 160.602 115.061Z" fill="#2D2D2D"/>
<path d="M109.67 79.6489C114.089 79.6489 117.67 76.0672 117.67 71.6489C117.67 67.2306 114.089 63.6489 109.67 63.6489C105.252 63.6489 101.67 67.2306 101.67 71.6489C101.67 76.0672 105.252 79.6489 109.67 79.6489Z" fill="#2D2D2D"/>
<path d="M54.6755 112.093C59.0937 112.093 62.6755 108.512 62.6755 104.093C62.6755 99.675 59.0937 96.0933 54.6755 96.0933C50.2572 96.0933 46.6755 99.675 46.6755 104.093C46.6755 108.512 50.2572 112.093 54.6755 112.093Z" fill="#2D2D2D"/>
<path d="M44.1641 67.4473C50.7915 67.4473 56.1641 62.0747 56.1641 55.4473C56.1641 48.8198 50.7915 43.4473 44.1641 43.4473C37.5366 43.4473 32.1641 48.8198 32.1641 55.4473C32.1641 62.0747 37.5366 67.4473 44.1641 67.4473Z" fill="#6E00FF"/>
<path d="M119.251 124.429C112.377 127.635 107.058 133.44 104.464 140.567C101.87 147.694 102.213 155.56 105.419 162.434C108.624 169.308 114.429 174.627 121.556 177.222C128.684 179.816 136.549 179.472 143.424 176.267L119.251 124.429Z" fill="#242121"/>
<path d="M119.251 124.429C118.59 123.011 117.656 121.737 116.502 120.68C115.348 119.623 113.998 118.803 112.527 118.268C111.057 117.733 109.495 117.493 107.932 117.561C106.369 117.629 104.834 118.005 103.416 118.666L108.452 129.465L119.251 124.429Z" fill="#242121"/>
<path d="M127.588 170.503C128.25 171.921 129.184 173.196 130.337 174.253C131.491 175.31 132.842 176.129 134.312 176.665C135.783 177.2 137.344 177.44 138.907 177.372C140.471 177.304 142.005 176.928 143.424 176.267L138.388 165.467L127.588 170.503Z" fill="#242121"/>
<path d="M108.452 129.465L119.251 124.429L138.388 165.467L127.588 170.503L108.452 129.465Z" fill="#242121"/>
<path d="M120.71 122.303C115.007 127.304 111.525 134.366 111.029 141.934C110.533 149.503 113.064 156.958 118.065 162.661C123.066 168.363 130.127 171.845 137.695 172.341C145.264 172.837 152.719 170.307 158.422 165.306L120.71 122.303Z" fill="#242121"/>
<path d="M120.71 122.303C119.678 121.127 118.425 120.165 117.021 119.473C115.618 118.781 114.092 118.372 112.53 118.27C110.969 118.167 109.402 118.374 107.921 118.876C106.439 119.379 105.071 120.169 103.894 121.201L111.751 130.16L120.71 122.303Z" fill="#242121"/>
<path d="M141.606 164.204C142.638 165.38 143.891 166.342 145.295 167.034C146.698 167.726 148.224 168.135 149.786 168.237C151.347 168.34 152.914 168.133 154.395 167.63C155.877 167.127 157.245 166.338 158.422 165.306L150.565 156.347L141.606 164.204Z" fill="#242121"/>
<path d="M111.751 130.16L120.71 122.303L150.565 156.347L141.606 164.204L111.751 130.16Z" fill="#242121"/>
<path d="M121.518 119.843C117.442 126.24 116.075 133.994 117.717 141.399C119.358 148.804 123.874 155.253 130.271 159.328C136.668 163.404 144.422 164.771 151.827 163.129C159.232 161.487 165.681 156.971 169.756 150.575L121.518 119.843Z" fill="#242121"/>
<path d="M121.518 119.843C120.198 119.002 118.725 118.43 117.184 118.158C115.643 117.886 114.064 117.921 112.536 118.259C111.008 118.598 109.562 119.234 108.281 120.132C106.999 121.029 105.906 122.171 105.065 123.49L115.115 129.893L121.518 119.843Z" fill="#242121"/>
<path d="M153.304 154.222C154.624 155.063 156.097 155.635 157.638 155.907C159.179 156.179 160.758 156.144 162.286 155.806C163.814 155.467 165.26 154.831 166.541 153.933C167.823 153.036 168.916 151.894 169.756 150.575L159.707 144.172L153.304 154.222Z" fill="#242121"/>
<path d="M115.115 129.893L121.518 119.843L159.707 144.172L153.304 154.222L115.115 129.893Z" fill="#242121"/>
<path d="M121.603 117.264C119.48 124.546 120.338 132.372 123.986 139.022C127.634 145.671 133.774 150.6 141.056 152.722C148.338 154.844 156.164 153.987 162.814 150.339C169.464 146.691 174.392 140.551 176.514 133.269L121.603 117.264Z" fill="#242121"/>
<path d="M121.603 117.264C120.101 116.826 118.527 116.688 116.971 116.859C115.416 117.029 113.909 117.504 112.537 118.257C111.165 119.009 109.955 120.025 108.975 121.245C107.996 122.466 107.267 123.867 106.829 125.369L118.268 128.704L121.603 117.264Z" fill="#242121"/>
<path d="M161.74 141.374C163.242 141.812 164.816 141.95 166.372 141.78C167.927 141.609 169.434 141.134 170.806 140.382C172.178 139.629 173.388 138.613 174.367 137.393C175.347 136.173 176.076 134.771 176.514 133.269L165.074 129.935L161.74 141.374Z" fill="#242121"/>
<path d="M118.268 128.704L121.603 117.264L165.074 129.935L161.74 141.374L118.268 128.704Z" fill="#242121"/>
<path d="M137.848 158.581C137.131 158.707 136.402 158.773 135.676 158.77L132.352 161.597C133.411 162.841 134.697 163.863 136.147 164.609C137.598 165.355 139.183 165.802 140.808 165.934C142.432 166.066 144.067 165.875 145.621 165.379C147.134 164.889 148.542 164.113 149.761 163.094C145.547 162.469 141.479 160.948 137.848 158.581Z" fill="#2D2D2D"/>
<path d="M119.944 146.962C119.463 147.528 118.905 148.028 118.287 148.443L117.52 151.177C118.544 151.464 119.61 151.549 120.663 151.422C121.716 151.295 122.737 150.966 123.662 150.445C123.859 150.335 124.05 150.216 124.236 150.089C122.77 149.069 121.339 148.026 119.944 146.962Z" fill="#2D2D2D"/>
<path d="M126.126 151.08C125.406 151.674 124.626 152.194 123.8 152.629L122.048 156.921C123.651 157.575 125.369 157.906 127.102 157.897C128.835 157.889 130.547 157.536 132.149 156.86C132.809 156.584 133.44 156.247 134.044 155.862C131.334 154.325 128.694 152.729 126.126 151.08Z" fill="#2D2D2D"/>
<path d="M145.266 147.189C144.458 147.43 143.629 147.604 142.794 147.698L139.352 151.395C140.737 152.683 142.352 153.685 144.121 154.348C145.889 155.01 147.771 155.311 149.657 155.245C151.542 155.179 153.396 154.739 155.116 153.96C156.791 153.193 158.304 152.112 159.569 150.776C154.64 150.624 149.758 149.422 145.266 147.189Z" fill="#2D2D2D"/>
<path d="M122.516 137.777C121.978 138.584 121.33 139.317 120.592 139.949L120.013 143.61C121.383 143.827 122.779 143.775 124.125 143.452C125.471 143.128 126.745 142.545 127.865 141.73C128.104 141.557 128.334 141.374 128.556 141.181C126.5 140.081 124.487 138.945 122.516 137.777Z" fill="#2D2D2D"/>
<path d="M131.185 142.796C130.708 143.294 130.179 143.743 129.61 144.134L128.692 147.437C129.925 147.779 131.216 147.875 132.488 147.72C133.761 147.565 134.988 147.159 136.107 146.525C136.568 146.265 137.003 145.963 137.413 145.629C135.291 144.732 133.213 143.787 131.185 142.796Z" fill="#2D2D2D"/>
<path d="M155.975 133.813C155.169 133.631 154.366 133.426 153.567 133.199C152.606 133.691 151.602 134.106 150.571 134.419L147.098 139.884C149.144 141.182 151.415 142.067 153.798 142.489C156.182 142.91 158.624 142.849 160.985 142.325C163.346 141.8 165.58 140.812 167.565 139.427C168.607 138.695 169.568 137.858 170.434 136.931C166.075 136.238 161.327 135.235 156.405 133.928C156.261 133.889 156.118 133.851 155.975 133.813Z" fill="#2D2D2D"/>
<path d="M124.426 124.441C123.992 125.455 123.42 126.408 122.726 127.268L122.838 131.479C124.415 131.437 125.963 131.09 127.4 130.448C128.837 129.807 130.14 128.892 131.222 127.749C131.454 127.506 131.673 127.254 131.88 126.992C129.355 126.189 126.87 125.338 124.426 124.441Z" fill="#2D2D2D"/>
<path d="M136.408 128.896C135.836 129.768 135.175 130.581 134.436 131.319L133.983 136.48C135.91 136.649 137.854 136.435 139.702 135.854C141.55 135.273 143.261 134.33 144.749 133.079C145.363 132.567 145.925 131.998 146.443 131.388C143.042 130.642 139.695 129.809 136.408 128.896Z" fill="#2D2D2D"/>
<path d="M66.6262 124.429C73.5003 127.635 78.8195 133.44 81.4136 140.567C84.0077 147.694 83.6643 155.56 80.4589 162.434C77.2534 169.308 71.4486 174.627 64.3213 177.222C57.194 179.816 49.3281 179.472 42.4541 176.267L66.6262 124.429Z" fill="#242121"/>
<path d="M66.6262 124.429C67.2876 123.011 68.2217 121.737 69.3754 120.68C70.5291 119.623 71.8798 118.803 73.3502 118.268C74.8207 117.733 76.3821 117.493 77.9455 117.561C79.5088 117.629 81.0434 118.005 82.4616 118.666L77.4257 129.465L66.6262 124.429Z" fill="#242121"/>
<path d="M58.2894 170.503C57.6281 171.921 56.6939 173.196 55.5402 174.253C54.3865 175.31 53.0358 176.129 51.5654 176.665C50.095 177.2 48.5335 177.44 46.9702 177.372C45.4068 177.304 43.8723 176.928 42.4541 176.267L47.4899 165.467L58.2894 170.503Z" fill="#242121"/>
<path d="M77.4257 129.465L66.6262 124.429L47.4899 165.467L58.2894 170.503L77.4257 129.465Z" fill="#242121"/>
<path d="M65.1679 122.303C70.8704 127.304 74.3527 134.366 74.8487 141.934C75.3448 149.503 72.814 156.958 67.813 162.661C62.8121 168.363 55.7507 171.845 48.1822 172.341C40.6138 172.837 33.1582 170.307 27.4558 165.306L65.1679 122.303Z" fill="#242121"/>
<path d="M65.1679 122.303C66.1996 121.127 67.453 120.165 68.8565 119.473C70.2599 118.781 71.7859 118.372 73.3474 118.27C74.9088 118.167 76.4752 118.374 77.957 118.876C79.4387 119.379 80.8069 120.169 81.9834 121.201L74.1267 130.16L65.1679 122.303Z" fill="#242121"/>
<path d="M44.2713 164.204C43.2395 165.38 41.9861 166.342 40.5827 167.034C39.1793 167.726 37.6532 168.135 36.0918 168.237C34.5303 168.34 32.964 168.133 31.4822 167.63C30.0004 167.127 28.6322 166.338 27.4558 165.306L35.3124 156.347L44.2713 164.204Z" fill="#242121"/>
<path d="M74.1267 130.16L65.1679 122.303L35.3124 156.347L44.2713 164.204L74.1267 130.16Z" fill="#242121"/>
<path d="M64.3599 119.843C68.4352 126.24 69.8024 133.994 68.1608 141.399C66.5191 148.804 62.0032 155.253 55.6063 159.328C49.2094 163.404 41.4557 164.771 34.0508 163.129C26.6458 161.487 20.1964 156.971 16.1211 150.575L64.3599 119.843Z" fill="#242121"/>
<path d="M64.3599 119.843C65.6797 119.002 67.1521 118.43 68.6932 118.158C70.2342 117.886 71.8137 117.921 73.3414 118.259C74.8691 118.598 76.3152 119.234 77.597 120.132C78.8788 121.029 79.9713 122.171 80.8121 123.49L70.7623 129.893L64.3599 119.843Z" fill="#242121"/>
<path d="M32.5733 154.222C31.2535 155.063 29.7811 155.635 28.24 155.907C26.699 156.179 25.1195 156.144 23.5918 155.806C22.0641 155.467 20.618 154.831 19.3362 153.933C18.0544 153.036 16.9619 151.894 16.1211 150.575L26.1709 144.172L32.5733 154.222Z" fill="#242121"/>
<path d="M70.7623 129.893L64.3599 119.843L26.1709 144.172L32.5733 154.222L70.7623 129.893Z" fill="#242121"/>
<path d="M64.2747 117.264C66.3971 124.546 65.54 132.372 61.8918 139.022C58.2437 145.671 52.1033 150.6 44.8216 152.722C37.54 154.844 29.7134 153.987 23.0637 150.339C16.414 146.691 11.4858 140.551 9.36343 133.269L64.2747 117.264Z" fill="#242121"/>
<path d="M64.2747 117.264C65.777 116.826 67.3508 116.688 68.9063 116.859C70.4619 117.029 71.9686 117.504 73.3405 118.257C74.7124 119.009 75.9227 120.025 76.9021 121.245C77.8816 122.466 78.6111 123.867 79.0489 125.369L67.6091 128.704L64.2747 117.264Z" fill="#242121"/>
<path d="M24.1377 141.374C22.6354 141.812 21.0615 141.95 19.506 141.78C17.9505 141.609 16.4438 141.134 15.0719 140.382C13.6999 139.629 12.4897 138.613 11.5103 137.393C10.5308 136.173 9.80131 134.771 9.36343 133.269L20.8033 129.935L24.1377 141.374Z" fill="#242121"/>
<path d="M67.6091 128.704L64.2747 117.264L20.8033 129.935L24.1377 141.374L67.6091 128.704Z" fill="#242121"/>
<path d="M48.0294 158.581C48.7463 158.707 49.4752 158.773 50.2012 158.77L53.5254 161.597C52.4665 162.841 51.1809 163.863 49.7301 164.609C48.2792 165.355 46.6944 165.802 45.0699 165.934C43.4454 166.066 41.8104 165.875 40.2564 165.379C38.7431 164.889 37.3357 164.113 36.1164 163.094C40.3307 162.469 44.3987 160.948 48.0294 158.581Z" fill="#2D2D2D"/>
<path d="M65.9335 146.962C66.4148 147.528 66.9729 148.028 67.5907 148.443L68.3571 151.177C67.3336 151.464 66.2675 151.549 65.2145 151.422C64.1616 151.295 63.1404 150.966 62.216 150.445C62.0187 150.335 61.8272 150.216 61.6415 150.089C63.1075 149.069 64.5386 148.026 65.9335 146.962Z" fill="#2D2D2D"/>
<path d="M59.7517 151.08C60.4712 151.674 61.2516 152.194 62.0779 152.629L63.8291 156.921C62.2264 157.575 60.5083 157.906 58.7752 157.897C57.0424 157.889 55.3308 157.536 53.7288 156.86C53.0682 156.584 52.4373 156.247 51.8333 155.862C54.5431 154.325 57.184 152.729 59.7517 151.08Z" fill="#2D2D2D"/>
<path d="M40.6117 147.189C41.419 147.43 42.2481 147.604 43.0832 147.698L46.5252 151.395C45.1406 152.683 43.5251 153.685 41.7568 154.348C39.9884 155.01 38.1062 155.311 36.2207 155.245C34.3352 155.179 32.4811 154.739 30.761 153.96C29.0869 153.193 27.5731 152.112 26.3082 150.776C31.2375 150.624 36.1192 149.422 40.6117 147.189Z" fill="#2D2D2D"/>
<path d="M63.3611 137.777C63.8994 138.584 64.5473 139.317 65.2855 139.949L65.8649 143.61C64.4941 143.827 63.0988 143.775 61.7526 143.452C60.4064 143.128 59.1322 142.545 58.0124 141.73C57.7732 141.557 57.543 141.374 57.3214 141.181C59.377 140.081 61.3909 138.945 63.3611 137.777Z" fill="#2D2D2D"/>
<path d="M54.692 142.796C55.1696 143.294 55.6982 143.743 56.2679 144.134L57.1858 147.437C55.9523 147.779 54.6617 147.875 53.3891 147.72C52.1168 147.565 50.8897 147.159 49.7709 146.525C49.3093 146.265 48.8747 145.963 48.464 145.629C50.5868 144.732 52.664 143.787 54.692 142.796Z" fill="#2D2D2D"/>
<path d="M29.9024 133.813C30.7088 133.631 31.5118 133.426 32.3108 133.199C33.2717 133.691 34.2758 134.106 35.3063 134.419L38.7792 139.884C36.733 141.182 34.4627 142.068 32.0791 142.489C29.6955 142.91 27.2531 142.849 24.8923 142.325C22.5315 141.8 20.2979 140.812 18.3124 139.427C17.2707 138.695 16.3092 137.858 15.4433 136.931C19.8025 136.238 24.55 135.235 29.4725 133.928C29.6161 133.89 29.7594 133.851 29.9024 133.813Z" fill="#2D2D2D"/>
<path d="M61.4518 124.441C61.8857 125.455 62.4579 126.408 63.1515 127.268L63.0395 131.479C61.4629 131.437 59.9145 131.09 58.4774 130.448C57.0404 129.807 55.7373 128.892 54.6553 127.749C54.4238 127.506 54.2046 127.254 53.997 126.992C56.5221 126.189 59.0078 125.338 61.4518 124.441Z" fill="#2D2D2D"/>
<path d="M49.4692 128.896C50.0414 129.768 50.703 130.581 51.4417 131.319L51.8945 136.48C49.9672 136.649 48.0232 136.435 46.1752 135.854C44.3274 135.273 42.6164 134.33 41.1289 133.079C40.5146 132.567 39.9523 131.998 39.4341 131.388C42.8355 130.642 46.1826 129.809 49.4692 128.896Z" fill="#2D2D2D"/>
<path d="M70.6945 152.5C70.6945 164.784 80.653 174.743 92.9374 174.743C105.222 174.743 115.18 164.784 115.18 152.5V108.014H70.6945V152.5Z" fill="#2D2D2D"/>
<path d="M70.6946 108.013C70.6946 95.7281 80.6531 85.7695 92.9376 85.7695C105.222 85.7695 115.181 95.7281 115.181 108.013V122.844C115.181 126.937 111.862 130.256 107.769 130.256H78.1063C74.0129 130.256 70.6946 126.937 70.6946 122.844V108.013Z" fill="#2D2D2D"/>
<path d="M82.928 107.061C86.6134 107.061 89.6009 104.073 89.6009 100.388C89.6009 96.7024 86.6134 93.7148 82.928 93.7148C79.2427 93.7148 76.2551 96.7024 76.2551 100.388C76.2551 104.073 79.2427 107.061 82.928 107.061Z" fill="white"/>
<path d="M82.9281 104.093C84.9748 104.093 86.6339 102.434 86.6339 100.387C86.6339 98.3406 84.9748 96.6814 82.9281 96.6814C80.8814 96.6814 79.2223 98.3406 79.2223 100.387C79.2223 102.434 80.8814 104.093 82.9281 104.093Z" fill="#2D2D2D"/>
<path d="M80.5075 101.262C82.2624 101.262 83.6851 99.8389 83.6851 98.084C83.6851 96.3291 82.2624 94.9064 80.5075 94.9064C78.7526 94.9064 77.33 96.3291 77.33 98.084C77.33 99.8389 78.7526 101.262 80.5075 101.262Z" fill="white"/>
<path d="M102.947 107.061C106.632 107.061 109.62 104.073 109.62 100.388C109.62 96.7024 106.632 93.7148 102.947 93.7148C99.2613 93.7148 96.2738 96.7024 96.2738 100.388C96.2738 104.073 99.2613 107.061 102.947 107.061Z" fill="white"/>
<path d="M102.947 104.093C104.994 104.093 106.653 102.434 106.653 100.387C106.653 98.3406 104.994 96.6814 102.947 96.6814C100.9 96.6814 99.241 98.3406 99.241 100.387C99.241 102.434 100.9 104.093 102.947 104.093Z" fill="#2D2D2D"/>
<path d="M100.526 101.262C102.281 101.262 103.704 99.8389 103.704 98.084C103.704 96.3291 102.281 94.9064 100.526 94.9064C98.7713 94.9064 97.3487 96.3291 97.3487 98.084C97.3487 99.8389 98.7713 101.262 100.526 101.262Z" fill="white"/>
<path d="M81.3394 115.799C85.0247 115.799 88.0123 112.811 88.0123 109.126C88.0123 105.441 85.0247 102.453 81.3394 102.453C77.6541 102.453 74.6665 105.441 74.6665 109.126C74.6665 112.811 77.6541 115.799 81.3394 115.799Z" fill="#2D2D2D"/>
<path d="M104.536 115.799C108.221 115.799 111.209 112.811 111.209 109.126C111.209 105.441 108.221 102.453 104.536 102.453C100.85 102.453 97.8627 105.441 97.8627 109.126C97.8627 112.811 100.85 115.799 104.536 115.799Z" fill="#2D2D2D"/>
<path d="M84.2039 110.72C83.7288 111.877 83.4843 113.117 83.4843 114.368L92.9376 130.256L92.9376 104.836C91.6961 104.836 90.4669 105.082 89.3199 105.561C88.173 106.04 87.1309 106.743 86.2531 107.628C85.3753 108.513 84.6789 109.564 84.2039 110.72Z" fill="#CACACA"/>
<path d="M101.671 110.72C102.146 111.877 102.391 113.117 102.391 114.368L92.9375 130.256V104.836C94.1789 104.836 95.4082 105.082 96.5551 105.561C97.702 106.04 98.7441 106.743 99.6219 107.628C100.5 108.513 101.196 109.564 101.671 110.72Z" fill="#6E00FF"/>
<path fill-rule="evenodd" clip-rule="evenodd" d="M82.1724 107.926C86.1514 107.926 89.4655 105.063 90.1608 101.284C90.3845 100.069 91.4347 98.996 92.8604 98.996C94.2862 98.996 95.3364 100.069 95.56 101.284C96.2554 105.063 99.5694 107.926 103.548 107.926C108.035 107.926 111.671 104.289 111.671 99.8027C111.671 95.3166 108.035 91.6798 103.548 91.6798L91.9728 91.6799C89.8526 91.68 88.657 91.6799 87.1353 91.6799C85.91 91.6799 84.4733 91.6798 82.1724 91.6798C77.6862 91.6798 74.0494 95.3166 74.0494 99.8027C74.0494 104.289 77.6862 107.926 82.1724 107.926ZM91.8427 101.594C91.9345 101.095 92.353 100.706 92.8604 100.706C93.3679 100.706 93.7863 101.095 93.8782 101.594C94.7202 106.169 98.7295 109.636 103.548 109.636C108.979 109.636 113.381 105.233 113.381 99.8027C113.381 94.3721 108.979 89.9697 103.548 89.9697L91.9728 89.9698C89.8527 89.9699 88.6572 89.9699 87.1356 89.9698C85.9103 89.9698 84.4736 89.9697 82.1724 89.9697C76.7417 89.9697 72.3394 94.3721 72.3394 99.8027C72.3394 105.233 76.7417 109.636 82.1724 109.636C86.9914 109.636 91.0007 106.169 91.8427 101.594Z" fill="#FF6C2D"/>
</g>
<defs>
<clipPath id="clip0_1_73">
<rect width="184" height="155" fill="white" transform="translate(0.5)"/>
</clipPath>
</defs>
</svg>
