<svg width="184" height="155" viewBox="0 0 184 155" fill="none" xmlns="http://www.w3.org/2000/svg">
<g clip-path="url(#clip0_1_181)">
<rect width="184" height="155" fill="#33D333"/>
<path d="M66.8017 124.466C73.6758 127.671 78.995 133.476 81.5891 140.604C84.1832 147.731 83.8398 155.597 80.6344 162.471C77.4289 169.345 71.6241 174.664 64.4968 177.258C57.3695 179.852 49.5036 179.509 42.6296 176.303L66.8017 124.466Z" fill="#242121"/>
<path d="M66.8017 124.466C67.4631 123.048 68.3972 121.774 69.5509 120.717C70.7047 119.659 72.0553 118.84 73.5257 118.305C74.9962 117.769 76.5576 117.529 78.121 117.597C79.6843 117.666 81.2189 118.041 82.6371 118.702L77.6012 129.502L66.8017 124.466Z" fill="#242121"/>
<path d="M58.4649 170.54C57.8036 171.958 56.8694 173.232 55.7157 174.289C54.562 175.346 53.2114 176.166 51.7409 176.701C50.2705 177.236 48.709 177.477 47.1457 177.408C45.5823 177.34 44.0478 176.965 42.6296 176.303L47.6654 165.504L58.4649 170.54Z" fill="#242121"/>
<path d="M77.6012 129.502L66.8017 124.466L47.6654 165.504L58.4649 170.54L77.6012 129.502Z" fill="#242121"/>
<path d="M65.3434 122.34C71.0459 127.341 74.5282 134.402 75.0242 141.971C75.5203 149.539 72.9895 156.995 67.9885 162.697C62.9876 168.4 55.9262 171.882 48.3577 172.378C40.7893 172.874 33.3337 170.343 27.6313 165.342L65.3434 122.34Z" fill="#242121"/>
<path d="M65.3434 122.34C66.3751 121.163 67.6285 120.202 69.032 119.51C70.4354 118.817 71.9614 118.409 73.5229 118.306C75.0844 118.204 76.6507 118.41 78.1325 118.913C79.6142 119.416 80.9824 120.206 82.1589 121.238L74.3022 130.197L65.3434 122.34Z" fill="#242121"/>
<path d="M44.4468 164.24C43.415 165.417 42.1617 166.378 40.7582 167.07C39.3548 167.763 37.8288 168.171 36.2673 168.274C34.7058 168.376 33.1395 168.17 31.6577 167.667C30.1759 167.164 28.8078 166.374 27.6313 165.342L35.488 156.383L44.4468 164.24Z" fill="#242121"/>
<path d="M74.3022 130.197L65.3434 122.34L35.488 156.383L44.4468 164.24L74.3022 130.197Z" fill="#242121"/>
<path d="M64.5354 119.88C68.6107 126.276 69.9779 134.03 68.3363 141.435C66.6946 148.84 62.1787 155.29 55.7818 159.365C49.3849 163.44 41.6312 164.807 34.2263 163.166C26.8214 161.524 20.3719 157.008 16.2966 150.611L64.5354 119.88Z" fill="#242121"/>
<path d="M64.5354 119.88C65.8552 119.039 67.3276 118.466 68.8687 118.195C70.4097 117.923 71.9892 117.957 73.5169 118.296C75.0446 118.635 76.4907 119.271 77.7725 120.168C79.0543 121.066 80.1468 122.207 80.9876 123.527L70.9378 129.929L64.5354 119.88Z" fill="#242121"/>
<path d="M32.7488 154.258C31.429 155.099 29.9566 155.672 28.4155 155.944C26.8745 156.215 25.295 156.181 23.7673 155.842C22.2396 155.503 20.7935 154.867 19.5117 153.97C18.2299 153.072 17.1374 151.931 16.2966 150.611L26.3464 144.209L32.7488 154.258Z" fill="#242121"/>
<path d="M70.9378 129.929L64.5354 119.88L26.3464 144.209L32.7488 154.258L70.9378 129.929Z" fill="#242121"/>
<path d="M64.4502 117.3C66.5726 124.582 65.7155 132.409 62.0673 139.058C58.4192 145.708 52.2789 150.636 44.9972 152.759C37.7155 154.881 29.8889 154.024 23.2392 150.376C16.5895 146.728 11.6614 140.587 9.53897 133.306L64.4502 117.3Z" fill="#242121"/>
<path d="M64.4502 117.3C65.9525 116.862 67.5264 116.725 69.0819 116.895C70.6374 117.065 72.1441 117.541 73.516 118.293C74.888 119.046 76.0982 120.061 77.0777 121.282C78.0571 122.502 78.7866 123.903 79.2245 125.406L67.7846 128.74L64.4502 117.3Z" fill="#242121"/>
<path d="M24.3132 141.411C22.8109 141.849 21.2371 141.987 19.6816 141.816C18.126 141.646 16.6193 141.171 15.2474 140.418C13.8755 139.665 12.6653 138.65 11.6858 137.43C10.7063 136.209 9.97685 134.808 9.53897 133.306L20.9788 129.971L24.3132 141.411Z" fill="#242121"/>
<path d="M67.7846 128.74L64.4502 117.3L20.9788 129.971L24.3132 141.411L67.7846 128.74Z" fill="#242121"/>
<path d="M65.269 114.815C65.269 122.399 62.2559 129.673 56.8928 135.037C51.5296 140.4 44.2555 143.413 36.6708 143.413C29.0861 143.413 21.8121 140.4 16.4489 135.037C11.0857 129.673 8.0727 122.399 8.0727 114.815L65.269 114.815Z" fill="#242121"/>
<path d="M65.269 114.815C66.8338 114.815 68.3833 115.123 69.829 115.722C71.2747 116.321 72.5883 117.198 73.6948 118.305C74.8013 119.411 75.679 120.725 76.2778 122.171C76.8766 123.616 77.1848 125.166 77.1848 126.731L65.269 126.731L65.269 114.815Z" fill="#242121"/>
<path d="M19.9886 126.731C18.4238 126.731 16.8743 126.422 15.4286 125.823C13.9829 125.225 12.6693 124.347 11.5628 123.24C10.4563 122.134 9.57857 120.82 8.97974 119.375C8.38091 117.929 8.07269 116.379 8.0727 114.815L19.9886 114.815L19.9886 126.731Z" fill="#242121"/>
<path d="M65.269 126.731L65.269 114.815L19.9886 114.815L19.9886 126.731L65.269 126.731Z" fill="#242121"/>
<path d="M66.723 112.703C64.76 120.03 59.967 126.276 53.3984 130.068C46.8299 133.861 39.0239 134.888 31.6976 132.925C24.3714 130.962 18.125 126.169 14.3327 119.601C10.5403 113.032 9.51264 105.226 11.4757 97.8999L66.723 112.703Z" fill="#242121"/>
<path d="M66.723 112.703C68.2345 113.108 69.6515 113.807 70.8929 114.76C72.1344 115.712 73.176 116.9 73.9584 118.255C74.7409 119.611 75.2487 121.107 75.4529 122.658C75.6572 124.209 75.5539 125.786 75.1489 127.297L63.639 124.213L66.723 112.703Z" fill="#242121"/>
<path d="M19.9015 112.494C18.39 112.089 16.9731 111.39 15.7316 110.438C14.4902 109.485 13.4485 108.297 12.6661 106.942C11.8837 105.587 11.3759 104.091 11.1716 102.539C10.9674 100.988 11.0707 99.4114 11.4757 97.8999L22.9856 100.984L19.9015 112.494Z" fill="#242121"/>
<path d="M63.639 124.213L66.723 112.703L22.9856 100.984L19.9015 112.494L63.639 124.213Z" fill="#242121"/>
<path d="M68.4146 111.02C64.6222 117.588 58.3759 122.381 51.0496 124.344C43.7234 126.307 35.9173 125.28 29.3488 121.487C22.7803 117.695 17.9873 111.448 16.0242 104.122C14.0611 96.796 15.0888 88.99 18.8812 82.4214L68.4146 111.02Z" fill="#242121"/>
<path d="M68.4146 111.02C69.7697 111.802 70.9575 112.844 71.9101 114.085C72.8627 115.327 73.5615 116.743 73.9665 118.255C74.3715 119.766 74.4748 121.343 74.2706 122.894C74.0663 124.446 73.5585 125.942 72.7761 127.297L62.4566 121.339L68.4146 111.02Z" fill="#242121"/>
<path d="M23.2427 98.6988C21.8875 97.9164 20.6997 96.8748 19.7471 95.6333C18.7945 94.3919 18.0958 92.9749 17.6908 91.4634C17.2858 89.9519 17.1824 88.3755 17.3867 86.824C17.5909 85.2726 18.0988 83.7766 18.8812 82.4214L29.2006 88.3794L23.2427 98.6988Z" fill="#242121"/>
<path d="M62.4566 121.339L68.4146 111.02L29.2006 88.3794L23.2427 98.6988L62.4566 121.339Z" fill="#242121"/>
<path d="M48.2047 158.619C48.9216 158.745 49.6505 158.812 50.3765 158.809L53.7007 161.636C52.6418 162.88 51.3562 163.901 49.9054 164.647C48.4545 165.393 46.8697 165.84 45.2452 165.973C43.6207 166.105 41.9858 165.913 40.4317 165.417C38.9184 164.928 37.511 164.152 36.2917 163.133C40.506 162.508 44.574 160.987 48.2047 158.619Z" fill="#2D2D2D"/>
<path d="M67.698 147.831C68.1793 148.397 68.7374 148.897 69.3552 149.312L70.1216 152.046C69.0981 152.333 68.032 152.418 66.979 152.291C65.926 152.164 64.9048 151.835 63.9805 151.314C63.7831 151.204 63.5917 151.085 63.4059 150.958C64.872 149.938 66.303 148.895 67.698 147.831Z" fill="#2D2D2D"/>
<path d="M59.9271 151.118C60.6465 151.711 61.4269 152.231 62.2532 152.666L64.0045 156.958C62.4017 157.612 60.6836 157.943 58.9505 157.935C57.2177 157.927 55.5061 157.573 53.9041 156.897C53.2435 156.621 52.6126 156.284 52.0086 155.9C54.7184 154.363 57.3593 152.767 59.9271 151.118Z" fill="#2D2D2D"/>
<path d="M40.7869 147.222C41.5942 147.463 42.4233 147.638 43.2584 147.732L46.7004 151.429C45.3158 152.717 43.7004 153.719 41.932 154.381C40.1636 155.044 38.2815 155.345 36.3959 155.279C34.5104 155.213 32.6563 154.772 30.9363 153.993C29.2621 153.227 27.7483 152.145 26.4834 150.81C31.4127 150.658 36.2944 149.456 40.7869 147.222Z" fill="#2D2D2D"/>
<path d="M63.9929 136.479C64.5311 137.287 65.1791 138.019 65.9173 138.652L66.4967 142.313C65.1259 142.53 63.7306 142.478 62.3844 142.154C61.0382 141.83 59.7639 141.248 58.6442 140.432C58.405 140.26 58.1748 140.076 57.9532 139.883C60.0088 138.783 62.0226 137.648 63.9929 136.479Z" fill="#2D2D2D"/>
<path d="M54.8672 142.831C55.3448 143.329 55.8734 143.778 56.4431 144.169L57.361 147.472C56.1275 147.815 54.8369 147.91 53.5643 147.755C52.292 147.601 51.0649 147.194 49.9461 146.56C49.4845 146.3 49.0499 145.998 48.6392 145.664C50.762 144.768 52.8392 143.822 54.8672 142.831Z" fill="#2D2D2D"/>
<path d="M31.8755 135.835C32.5083 136.244 33.1764 136.601 33.8698 136.89L35.9013 140.923C34.3911 141.683 32.7541 142.14 31.0705 142.267C29.3869 142.394 27.696 142.182 26.0939 141.654C24.4918 141.127 23.0101 140.286 21.7281 139.187C20.4823 138.111 19.4528 136.805 18.7005 135.343C22.9702 136.443 27.4609 136.631 31.8755 135.835Z" fill="#2D2D2D"/>
<path d="M61.3041 128.957C61.5082 129.588 61.7959 130.19 62.1595 130.746L61.8309 133.336C60.8612 133.213 59.9277 132.904 59.081 132.42C58.2343 131.936 57.4871 131.291 56.8903 130.519C56.8594 130.48 56.829 130.44 56.799 130.4C58.3228 129.945 59.825 129.464 61.3041 128.957Z" fill="#2D2D2D"/>
<path d="M54.8317 133.044C55.0626 133.777 55.3936 134.478 55.8154 135.123L55.4456 138.038C54.3543 137.9 53.3037 137.551 52.3508 137.007C51.3979 136.462 50.557 135.737 49.8853 134.868C49.7414 134.684 49.6068 134.493 49.4809 134.297C51.289 133.915 53.0733 133.497 54.8317 133.044Z" fill="#2D2D2D"/>
<path d="M45.9765 133.359C46.3973 134.165 46.9009 134.927 47.4779 135.631L47.4232 140.148C45.7366 140.128 44.0686 139.773 42.5157 139.109C40.963 138.445 39.5602 137.479 38.3782 136.265C37.8897 135.767 37.4511 135.225 37.0544 134.651C40.07 134.298 43.046 133.866 45.9765 133.359Z" fill="#2D2D2D"/>
<path d="M28.5422 123.34C29.145 123.936 29.7986 124.483 30.4957 124.961L31.8047 129.87C29.9668 130.359 28.0589 130.485 26.1757 130.238C24.2924 129.99 22.4791 129.368 20.8363 128.418C19.1934 127.468 17.7553 126.201 16.5963 124.697C15.472 123.225 14.6389 121.55 14.1469 119.766C18.5956 121.96 23.4977 123.2 28.5422 123.34Z" fill="#2D2D2D"/>
<path d="M63.5933 122.66C63.6729 123.402 63.851 124.131 64.1235 124.827L63.1657 127.604C62.1261 127.245 61.1694 126.69 60.3483 125.962C59.5272 125.234 58.8528 124.352 58.3731 123.365C58.3482 123.314 58.3239 123.263 58.3002 123.212C60.0828 123.062 61.8477 122.878 63.5933 122.66Z" fill="#2D2D2D"/>
<path d="M67.1381 118.048C67.0102 118.571 66.9522 119.111 66.9666 119.65L65.6344 121.302C65.016 120.803 64.5023 120.191 64.1229 119.495C63.7435 118.799 63.5016 118.034 63.4179 117.246C63.4134 117.205 63.4094 117.165 63.4058 117.124C64.6539 117.46 65.8985 117.768 67.1381 118.048Z" fill="#2D2D2D"/>
<path d="M54.4149 125.861C54.4877 126.595 54.661 127.318 54.9306 128.006L54.0113 130.672C53.0136 130.327 52.0954 129.794 51.3074 129.095C50.5193 128.397 49.872 127.551 49.4117 126.603C49.3127 126.402 49.2237 126.196 49.1439 125.988C50.9169 125.984 52.6746 125.941 54.4149 125.861Z" fill="#2D2D2D"/>
<path d="M43.0789 124.143C43.3013 124.93 43.6045 125.695 43.9833 126.421L43.1036 130.391C41.6215 130.062 40.2173 129.443 38.9715 128.571C37.7259 127.701 36.668 126.591 35.8501 125.304C35.5115 124.775 35.2249 124.217 34.9811 123.638C37.7027 123.883 40.4039 124.05 43.0789 124.143Z" fill="#2D2D2D"/>
<path d="M29.6826 110.385C30.2207 111.157 30.8242 111.887 31.4892 112.55L31.927 118.178C29.8202 118.341 27.7101 118.093 25.7025 117.442C23.695 116.792 21.8395 115.745 20.2367 114.375C18.6338 113.005 17.3187 111.33 16.3565 109.452C15.4257 107.617 14.8542 105.618 14.6772 103.57C19.0941 106.867 24.1993 109.212 29.6826 110.385Z" fill="#2D2D2D"/>
<path d="M57.2632 116.938C57.1824 117.896 57.233 118.863 57.4152 119.809L55.6056 123.006C54.4091 122.328 53.3591 121.427 52.5151 120.346C51.671 119.264 51.0423 118.026 50.6772 116.703C50.5981 116.422 50.5328 116.137 50.48 115.851C52.7525 116.266 55.0145 116.628 57.2632 116.938Z" fill="#2D2D2D"/>
<path d="M45.1561 114.407C45.2511 115.434 45.4515 116.451 45.7545 117.438L43.7537 122.156C41.9922 121.409 40.3937 120.32 39.0493 118.954C37.705 117.589 36.6482 115.972 35.9298 114.188C35.6313 113.455 35.4041 112.698 35.2346 111.925C38.5519 112.852 41.8617 113.679 45.1561 114.407Z" fill="#2D2D2D"/>
<path d="M34.6734 96.4979C35.3729 96.9381 36.0865 97.3597 36.8135 97.7619C37.1467 98.7892 37.566 99.791 38.0749 100.74L36.6806 107.063C34.3142 106.54 32.0808 105.565 30.0944 104.182C28.1079 102.799 26.4201 101.032 25.1172 98.995C23.8144 96.9576 22.929 94.6811 22.4987 92.2993C22.2773 91.0452 22.1866 89.7735 22.2267 88.506C25.8047 91.0906 29.8769 93.7294 34.2877 96.276C34.4163 96.3502 34.5449 96.4242 34.6734 96.4979Z" fill="#2D2D2D"/>
<path d="M63.6439 112.116C63.236 113.141 62.9693 114.22 62.8542 115.318L59.8034 118.224C58.7159 117.082 57.8636 115.743 57.2976 114.275C56.7316 112.806 56.4538 111.239 56.4939 109.665C56.5007 109.33 56.5238 108.996 56.5612 108.664C58.9169 109.877 61.2789 111.028 63.6439 112.116Z" fill="#2D2D2D"/>
<path d="M52.0087 106.818C51.7991 107.84 51.6943 108.883 51.6976 109.927L48.3766 113.904C46.892 112.663 45.6654 111.14 44.7657 109.424C43.866 107.709 43.3186 105.834 43.1471 103.898C43.0736 103.101 43.0763 102.301 43.1393 101.504C46.0764 103.375 49.0355 105.146 52.0087 106.818Z" fill="#2D2D2D"/>
<path d="M119.417 124.466C112.543 127.671 107.224 133.476 104.63 140.604C102.036 147.731 102.379 155.597 105.585 162.471C108.79 169.345 114.595 174.664 121.722 177.258C128.849 179.852 136.715 179.509 143.589 176.303L119.417 124.466Z" fill="#242121"/>
<path d="M119.417 124.466C118.756 123.048 117.822 121.774 116.668 120.717C115.514 119.659 114.164 118.84 112.693 118.305C111.223 117.769 109.661 117.529 108.098 117.597C106.535 117.666 105 118.041 103.582 118.702L108.618 129.502L119.417 124.466Z" fill="#242121"/>
<path d="M127.754 170.54C128.415 171.958 129.35 173.232 130.503 174.289C131.657 175.346 133.008 176.166 134.478 176.701C135.949 177.236 137.51 177.477 139.073 177.408C140.637 177.34 142.171 176.965 143.589 176.303L138.554 165.504L127.754 170.54Z" fill="#242121"/>
<path d="M108.618 129.502L119.417 124.466L138.554 165.504L127.754 170.54L108.618 129.502Z" fill="#242121"/>
<path d="M120.876 122.34C115.173 127.341 111.691 134.402 111.195 141.971C110.699 149.539 113.23 156.995 118.23 162.697C123.231 168.4 130.293 171.882 137.861 172.378C145.43 172.874 152.885 170.343 158.588 165.342L120.876 122.34Z" fill="#242121"/>
<path d="M120.876 122.34C119.844 121.163 118.59 120.202 117.187 119.51C115.784 118.817 114.258 118.409 112.696 118.306C111.135 118.204 109.568 118.41 108.087 118.913C106.605 119.416 105.237 120.206 104.06 121.238L111.917 130.197L120.876 122.34Z" fill="#242121"/>
<path d="M141.772 164.24C142.804 165.417 144.057 166.378 145.461 167.07C146.864 167.763 148.39 168.171 149.952 168.274C151.513 168.376 153.08 168.17 154.561 167.667C156.043 167.164 157.411 166.374 158.588 165.342L150.731 156.383L141.772 164.24Z" fill="#242121"/>
<path d="M111.917 130.197L120.876 122.34L150.731 156.383L141.772 164.24L111.917 130.197Z" fill="#242121"/>
<path d="M121.684 119.88C117.608 126.276 116.241 134.03 117.883 141.435C119.524 148.84 124.04 155.29 130.437 159.365C136.834 163.44 144.588 164.807 151.993 163.166C159.398 161.524 165.847 157.008 169.922 150.611L121.684 119.88Z" fill="#242121"/>
<path d="M121.684 119.88C120.364 119.039 118.891 118.466 117.35 118.195C115.809 117.923 114.23 117.957 112.702 118.296C111.174 118.635 109.728 119.271 108.446 120.168C107.165 121.066 106.072 122.207 105.231 123.527L115.281 129.929L121.684 119.88Z" fill="#242121"/>
<path d="M153.47 154.258C154.79 155.099 156.262 155.672 157.803 155.944C159.345 156.215 160.924 156.181 162.452 155.842C163.979 155.503 165.425 154.867 166.707 153.97C167.989 153.072 169.082 151.931 169.922 150.611L159.873 144.209L153.47 154.258Z" fill="#242121"/>
<path d="M115.281 129.929L121.684 119.88L159.873 144.209L153.47 154.258L115.281 129.929Z" fill="#242121"/>
<path d="M121.769 117.3C119.646 124.582 120.504 132.409 124.152 139.058C127.8 145.708 133.94 150.636 141.222 152.759C148.504 154.881 156.33 154.024 162.98 150.376C169.63 146.728 174.558 140.587 176.68 133.306L121.769 117.3Z" fill="#242121"/>
<path d="M121.769 117.3C120.266 116.862 118.693 116.725 117.137 116.895C115.582 117.065 114.075 117.541 112.703 118.293C111.331 119.046 110.121 120.061 109.141 121.282C108.162 122.502 107.432 123.903 106.995 125.406L118.434 128.74L121.769 117.3Z" fill="#242121"/>
<path d="M161.906 141.411C163.408 141.849 164.982 141.987 166.537 141.816C168.093 141.646 169.6 141.171 170.972 140.418C172.344 139.665 173.554 138.65 174.533 137.43C175.513 136.209 176.242 134.808 176.68 133.306L165.24 129.971L161.906 141.411Z" fill="#242121"/>
<path d="M118.434 128.74L121.769 117.3L165.24 129.971L161.906 141.411L118.434 128.74Z" fill="#242121"/>
<path d="M120.95 114.815C120.95 122.399 123.963 129.673 129.326 135.037C134.689 140.4 141.964 143.413 149.548 143.413C157.133 143.413 164.407 140.4 169.77 135.037C175.133 129.673 178.146 122.399 178.146 114.815L120.95 114.815Z" fill="#242121"/>
<path d="M120.95 114.815C119.385 114.815 117.836 115.123 116.39 115.722C114.944 116.321 113.631 117.198 112.524 118.305C111.418 119.411 110.54 120.725 109.941 122.171C109.342 123.616 109.034 125.166 109.034 126.731L120.95 126.731L120.95 114.815Z" fill="#242121"/>
<path d="M166.23 126.731C167.795 126.731 169.345 126.422 170.79 125.823C172.236 125.225 173.55 124.347 174.656 123.24C175.763 122.134 176.64 120.82 177.239 119.375C177.838 117.929 178.146 116.379 178.146 114.815L166.23 114.815L166.23 126.731Z" fill="#242121"/>
<path d="M120.95 126.731L120.95 114.815L166.23 114.815L166.23 126.731L120.95 126.731Z" fill="#242121"/>
<path d="M119.496 112.703C121.459 120.03 126.252 126.276 132.821 130.068C139.389 133.861 147.195 134.888 154.521 132.925C161.848 130.962 168.094 126.169 171.886 119.601C175.679 113.032 176.706 105.226 174.743 97.8999L119.496 112.703Z" fill="#242121"/>
<path d="M119.496 112.703C117.984 113.108 116.568 113.807 115.326 114.76C114.085 115.712 113.043 116.9 112.261 118.255C111.478 119.611 110.97 121.107 110.766 122.658C110.562 124.209 110.665 125.786 111.07 127.297L122.58 124.213L119.496 112.703Z" fill="#242121"/>
<path d="M166.317 112.494C167.829 112.089 169.246 111.39 170.487 110.438C171.729 109.485 172.77 108.297 173.553 106.942C174.335 105.587 174.843 104.091 175.047 102.539C175.252 100.988 175.148 99.4114 174.743 97.8999L163.233 100.984L166.317 112.494Z" fill="#242121"/>
<path d="M122.58 124.213L119.496 112.703L163.233 100.984L166.317 112.494L122.58 124.213Z" fill="#242121"/>
<path d="M117.804 111.02C121.597 117.588 127.843 122.381 135.169 124.344C142.496 126.307 150.302 125.28 156.87 121.487C163.439 117.695 168.232 111.448 170.195 104.122C172.158 96.796 171.13 88.99 167.338 82.4214L117.804 111.02Z" fill="#242121"/>
<path d="M117.804 111.02C116.449 111.802 115.261 112.844 114.309 114.085C113.356 115.327 112.658 116.743 112.252 118.255C111.847 119.766 111.744 121.343 111.948 122.894C112.153 124.446 112.66 125.942 113.443 127.297L123.762 121.339L117.804 111.02Z" fill="#242121"/>
<path d="M162.976 98.6988C164.331 97.9164 165.519 96.8748 166.472 95.6333C167.424 94.3919 168.123 92.9749 168.528 91.4634C168.933 89.9519 169.037 88.3755 168.832 86.824C168.628 85.2726 168.12 83.7766 167.338 82.4214L157.018 88.3794L162.976 98.6988Z" fill="#242121"/>
<path d="M123.762 121.339L117.804 111.02L157.018 88.3794L162.976 98.6988L123.762 121.339Z" fill="#242121"/>
<path d="M138.014 158.619C137.297 158.745 136.568 158.812 135.842 158.809L132.518 161.636C133.577 162.88 134.863 163.901 136.314 164.647C137.764 165.393 139.349 165.84 140.974 165.973C142.598 166.105 144.233 165.913 145.787 165.417C147.301 164.928 148.708 164.152 149.927 163.133C145.713 162.508 141.645 160.987 138.014 158.619Z" fill="#2D2D2D"/>
<path d="M118.521 147.831C118.04 148.397 117.482 148.897 116.864 149.312L116.097 152.046C117.121 152.333 118.187 152.418 119.24 152.291C120.293 152.164 121.314 151.835 122.238 151.314C122.436 151.204 122.627 151.085 122.813 150.958C121.347 149.938 119.916 148.895 118.521 147.831Z" fill="#2D2D2D"/>
<path d="M126.292 151.118C125.572 151.711 124.792 152.231 123.966 152.666L122.214 156.958C123.817 157.612 125.535 157.943 127.268 157.935C129.001 157.927 130.713 157.573 132.315 156.897C132.975 156.621 133.606 156.284 134.21 155.9C131.5 154.363 128.86 152.767 126.292 151.118Z" fill="#2D2D2D"/>
<path d="M145.432 147.222C144.625 147.463 143.796 147.638 142.96 147.732L139.518 151.429C140.903 152.717 142.519 153.719 144.287 154.381C146.055 155.044 147.937 155.345 149.823 155.279C151.708 155.213 153.563 154.772 155.283 153.993C156.957 153.227 158.471 152.145 159.735 150.81C154.806 150.658 149.924 149.456 145.432 147.222Z" fill="#2D2D2D"/>
<path d="M122.226 136.479C121.688 137.287 121.04 138.019 120.302 138.652L119.722 142.313C121.093 142.53 122.488 142.478 123.835 142.154C125.181 141.83 126.455 141.248 127.575 140.432C127.814 140.26 128.044 140.076 128.266 139.883C126.21 138.783 124.196 137.648 122.226 136.479Z" fill="#2D2D2D"/>
<path d="M131.352 142.831C130.874 143.329 130.345 143.778 129.776 144.169L128.858 147.472C130.091 147.815 131.382 147.91 132.655 147.755C133.927 147.601 135.154 147.194 136.273 146.56C136.734 146.3 137.169 145.998 137.58 145.664C135.457 144.768 133.38 143.822 131.352 142.831Z" fill="#2D2D2D"/>
<path d="M154.343 135.835C153.711 136.244 153.043 136.601 152.349 136.89L150.318 140.923C151.828 141.683 153.465 142.14 155.148 142.267C156.832 142.394 158.523 142.182 160.125 141.654C161.727 141.127 163.209 140.286 164.491 139.187C165.737 138.111 166.766 136.805 167.518 135.343C163.249 136.443 158.758 136.631 154.343 135.835Z" fill="#2D2D2D"/>
<path d="M124.915 128.957C124.711 129.588 124.423 130.19 124.059 130.746L124.388 133.336C125.358 133.213 126.291 132.904 127.138 132.42C127.985 131.936 128.732 131.291 129.329 130.519C129.359 130.48 129.39 130.44 129.42 130.4C127.896 129.945 126.394 129.464 124.915 128.957Z" fill="#2D2D2D"/>
<path d="M131.387 133.044C131.156 133.777 130.825 134.478 130.403 135.123L130.773 138.038C131.865 137.9 132.915 137.551 133.868 137.007C134.821 136.462 135.662 135.737 136.334 134.868C136.478 134.684 136.612 134.493 136.738 134.297C134.93 133.915 133.146 133.497 131.387 133.044Z" fill="#2D2D2D"/>
<path d="M140.242 133.359C139.822 134.165 139.318 134.927 138.741 135.631L138.796 140.148C140.482 140.128 142.15 139.773 143.703 139.109C145.256 138.445 146.659 137.479 147.841 136.265C148.329 135.767 148.768 135.225 149.164 134.651C146.149 134.298 143.173 133.866 140.242 133.359Z" fill="#2D2D2D"/>
<path d="M157.677 123.34C157.074 123.936 156.42 124.483 155.723 124.961L154.414 129.87C156.252 130.359 158.16 130.485 160.043 130.238C161.926 129.99 163.74 129.368 165.383 128.418C167.025 127.468 168.464 126.201 169.623 124.697C170.747 123.225 171.58 121.55 172.072 119.766C167.623 121.96 162.721 123.2 157.677 123.34Z" fill="#2D2D2D"/>
<path d="M122.626 122.66C122.546 123.402 122.368 124.131 122.095 124.827L123.053 127.604C124.093 127.245 125.05 126.69 125.871 125.962C126.692 125.234 127.366 124.352 127.846 123.365C127.871 123.314 127.895 123.263 127.919 123.212C126.136 123.062 124.371 122.878 122.626 122.66Z" fill="#2D2D2D"/>
<path d="M119.081 118.048C119.209 118.571 119.267 119.111 119.252 119.65L120.585 121.302C121.203 120.803 121.717 120.191 122.096 119.495C122.475 118.799 122.717 118.034 122.801 117.246C122.805 117.205 122.809 117.165 122.813 117.124C121.565 117.46 120.32 117.768 119.081 118.048Z" fill="#2D2D2D"/>
<path d="M131.804 125.861C131.731 126.595 131.558 127.318 131.288 128.006L132.208 130.672C133.205 130.327 134.124 129.794 134.912 129.095C135.7 128.397 136.347 127.551 136.807 126.603C136.906 126.402 136.995 126.196 137.075 125.988C135.302 125.984 133.544 125.941 131.804 125.861Z" fill="#2D2D2D"/>
<path d="M143.14 124.143C142.918 124.93 142.614 125.695 142.236 126.421L143.115 130.391C144.597 130.062 146.002 129.443 147.247 128.571C148.493 127.701 149.551 126.591 150.369 125.304C150.707 124.775 150.994 124.217 151.238 123.638C148.516 123.883 145.815 124.05 143.14 124.143Z" fill="#2D2D2D"/>
<path d="M156.536 110.385C155.998 111.157 155.395 111.887 154.73 112.55L154.292 118.178C156.399 118.341 158.509 118.093 160.516 117.442C162.524 116.792 164.379 115.745 165.982 114.375C167.585 113.005 168.9 111.33 169.862 109.452C170.793 107.617 171.365 105.618 171.542 103.57C167.125 106.867 162.02 109.212 156.536 110.385Z" fill="#2D2D2D"/>
<path d="M128.956 116.938C129.037 117.896 128.986 118.863 128.804 119.809L130.613 123.006C131.81 122.328 132.86 121.427 133.704 120.346C134.548 119.264 135.177 118.026 135.542 116.703C135.621 116.422 135.686 116.137 135.739 115.851C133.466 116.266 131.204 116.628 128.956 116.938Z" fill="#2D2D2D"/>
<path d="M141.063 114.407C140.968 115.434 140.767 116.451 140.464 117.438L142.465 122.156C144.227 121.409 145.825 120.32 147.17 118.954C148.514 117.589 149.571 115.972 150.289 114.188C150.588 113.455 150.815 112.698 150.984 111.925C147.667 112.852 144.357 113.679 141.063 114.407Z" fill="#2D2D2D"/>
<path d="M151.545 96.4979C150.846 96.9381 150.132 97.3597 149.405 97.7619C149.072 98.7892 148.653 99.791 148.144 100.74L149.538 107.063C151.904 106.54 154.138 105.565 156.124 104.182C158.111 102.799 159.798 101.032 161.101 98.995C162.404 96.9576 163.29 94.6811 163.72 92.2993C163.941 91.0452 164.032 89.7735 163.992 88.506C160.414 91.0906 156.342 93.7294 151.931 96.276C151.802 96.3502 151.674 96.4242 151.545 96.4979Z" fill="#2D2D2D"/>
<path d="M122.575 112.116C122.983 113.141 123.249 114.22 123.364 115.318L126.415 118.224C127.503 117.082 128.355 115.743 128.921 114.275C129.487 112.806 129.765 111.239 129.725 109.665C129.718 109.33 129.695 108.996 129.657 108.664C127.302 109.877 124.94 111.028 122.575 112.116Z" fill="#2D2D2D"/>
<path d="M134.21 106.818C134.419 107.84 134.524 108.883 134.521 109.927L137.842 113.904C139.327 112.663 140.553 111.14 141.453 109.424C142.353 107.709 142.9 105.834 143.071 103.898C143.145 103.101 143.142 102.301 143.079 101.504C140.142 103.375 137.183 105.146 134.21 106.818Z" fill="#2D2D2D"/>
<path d="M70.8663 152.5C70.8663 164.784 80.8249 174.743 93.1093 174.743C105.394 174.743 115.352 164.784 115.352 152.5V108.014H70.8663V152.5Z" fill="#2D2D2D"/>
<g clip-path="url(#clip1_1_181)">
<path d="M70.8665 108.013C70.8665 95.7281 80.825 85.7695 93.1094 85.7695C105.394 85.7695 115.352 95.7281 115.352 108.013V122.844C115.352 126.937 112.034 130.256 107.941 130.256H78.2781C74.1848 130.256 70.8665 126.937 70.8665 122.844V108.013Z" fill="#2D2D2D"/>
<path d="M81.7353 88.1134C81.8547 87.7448 82.3765 87.746 82.4943 88.115L84.3493 93.9258C84.402 94.091 84.5556 94.2032 84.7291 94.2032H90.8422C91.2282 94.2032 91.3889 94.6969 91.077 94.9241L86.148 98.5144C86.0086 98.6159 85.9503 98.7955 86.0034 98.9595L87.8913 104.786C88.0103 105.153 87.5895 105.458 87.2773 105.231L82.3515 101.643C82.2119 101.541 82.0227 101.541 81.8829 101.642L76.9197 105.237C76.6073 105.463 76.1877 105.158 76.3066 104.791L78.1964 98.9595C78.2495 98.7955 78.1912 98.6159 78.0518 98.5144L73.1228 94.9241C72.8109 94.6969 72.9716 94.2032 73.3576 94.2032H79.4721C79.6449 94.2032 79.7981 94.0918 79.8513 93.9274L81.7353 88.1134Z" fill="#FFEA2C"/>
<path d="M103.754 88.1134C103.874 87.7448 104.395 87.746 104.513 88.115L106.368 93.9258C106.421 94.091 106.574 94.2032 106.748 94.2032H112.861C113.247 94.2032 113.408 94.6969 113.096 94.9241L108.167 98.5144C108.027 98.6159 107.969 98.7955 108.022 98.9595L109.91 104.786C110.029 105.153 109.608 105.458 109.296 105.231L104.37 101.643C104.231 101.541 104.042 101.541 103.902 101.642L98.9385 105.237C98.6261 105.463 98.2065 105.158 98.3254 104.791L100.215 98.9595C100.268 98.7955 100.21 98.6159 100.071 98.5144L95.1416 94.9241C94.8297 94.6969 94.9904 94.2032 95.3764 94.2032H101.491C101.664 94.2032 101.817 94.0918 101.87 93.9274L103.754 88.1134Z" fill="#FFEA2C"/>
<path d="M84.3757 110.72C83.9007 111.877 83.6562 113.117 83.6562 114.368L93.1094 130.256L93.1094 104.836C91.868 104.836 90.6387 105.082 89.4918 105.561C88.3449 106.04 87.3028 106.743 86.425 107.628C85.5471 108.513 84.8508 109.564 84.3757 110.72Z" fill="#CACACA"/>
<path d="M101.843 110.72C102.318 111.877 102.563 113.117 102.563 114.368L93.1093 130.256V104.836C94.3508 104.836 95.58 105.082 96.727 105.561C97.8739 106.04 98.916 106.743 99.7938 107.628C100.672 108.513 101.368 109.564 101.843 110.72Z" fill="#6E00FF"/>
</g>
<path d="M69.212 33.2C68.2787 33.2 67.4587 33.0267 66.752 32.68C66.0587 32.32 65.5187 31.82 65.132 31.18C64.7587 30.5267 64.572 29.76 64.572 28.88V22.52C64.572 21.6267 64.7587 20.86 65.132 20.22C65.5187 19.58 66.0587 19.0867 66.752 18.74C67.4587 18.38 68.2787 18.2 69.212 18.2C70.1587 18.2 70.972 18.38 71.652 18.74C72.3454 19.0867 72.8854 19.58 73.272 20.22C73.6587 20.86 73.852 21.6267 73.852 22.52H71.332C71.332 21.8267 71.1454 21.3 70.772 20.94C70.412 20.58 69.892 20.4 69.212 20.4C68.532 20.4 68.0054 20.58 67.632 20.94C67.2587 21.3 67.072 21.82 67.072 22.5V28.88C67.072 29.56 67.2587 30.0867 67.632 30.46C68.0054 30.8333 68.532 31.02 69.212 31.02C69.892 31.02 70.412 30.8333 70.772 30.46C71.1454 30.0867 71.332 29.56 71.332 28.88V27.4H68.852V25.24H73.852V28.88C73.852 29.76 73.6587 30.5267 73.272 31.18C72.8854 31.82 72.3454 32.32 71.652 32.68C70.972 33.0267 70.1587 33.2 69.212 33.2ZM76.2442 33V18.4H80.8642C81.8376 18.4 82.6776 18.58 83.3842 18.94C84.1042 19.3 84.6642 19.8067 85.0642 20.46C85.4642 21.1 85.6642 21.86 85.6642 22.74C85.6642 23.7 85.4176 24.5467 84.9242 25.28C84.4442 26.0133 83.7909 26.5333 82.9642 26.84L85.8642 33H83.0642L80.5242 27.2H78.7442V33H76.2442ZM78.7442 25H80.8642C81.5709 25 82.1242 24.8067 82.5242 24.42C82.9242 24.0333 83.1242 23.5 83.1242 22.82C83.1242 22.1267 82.9242 21.5867 82.5242 21.2C82.1242 20.8 81.5709 20.6 80.8642 20.6H78.7442V25ZM88.0764 33V18.4H96.8364V20.58H90.5364V24.38H96.1364V26.54H90.5364V30.82H96.8364V33H88.0764ZM98.6086 33L102.289 18.4H105.509L109.209 33H106.649L105.849 29.46H101.969L101.169 33H98.6086ZM102.429 27.42H105.389L104.509 23.5C104.362 22.8467 104.235 22.26 104.129 21.74C104.022 21.2067 103.949 20.82 103.909 20.58C103.869 20.82 103.795 21.2067 103.689 21.74C103.595 22.26 103.469 22.84 103.309 23.48L102.429 27.42ZM114.241 33V20.72H110.421V18.4H120.581V20.72H116.761V33H114.241Z" fill="black"/>
<path d="M119.544 97.1896C119.723 96.3185 120.514 95.7108 121.402 95.7617L134.201 96.4955C136.577 96.6317 138.195 98.9604 137.495 101.235V101.235C136.878 103.236 134.712 104.315 132.743 103.602L120.689 99.2377C119.852 98.9344 119.364 98.0621 119.544 97.1896V97.1896Z" fill="#6E00FF"/>
<path d="M55.678 100.791C55.834 101.534 55.4223 102.278 54.7107 102.541L44.453 106.324C42.5488 107.027 40.4905 105.757 40.2641 103.74V103.74C40.0649 101.965 41.3908 100.384 43.1735 100.271L54.0849 99.5797C54.8431 99.5317 55.5216 100.048 55.678 100.791V100.791Z" fill="white"/>
<path d="M113.945 88.6488C113.577 87.9883 113.728 87.1599 114.306 86.6717L127.31 75.6702C129.11 74.1472 131.873 74.8296 132.757 77.0156V77.0156C133.426 78.6675 132.731 80.5567 131.153 81.3828L116.061 89.2807C115.301 89.6783 114.362 89.398 113.945 88.6488V88.6488Z" fill="white"/>
<path d="M62.6999 85.4537C62.3554 85.8265 61.7984 85.9104 61.3594 85.6557L49.3538 78.6901C47.8841 77.8373 47.7183 75.7793 49.0325 74.7022V74.7022C49.9531 73.9477 51.2844 73.9697 52.1796 74.7542L62.6182 83.9025C63.0769 84.3045 63.1139 85.0057 62.6999 85.4537V85.4537Z" fill="#6E00FF"/>
<path d="M46.6541 83.563C46.8567 82.9398 47.739 82.9417 47.939 83.5658L48.8187 86.3113C48.9082 86.5908 49.1681 86.7804 49.4616 86.7804H52.3735C53.0277 86.7804 53.2994 87.6177 52.77 88.0019L50.4277 89.7017C50.1908 89.8736 50.0917 90.1786 50.1822 90.4569L51.0813 93.2212C51.2835 93.843 50.572 94.3605 50.0428 93.9764L47.6962 92.2735C47.4603 92.1023 47.1411 92.1018 46.9047 92.2724L44.5293 93.9865C43.9998 94.3686 43.2903 93.8511 43.4923 93.2302L44.3943 90.4569C44.4849 90.1786 44.3857 89.8736 44.1488 89.7017L41.8066 88.0019C41.2771 87.6177 41.5489 86.7804 42.2031 86.7804H45.1173C45.4097 86.7804 45.6688 86.5922 45.7593 86.3141L46.6541 83.563Z" fill="#2D2D2D"/>
<path d="M33.0221 94.7609C33.1519 94.3621 33.7165 94.3633 33.8445 94.7627L34.4075 96.5198C34.4648 96.6987 34.6311 96.8201 34.8189 96.8201H36.6826C37.1012 96.8201 37.2752 97.3559 36.9363 97.6018L35.4373 98.6897C35.2857 98.7997 35.2222 98.9949 35.2802 99.173L35.8556 100.942C35.985 101.34 35.5296 101.671 35.1909 101.425L33.6891 100.336C33.5381 100.226 33.3338 100.226 33.1825 100.335L31.6623 101.432C31.3234 101.676 30.8693 101.345 30.9986 100.948L31.5759 99.173C31.6339 98.9949 31.5704 98.7997 31.4188 98.6897L29.9198 97.6018C29.5809 97.3559 29.7549 96.8201 30.1735 96.8201H32.0386C32.2257 96.8201 32.3916 96.6996 32.4495 96.5216L33.0221 94.7609Z" fill="#6E00FF"/>
<path d="M129.592 50.4825C129.722 50.0837 130.287 50.0849 130.415 50.4843L130.978 52.2415C131.035 52.4203 131.201 52.5417 131.389 52.5417H133.253C133.672 52.5417 133.845 53.0775 133.507 53.3234L132.008 54.4113C131.856 54.5213 131.793 54.7165 131.85 54.8946L132.426 56.6638C132.555 57.0618 132.1 57.3929 131.761 57.1471L130.259 56.0572C130.108 55.9477 129.904 55.9474 129.753 56.0566L128.233 57.1535C127.894 57.3981 127.44 57.0669 127.569 56.6695L128.146 54.8946C128.204 54.7165 128.141 54.5213 127.989 54.4113L126.49 53.3234C126.151 53.0775 126.325 52.5417 126.744 52.5417H128.609C128.796 52.5417 128.962 52.4212 129.02 52.2433L129.592 50.4825Z" fill="#6E00FF"/>
<path d="M153.57 62.4972C153.7 62.0983 154.264 62.0996 154.392 62.499L154.955 64.2561C155.013 64.435 155.179 64.5563 155.367 64.5563H157.23C157.649 64.5563 157.823 65.0922 157.484 65.3381L155.985 66.4259C155.833 66.536 155.77 66.7311 155.828 66.9093L156.403 68.6784C156.533 69.0764 156.077 69.4075 155.739 69.1617L154.237 68.0719C154.086 67.9623 153.882 67.962 153.73 68.0712L152.21 69.1682C151.871 69.4127 151.417 69.0816 151.546 68.6842L152.124 66.9093C152.182 66.7311 152.118 66.536 151.967 66.4259L150.468 65.3381C150.129 65.0922 150.303 64.5563 150.721 64.5563H152.586C152.774 64.5563 152.939 64.4359 152.997 64.2579L153.57 62.4972Z" fill="white"/>
<path d="M13.303 63.2986C13.4327 62.8997 13.9974 62.901 14.1253 63.3003L14.6883 65.0575C14.7457 65.2364 14.912 65.3577 15.0998 65.3577H16.9634C17.3821 65.3577 17.556 65.8936 17.2172 66.1395L15.7181 67.2273C15.5665 67.3374 15.5031 67.5325 15.561 67.7107L16.1364 69.4798C16.2659 69.8778 15.8105 70.2089 15.4718 69.9631L13.97 68.8733C13.819 68.7637 13.6147 68.7634 13.4634 68.8726L11.9431 69.9696C11.6042 70.2141 11.1502 69.883 11.2794 69.4856L11.8568 67.7107C11.9147 67.5325 11.8513 67.3373 11.6997 67.2273L10.2006 66.1395C9.86176 65.8936 10.0357 65.3577 10.4544 65.3577H12.3194C12.5066 65.3577 12.6724 65.2373 12.7303 65.0593L13.303 63.2986Z" fill="white"/>
<path d="M123.954 105.715C124.083 105.316 124.648 105.317 124.776 105.717L125.339 107.474C125.396 107.653 125.563 107.774 125.751 107.774H127.614C128.033 107.774 128.207 108.31 127.868 108.556L126.369 109.644C126.217 109.754 126.154 109.949 126.212 110.127L126.787 111.896C126.917 112.294 126.461 112.625 126.123 112.38L124.621 111.29C124.47 111.18 124.265 111.18 124.114 111.289L122.594 112.386C122.255 112.631 121.801 112.299 121.93 111.902L122.508 110.127C122.565 109.949 122.502 109.754 122.35 109.644L120.851 108.556C120.513 108.31 120.686 107.774 121.105 107.774H122.97C123.157 107.774 123.323 107.654 123.381 107.476L123.954 105.715Z" fill="white"/>
<path d="M59.5924 110.056C59.7221 109.657 60.2868 109.658 60.4148 110.058L60.9778 111.815C61.0351 111.994 61.2014 112.115 61.3892 112.115H63.2528C63.6715 112.115 63.8455 112.651 63.5066 112.897L62.0076 113.985C61.856 114.095 61.7925 114.29 61.8505 114.468L62.4259 116.237C62.5553 116.635 62.0999 116.966 61.7612 116.72L60.2594 115.631C60.1084 115.521 59.9041 115.521 59.7528 115.63L58.2326 116.727C57.8937 116.971 57.4396 116.64 57.5689 116.243L58.1462 114.468C58.2041 114.29 58.1407 114.095 57.9891 113.985L56.49 112.897C56.1512 112.651 56.3251 112.115 56.7438 112.115H58.6089C58.796 112.115 58.9619 111.995 59.0198 111.817L59.5924 110.056Z" fill="#6E00FF"/>
<path d="M68.0555 66.1912C68.2582 65.5681 69.1405 65.57 69.3404 66.194L70.2268 68.9604C70.3164 69.2399 70.5762 69.4295 70.8697 69.4295H73.8035C74.4577 69.4295 74.7295 70.2667 74.2 70.651L71.8401 72.3636C71.6032 72.5355 71.5041 72.8404 71.5946 73.1187L72.5004 75.9038C72.7027 76.5257 71.9912 77.0431 71.4619 76.659L69.0977 74.9433C68.8618 74.7721 68.5426 74.7717 68.3062 74.9423L65.913 76.6691C65.3835 77.0512 64.674 76.5338 64.876 75.9128L65.7848 73.1188C65.8753 72.8404 65.7762 72.5355 65.5393 72.3635L63.1794 70.651C62.65 70.2667 62.9218 69.4295 63.5759 69.4295H66.512C66.8044 69.4295 67.0636 69.2412 67.154 68.9632L68.0555 66.1912Z" fill="white"/>
<path d="M142.447 80.4739C142.552 80.1522 143.007 80.1532 143.111 80.4754L143.642 82.1352C143.689 82.2795 143.823 82.3774 143.974 82.3774H145.733C146.071 82.3774 146.211 82.8097 145.938 83.0081L144.523 84.035C144.4 84.1238 144.349 84.2812 144.396 84.4249L144.939 86.0944C145.043 86.4155 144.676 86.6826 144.403 86.4843L142.985 85.4558C142.863 85.3674 142.699 85.3671 142.577 85.4552L141.143 86.4895C140.87 86.6868 140.503 86.4197 140.608 86.099L141.152 84.4249C141.199 84.2812 141.148 84.1238 141.026 84.035L139.61 83.0081C139.337 82.8097 139.477 82.3774 139.815 82.3774H141.575C141.726 82.3774 141.86 82.2802 141.906 82.1366L142.447 80.4739Z" fill="#2D2D2D"/>
<path d="M112.388 70.4263C112.55 69.9277 113.256 69.9293 113.416 70.4285L114.24 73.0001C114.311 73.2237 114.519 73.3754 114.754 73.3754H117.479C118.002 73.3754 118.219 74.0452 117.796 74.3526L115.603 75.9438C115.414 76.0813 115.335 76.3252 115.407 76.5479L116.248 79.1346C116.41 79.632 115.841 80.046 115.417 79.7387L113.221 78.1451C113.033 78.0081 112.777 78.0078 112.588 78.1442L110.367 79.7468C109.944 80.0525 109.376 79.6385 109.538 79.1418L110.381 76.5479C110.454 76.3253 110.375 76.0813 110.185 75.9438L107.992 74.3526C107.569 74.0452 107.786 73.3754 108.31 73.3754H111.036C111.27 73.3754 111.478 73.2248 111.55 73.0024L112.388 70.4263Z" fill="#2D2D2D"/>
<path d="M36.846 60.2091C36.9757 59.8103 37.5403 59.8115 37.6683 60.2109L38.2313 61.968C38.2886 62.1469 38.4549 62.2682 38.6428 62.2682H40.5064C40.9251 62.2682 41.099 62.8041 40.7602 63.05L39.2611 64.1379C39.1095 64.2479 39.0461 64.443 39.104 64.6212L39.6794 66.3903C39.8088 66.7883 39.3535 67.1195 39.0147 66.8737L37.513 65.7838C37.362 65.6742 37.1577 65.674 37.0064 65.7831L35.4861 66.8801C35.1472 67.1246 34.6931 66.7935 34.8224 66.3961L35.3997 64.6212C35.4577 64.4431 35.3942 64.2479 35.2426 64.1379L33.7436 63.05C33.4047 62.8041 33.5787 62.2682 33.9973 62.2682H35.8624C36.0496 62.2682 36.2154 62.1478 36.2733 61.9698L36.846 60.2091Z" fill="#2D2D2D"/>
<path fill-rule="evenodd" clip-rule="evenodd" d="M127.699 86.5596C127.68 86.5279 127.66 86.4964 127.639 86.4651C126.816 85.2254 125.144 84.8877 123.904 85.7109C122.668 86.5311 122.329 88.1946 123.141 89.433L123.139 89.4343L123.664 90.2237L126.449 94.4179C126.557 94.5809 126.777 94.6253 126.94 94.517L131.133 91.732L131.923 91.2081L131.922 91.2063C133.151 90.3801 133.484 88.7152 132.664 87.4798C131.841 86.2401 130.168 85.9024 128.929 86.7255L128.908 86.7395L128.872 86.7644L128.838 86.7885L128.227 87.1942C128.186 87.2212 128.131 87.2101 128.104 87.1694L127.699 86.5596Z" fill="#2D2D2D"/>
<path fill-rule="evenodd" clip-rule="evenodd" d="M38.858 77.0926C38.8242 77.0773 38.7898 77.0626 38.7551 77.0486C37.3752 76.4916 35.805 77.1586 35.2479 78.5385C34.6928 79.9136 35.3533 81.4777 36.7235 82.0398L36.7226 82.0419L37.602 82.3962L42.2705 84.2808C42.4519 84.354 42.6584 84.2663 42.7316 84.0849L44.6154 79.4167L44.9708 78.5379L44.9687 78.537C45.5153 77.1606 44.8482 75.5993 43.4731 75.0442C42.0932 74.4872 40.523 75.1543 39.9659 76.5342L39.9566 76.5576L39.941 76.5984L39.9266 76.6375L39.652 77.3176C39.6337 77.363 39.5821 77.3849 39.5368 77.3666L38.858 77.0926Z" fill="#2D2D2D"/>
<path fill-rule="evenodd" clip-rule="evenodd" d="M70.6906 79.6693C70.6626 79.6449 70.634 79.6209 70.6047 79.5974C69.4441 78.6661 67.7483 78.8519 66.8169 80.0124C65.8887 81.169 66.07 82.8571 67.2198 83.7905L67.2183 83.7923L67.9581 84.3851L71.8846 87.5362C72.0372 87.6587 72.2602 87.6343 72.3826 87.4816L75.5329 83.5552L76.1267 82.8163L76.1249 82.8149C77.0453 81.6547 76.8569 79.9673 75.7003 79.0392C74.5398 78.1078 72.8439 78.2936 71.9125 79.4542L71.8968 79.4738L71.87 79.5084L71.845 79.5417L71.3859 80.1138C71.3553 80.1519 71.2996 80.158 71.2614 80.1274L70.6906 79.6693Z" fill="#2D2D2D"/>
<path fill-rule="evenodd" clip-rule="evenodd" d="M141.432 60.8707C141.431 60.8253 141.429 60.7797 141.426 60.734C141.299 58.9195 139.726 57.5507 137.912 57.6768C136.104 57.8025 134.738 59.3651 134.853 61.1716L134.851 61.1718L134.932 62.3277L135.358 68.4667C135.375 68.7053 135.582 68.8852 135.82 68.8686L141.958 68.4413L143.114 68.3618L143.114 68.3591C144.919 68.2234 146.278 66.6549 146.152 64.8467C146.026 63.0322 144.453 61.6634 142.639 61.7895L142.608 61.7917L142.555 61.7964L142.504 61.8015L141.61 61.8637C141.55 61.8678 141.498 61.8228 141.494 61.7632L141.432 60.8707Z" fill="#2D2D2D"/>
</g>
<defs>
<clipPath id="clip0_1_181">
<rect width="184" height="155" fill="white"/>
</clipPath>
<clipPath id="clip1_1_181">
<rect width="95.3271" height="71.4953" fill="white" transform="translate(45.4458 72.2656)"/>
</clipPath>
</defs>
</svg>
