<svg width="187" height="153" viewBox="0 0 187 153" fill="none" xmlns="http://www.w3.org/2000/svg">
<path d="M124.911 8.94246L126.254 6.10074L124.998 5.74206L124.192 7.44796L121.722 6.82408L120.646 9.09796L118.176 8.47422L116.832 11.3158L118.088 11.6748L118.895 9.96845L121.365 10.5922L122.441 8.31858L124.911 8.94246Z" fill="#00C800"/>
<path d="M66.242 55.8845C58.4636 66.8877 43.2381 69.5025 32.2348 61.724C21.2316 53.9455 18.6168 38.72 26.3953 27.7168L66.242 55.8845Z" fill="#231F20"/>
<path d="M26.3934 27.7167C21.7266 34.3188 23.2953 43.4539 29.8974 48.1207L38.3474 36.1667L26.3934 27.7167Z" fill="#231F20"/>
<path d="M65.7601 73.4644L74.2109 61.5112L38.3509 36.1584L29.9 48.1116L65.7601 73.4644Z" fill="#231F20"/>
<path d="M39.1481 53.222C34.7955 60.0357 36.7903 69.0871 43.6033 73.4397L51.4845 61.1032L39.1481 53.222Z" fill="#231F20"/>
<path d="M47.1168 59.3679C42.7642 66.1815 44.7591 75.2329 51.5721 79.5855L59.4533 67.2491L47.1168 59.3679Z" fill="#6E00FF"/>
<path d="M54.9215 63.9069C50.5689 70.7205 52.5638 79.7719 59.3768 84.1245L67.2579 71.788L54.9215 63.9069Z" fill="#231F20"/>
<path d="M62.9645 69.9976C58.6119 76.8112 60.6068 85.8626 67.4198 90.2152L75.3009 77.8787L62.9645 69.9976Z" fill="#6E00FF"/>
<path d="M64.4495 42.1575C56.1088 53.956 39.7829 56.7597 27.9844 48.419C16.1859 40.0784 13.3822 23.7525 21.7228 11.954L64.4495 42.1575Z" fill="#231F20"/>
<path d="M21.7241 11.954C16.72 19.0332 18.4021 28.8285 25.4814 33.8326L34.5421 21.0147L21.7241 11.954Z" fill="#231F20"/>
<path d="M63.9384 61.008L73 48.1909L34.5481 21.0058L25.4865 33.8229L63.9384 61.008Z" fill="#231F20"/>
<path d="M35.4005 39.3031C30.7334 46.6092 32.8724 56.3148 40.1778 60.982L48.6286 47.7539L35.4005 39.3031Z" fill="#231F20"/>
<path d="M43.9474 45.8927C39.2802 53.1988 41.4193 62.9044 48.7247 67.5716L57.1755 54.3435L43.9474 45.8927Z" fill="#C7EAFB"/>
<path d="M52.3146 50.7598C47.6474 58.0658 49.7865 67.7714 57.0919 72.4386L65.5427 59.2105L52.3146 50.7598Z" fill="#231F20"/>
<path d="M60.9396 57.2909C56.2724 64.597 58.4115 74.3026 65.7169 78.9697L74.1677 65.7417L60.9396 57.2909Z" fill="#C7EAFB"/>
<path d="M59.365 43.7959C59.355 44.1445 59.0909 44.433 58.7445 44.4738L52.8539 45.1676C52.3842 45.2229 51.9871 44.823 52.0458 44.3537L52.2503 42.7175C52.3019 42.3045 52.6885 42.0186 53.0985 42.0902L58.7832 43.083C59.1273 43.1431 59.3751 43.4467 59.365 43.7959V43.7959Z" fill="#FFE500"/>
<path d="M64.8212 39.3048C64.607 39.5366 64.2605 39.5888 63.9875 39.4304L55.5405 34.5294C55.1006 34.2742 55.051 33.6582 55.4443 33.3359L56.8354 32.1958C57.1109 31.9699 57.5094 31.9765 57.7774 32.2113L64.7704 38.3399C65.0557 38.59 65.0787 39.0261 64.8212 39.3048V39.3048Z" fill="#FFE500"/>
<path d="M63.8641 46.1034C64.1214 46.3713 64.1372 46.7912 63.8991 47.0764L61.2985 50.1902C61.0067 50.5396 60.4695 50.5388 60.1787 50.1885L59.1967 49.0054C58.903 48.6516 59.0065 48.1175 59.4111 47.899L62.9916 45.966C63.2797 45.8104 63.6372 45.8673 63.8641 46.1034V46.1034Z" fill="#FFE500"/>
<path d="M14.8219 67.1109L11.1602 66.056L10.1897 69.4247L13.8515 70.4796L14.8219 67.1109Z" fill="#0A6FCB"/>
<path d="M57.4368 9.37105L58.4629 6.39992L57.1755 6.18013L56.5592 7.96376L54.0361 7.61256L53.2147 9.99003L50.6914 9.63901L49.6648 12.6101L50.9524 12.8301L51.5688 11.046L54.0922 11.3971L54.9137 9.01985L57.4368 9.37105Z" fill="#FF5A00"/>
<path d="M32.6613 7.51614C34.1871 7.51614 35.4241 6.27918 35.4241 4.75331C35.4241 3.22744 34.1871 1.99048 32.6613 1.99048C31.1354 1.99048 29.8984 3.22744 29.8984 4.75331C29.8984 6.27918 31.1354 7.51614 32.6613 7.51614Z" fill="#0082FF"/>
<path d="M88.6041 134.128H84.5018L79.7864 103.478C79.7157 103.018 79.2852 102.702 78.8252 102.773C78.3652 102.844 78.0498 103.274 78.1205 103.734L82.7965 134.129H74.1282C73.6627 134.129 73.2852 134.506 73.2852 134.972C73.2852 135.437 73.6627 135.815 74.1282 135.815H83.7755C83.7755 135.815 83.7774 135.815 83.778 135.815C83.7792 135.815 83.7798 135.815 83.7811 135.815H88.6047C89.0702 135.815 89.4478 135.437 89.4478 134.972C89.4478 134.506 89.0702 134.129 88.6047 134.129L88.6041 134.128Z" fill="#2D2D2D"/>
<path d="M120.344 119.034L115.453 126.191L92.9972 105.181C92.6573 104.863 92.1239 104.881 91.806 105.221C91.4881 105.561 91.5057 106.094 91.8455 106.412L114.491 127.599L112.176 130.986C111.913 131.37 112.012 131.895 112.396 132.157C112.781 132.42 113.305 132.321 113.568 131.937L116.29 127.954C116.29 127.954 116.291 127.953 116.291 127.952C116.292 127.951 116.292 127.95 116.293 127.95L121.736 119.985C121.999 119.6 121.9 119.076 121.516 118.813C121.131 118.55 120.607 118.649 120.344 119.033L120.344 119.034Z" fill="#2D2D2D"/>
<path d="M115.699 55.896C123.478 66.8993 138.703 69.5141 149.706 61.7356C160.71 53.9571 163.324 38.7316 155.546 27.7284L115.699 55.896Z" fill="#231F20"/>
<path d="M104.225 81.9327C99.5584 75.3306 101.127 66.1956 107.729 61.5287L116.179 73.4827L104.225 81.9327Z" fill="#231F20"/>
<path d="M155.548 27.7284C160.215 34.3305 158.646 43.4655 152.044 48.1323L143.594 36.1784L155.548 27.7284Z" fill="#231F20"/>
<path d="M152.052 48.1315L143.602 36.1783L107.741 61.5311L116.192 73.4843L152.052 48.1315Z" fill="#231F20"/>
<path d="M142.786 53.2346C147.138 60.0482 145.143 69.0996 138.33 73.4522L130.449 61.1158L142.786 53.2346Z" fill="#231F20"/>
<path d="M134.809 59.3801C139.162 66.1937 137.167 75.2451 130.354 79.5977L122.473 67.2613L134.809 59.3801Z" fill="#6E00FF"/>
<path d="M127.008 63.9192C131.361 70.7328 129.366 79.7842 122.553 84.1368L114.672 71.8003L127.008 63.9192Z" fill="#231F20"/>
<path d="M118.965 70.0093C123.318 76.8229 121.323 85.8743 114.51 90.2269L106.629 77.8904L118.965 70.0093Z" fill="#6E00FF"/>
<path d="M77.7079 81.9211C82.3747 75.319 80.806 66.184 74.2039 61.5171L65.7539 73.4711L77.7079 81.9211Z" fill="#231F20"/>
<path d="M117.484 42.1703C125.825 53.9688 142.151 56.7725 153.95 48.4319C165.748 40.0912 168.552 23.7653 160.211 11.9668L117.484 42.1703Z" fill="#231F20"/>
<path d="M105.181 70.0889C100.177 63.0096 101.859 53.2144 108.938 48.2102L117.999 61.0281L105.181 70.0889Z" fill="#231F20"/>
<path d="M160.205 11.9668C165.209 19.046 163.527 28.8413 156.447 33.8454L147.387 21.0275L160.205 11.9668Z" fill="#231F20"/>
<path d="M156.464 33.8447L147.402 21.0276L108.95 48.2127L118.012 61.0298L156.464 33.8447Z" fill="#231F20"/>
<path d="M146.533 39.3163C151.2 46.6224 149.061 56.328 141.755 60.9952L133.304 47.7671L146.533 39.3163Z" fill="#231F20"/>
<path d="M137.974 45.9062C142.641 53.2123 140.502 62.9179 133.197 67.5851L124.746 54.357L137.974 45.9062Z" fill="#C7EAFB"/>
<path d="M129.619 50.7731C134.286 58.0791 132.147 67.7847 124.841 72.4519L116.391 59.2238L129.619 50.7731Z" fill="#231F20"/>
<path d="M120.99 57.3033C125.657 64.6094 123.518 74.315 116.212 78.9822L107.762 65.7541L120.99 57.3033Z" fill="#C7EAFB"/>
<path d="M76.7515 70.076C81.7557 62.9968 80.0735 53.2015 72.9943 48.1974L63.9336 61.0153L76.7515 70.076Z" fill="#231F20"/>
<path d="M114.592 52.5073H67.4688V76.0684H114.592V52.5073Z" fill="#2D2D2D"/>
<path d="M114.592 76.0687H67.4688V99.6298H114.592V76.0687Z" fill="#2D2D2D"/>
<path d="M91.022 76.0691C104.034 76.0691 114.583 65.5204 114.583 52.508C114.583 39.4956 104.034 28.9469 91.022 28.9469C78.0096 28.9469 67.4609 39.4956 67.4609 52.508C67.4609 65.5204 78.0096 76.0691 91.022 76.0691Z" fill="#2D2D2D"/>
<path d="M91.0298 123.191C104.042 123.191 114.591 112.642 114.591 99.6298C114.591 86.6174 104.042 76.0687 91.0298 76.0687C78.0174 76.0687 67.4688 86.6174 67.4688 99.6298C67.4688 112.642 78.0174 123.191 91.0298 123.191Z" fill="#2D2D2D"/>
<path d="M81.0069 50.4525C84.6395 50.4525 87.5842 47.5078 87.5842 43.8752C87.5842 40.2427 84.6395 37.298 81.0069 37.298C77.3744 37.298 74.4297 40.2427 74.4297 43.8752C74.4297 47.5078 77.3744 50.4525 81.0069 50.4525Z" fill="white"/>
<path d="M81.0117 47.164C82.8282 47.164 84.3007 45.6914 84.3007 43.875C84.3007 42.0585 82.8282 40.5859 81.0117 40.5859C79.1952 40.5859 77.7227 42.0585 77.7227 43.875C77.7227 45.6914 79.1952 47.164 81.0117 47.164Z" fill="#231F20"/>
<path d="M78.7666 43.4426C80.1975 43.4426 81.3574 42.2827 81.3574 40.8518C81.3574 39.4209 80.1975 38.261 78.7666 38.261C77.3357 38.261 76.1758 39.4209 76.1758 40.8518C76.1758 42.2827 77.3357 43.4426 78.7666 43.4426Z" fill="white"/>
<path d="M78.0279 65.5817C83.3525 65.5817 87.669 61.2652 87.669 55.9405C87.669 50.6159 83.3525 46.2994 78.0279 46.2994C72.7032 46.2994 68.3867 50.6159 68.3867 55.9405C68.3867 61.2652 72.7032 65.5817 78.0279 65.5817Z" fill="#2D2D2D"/>
<path d="M101.034 50.4529C104.667 50.4529 107.612 47.5081 107.612 43.8756C107.612 40.2431 104.667 37.2983 101.034 37.2983C97.4018 37.2983 94.457 40.2431 94.457 43.8756C94.457 47.5081 97.4018 50.4529 101.034 50.4529Z" fill="white"/>
<path d="M101.039 47.1644C102.856 47.1644 104.328 45.6918 104.328 43.8753C104.328 42.0588 102.856 40.5863 101.039 40.5863C99.2225 40.5863 97.75 42.0588 97.75 43.8753C97.75 45.6918 99.2225 47.1644 101.039 47.1644Z" fill="#231F20"/>
<path d="M98.7978 43.4428C100.229 43.4428 101.389 42.2829 101.389 40.852C101.389 39.4212 100.229 38.2612 98.7978 38.2612C97.367 38.2612 96.207 39.4212 96.207 40.852C96.207 42.2829 97.367 43.4428 98.7978 43.4428Z" fill="white"/>
<path d="M104.016 65.5818C109.341 65.5818 113.657 61.2654 113.657 55.9407C113.657 50.616 109.341 46.2996 104.016 46.2996C98.6915 46.2996 94.375 50.616 94.375 55.9407C94.375 61.2654 98.6915 65.5818 104.016 65.5818Z" fill="#2D2D2D"/>
<path fill-rule="evenodd" clip-rule="evenodd" d="M128.008 57.3825C131.042 57.3825 133.502 54.9231 133.502 51.8892C133.502 48.8553 131.042 46.3958 128.008 46.3958C127.871 46.3958 127.735 46.4008 127.6 46.4107C130.228 46.804 132.243 49.0706 132.243 51.8078C132.243 54.7934 129.845 57.2191 126.871 57.2646C127.238 57.3419 127.618 57.3825 128.008 57.3825ZM128.008 59.3818C132.146 59.3818 135.501 56.0273 135.501 51.8892C135.501 47.7511 132.146 44.3965 128.008 44.3965C123.87 44.3965 120.516 47.7511 120.516 51.8892C120.516 53.2924 120.901 54.6056 121.573 55.7284H110.453V56.1939H105.07V57.1564H110.453V57.1564H105.07V58.1188H110.453V59.3809H127.374V59.3553C127.583 59.3729 127.795 59.3818 128.008 59.3818ZM121.991 57.5546H123.105L123.105 57.5547H121.991V57.5546ZM126.817 55.2658C128.712 55.2491 130.244 53.7073 130.244 51.8078C130.244 49.9465 128.773 48.4287 126.931 48.3526C128.304 48.8891 129.276 50.225 129.276 51.788C129.276 53.394 128.249 54.7601 126.817 55.2658ZM127.277 51.788C127.277 52.7201 126.521 53.4757 125.589 53.4757C124.657 53.4757 123.902 52.7201 123.902 51.788C123.902 50.856 124.657 50.1004 125.589 50.1004C126.521 50.1004 127.277 50.856 127.277 51.788Z" fill="#FEF138"/>
<mask id="mask0_2_4983" style="mask-type:alpha" maskUnits="userSpaceOnUse" x="105" y="44" width="31" height="16">
<path fill-rule="evenodd" clip-rule="evenodd" d="M128.004 57.3826C131.038 57.3826 133.498 54.9231 133.498 51.8892C133.498 48.8553 131.038 46.3959 128.004 46.3959C127.867 46.3959 127.731 46.4009 127.597 46.4108C130.224 46.8043 132.239 49.0707 132.239 51.8077C132.239 54.7936 129.841 57.2193 126.866 57.2645C127.233 57.3419 127.614 57.3826 128.004 57.3826ZM128.004 59.3819C132.142 59.3819 135.497 56.0273 135.497 51.8892C135.497 47.7511 132.142 44.3965 128.004 44.3965C123.866 44.3965 120.512 47.7511 120.512 51.8892C120.512 53.2924 120.897 54.6056 121.569 55.7283H110.453V56.194H105.066V57.1564V57.1564V58.1188H110.453V59.3808H127.374V59.3557C127.582 59.3731 127.792 59.3819 128.004 59.3819ZM121.987 57.5545H123.101L123.101 57.5546H121.987V57.5545ZM126.813 55.2657C128.709 55.2488 130.24 53.7071 130.24 51.8077C130.24 49.9463 128.769 48.4284 126.926 48.3526C128.3 48.889 129.272 50.2249 129.272 51.7881C129.272 53.3939 128.246 54.7599 126.813 55.2657ZM127.273 51.7881C127.273 52.7202 126.517 53.4757 125.585 53.4757C124.653 53.4757 123.898 52.7202 123.898 51.7881C123.898 50.856 124.653 50.1005 125.585 50.1005C126.517 50.1005 127.273 50.856 127.273 51.7881Z" fill="#FEF138"/>
</mask>
<g mask="url(#mask0_2_4983)">
<circle cx="105.68" cy="58.6371" r="1.34833" fill="#FF7EF2"/>
<circle cx="107.977" cy="55.2698" r="1.34833" fill="#FF7EF2"/>
<circle cx="112.309" cy="59.15" r="1.34833" fill="#FF7EF2"/>
<circle cx="117.989" cy="59.15" r="1.34833" fill="#FF7EF2"/>
<circle cx="114.591" cy="55.3982" r="1.34833" fill="#FF7EF2"/>
<circle cx="121.27" cy="56.1798" r="1.34833" fill="#FF7EF2"/>
<circle cx="123.399" cy="57.9657" r="1.34833" fill="#FF7EF2"/>
<circle cx="126.676" cy="56.454" r="1.34833" fill="#FF7EF2"/>
<circle cx="124.809" cy="46.3003" r="1.34833" fill="#FF7EF2"/>
<circle cx="121.582" cy="50.9477" r="0.941602" fill="#FF7EF2"/>
<circle cx="123.563" cy="54.1646" r="0.941602" fill="#FF7EF2"/>
<circle cx="127.617" cy="50.1561" r="0.941602" fill="#FF7EF2"/>
<circle cx="129.317" cy="47.9006" r="0.941602" fill="#FF7EF2"/>
<circle cx="134.559" cy="50.4524" r="0.941602" fill="#FF7EF2"/>
<circle cx="133.024" cy="55.6762" r="0.941602" fill="#FF7EF2"/>
</g>
<path d="M82.4884 58.1189C82.4884 63.849 86.7764 68.4943 92.0656 68.4943L109.882 58.1183L82.4884 58.1183L82.4884 58.1189Z" fill="#C7EAFB"/>
<path d="M90.6285 48.227C85.3844 48.9159 81.738 54.0801 82.4843 59.7614L109.644 56.1936L90.6285 48.2264L90.6285 48.227Z" fill="#6E00FF"/>
<rect x="109.422" y="55.6838" width="1.07974" height="3.69737" fill="#FF7EF2"/>
<path d="M116.551 36.5165C116.421 36.1929 116.548 35.8229 116.849 35.647L121.971 32.6554C122.379 32.4169 122.903 32.6247 123.037 33.0782L123.504 34.6597C123.622 35.0589 123.382 35.4755 122.977 35.5738L117.37 36.9372C117.03 37.0197 116.682 36.8405 116.551 36.5165V36.5165Z" fill="#FFE500"/>
<path d="M117.25 29.5287C117.014 29.2727 116.992 28.8855 117.198 28.6046L123.819 19.5625C124.112 19.1623 124.71 19.1656 124.999 19.569L126.584 21.7852C126.802 22.0901 126.754 22.5106 126.472 22.7574L118.446 29.7789C118.148 30.0389 117.698 30.0147 117.43 29.7243L117.25 29.5287Z" fill="#FFE500"/>
<path d="M122.652 41.2147C122.624 40.8442 122.879 40.5105 123.244 40.4424L127.233 39.6988C127.68 39.6154 128.094 39.9582 128.095 40.4135L128.098 41.9511C128.099 42.4109 127.679 42.7566 127.228 42.6673L123.237 41.8765C122.915 41.8128 122.676 41.5412 122.652 41.2147V41.2147Z" fill="#FFE500"/>
<path d="M104.214 55.6307C98.3349 55.6307 93.3141 51.5957 92.276 46.0371C92.1657 45.4485 91.6386 45.0213 91.0217 45.0213C90.4048 45.0213 89.877 45.4485 89.7674 46.0371C88.7285 51.5957 83.7085 55.6307 77.8296 55.6307C74.5925 55.6307 71.5472 54.4161 69.2547 52.2105C66.9623 50.0048 65.6992 47.0748 65.6992 43.9602C65.6992 37.5251 71.1406 32.2897 77.8289 32.2897H104.214C110.902 32.2897 116.343 37.5251 116.343 43.9602C116.343 47.0748 115.081 50.0048 112.789 52.2105C110.496 54.4161 107.451 55.6307 104.214 55.6307Z" fill="#D4D4D4" fill-opacity="0.3"/>
<path d="M104.214 55.6307C98.3349 55.6307 93.3141 51.5957 92.276 46.0371C92.1657 45.4485 91.6386 45.0213 91.0217 45.0213C90.4049 45.0213 89.877 45.4485 89.7674 46.0371C88.7285 51.5957 83.7085 55.6307 77.8296 55.6307C74.5925 55.6307 71.5472 54.4161 69.2547 52.2105C66.9623 50.0048 65.6992 47.0748 65.6992 43.9602C65.6992 37.5251 71.1406 32.2897 77.8289 32.2897H104.214C110.902 32.2897 116.343 37.5251 116.343 43.9602C116.343 47.0748 115.081 50.0048 112.789 52.2105C110.496 54.4161 107.451 55.6307 104.214 55.6307ZM91.021 42.8991C92.7068 42.8991 94.1471 44.0613 94.4464 45.6622C95.2955 50.2085 99.4032 53.5085 104.213 53.5085C106.861 53.5085 109.352 52.5146 111.229 50.7101C113.105 48.9055 114.137 46.5082 114.137 43.9602C114.137 38.6951 109.685 34.4118 104.213 34.4118H77.8289C72.3566 34.4118 67.9049 38.6951 67.9049 43.9602C67.9049 46.5082 68.9379 48.9048 70.8134 50.7101C72.689 52.5153 75.1806 53.5085 77.8289 53.5085C82.6387 53.5085 86.7464 50.2085 87.5956 45.6622C87.8948 44.0613 89.3351 42.8991 91.021 42.8991Z" fill="#FFCC01"/>
<path d="M186.396 135.814H0V152.581H186.396V135.814Z" fill="#8ADD00"/>
<path d="M23.6609 80.7192H10.1719V82.218H23.6609V80.7192Z" fill="#AFA2FB"/>
<path d="M33.2187 87.4633H10.7383V90.086H33.2187V87.4633Z" fill="#0A6FCB"/>
<path d="M33.2187 87.4634H10.7383V84.8627H22.2402L23.0199 79.3113L29.9281 76.4105L33.2187 87.4634Z" fill="#AFA2FB"/>
<path d="M19.154 52.0628L15.4922 51.0079L14.5218 54.3766L18.1836 55.4315L19.154 52.0628Z" fill="#0A6FCB"/>
<path d="M20.3645 54.5646L13.1289 52.4802L9.36626 65.5419L16.6019 67.6263L20.3645 54.5646Z" fill="#AFA2FB"/>
<path d="M18.3255 64.7968C20.0327 64.7968 21.4168 63.4127 21.4168 61.7054C21.4168 59.9981 20.0327 58.6141 18.3255 58.6141C16.6182 58.6141 15.2341 59.9981 15.2341 61.7054C15.2341 63.4127 16.6182 64.7968 18.3255 64.7968Z" fill="#0A6FCB"/>
<path d="M22.8124 80.5325V78.3522C27.3428 78.3522 31.0288 74.8345 31.0288 70.51C31.0288 66.1856 27.3428 62.6679 22.8124 62.6679H15.793V60.4875H22.8124C25.5831 60.4875 28.1903 61.5249 30.1533 63.4083C32.1277 65.303 33.2153 67.8248 33.2153 70.51C33.2153 73.1953 32.1277 75.7171 30.1533 77.6118C28.1903 79.4952 25.5831 80.5325 22.8124 80.5325Z" fill="#0A6FCB"/>
<path d="M169.349 90.0856H165.789V135.796H169.349V90.0856Z" fill="#72B503"/>
<path d="M9.36799 90.0857H5.80859V135.796H9.36799V90.0857Z" fill="#72B503"/>
<path d="M163.159 73.4914V67.3522L163.967 65.5452H156.761L157.367 67.3522V73.4914C154.719 74.629 152.863 77.2798 152.863 80.3678C152.863 84.4935 156.176 87.8382 160.263 87.8382C164.35 87.8382 167.663 84.4935 167.663 80.3678C167.663 77.2798 165.807 74.6295 163.16 73.4914H163.159Z" fill="#E2F4FD"/>
<path d="M160.174 55.9924L166.732 47.187H153.617L160.174 55.9924Z" fill="#E2F4FD"/>
<path d="M163.538 51.3082H156.605L159.149 54.755V58.4276L160.994 56.7094V54.755L163.538 51.3082Z" fill="#8CEB4D"/>
<path d="M174.407 90.0856H0V97.017H174.407V90.0856Z" fill="#98DA2A"/>
<path d="M167.664 80.3447C167.664 84.4835 164.351 87.8386 160.264 87.8386C156.177 87.8386 152.863 84.4835 152.863 80.3447H167.663H167.664Z" fill="#8CEB4D"/>
<path d="M170.664 87.6505H147.809V89.8986H170.664V87.6505Z" fill="#5FBCFF"/>
<path d="M147.809 49.2468V89.3368H148.933V49.2468H147.809Z" fill="#5FBCFF"/>
<path d="M170.285 54.1179H143.684V55.2419H170.285V54.1179Z" fill="#5FBCFF"/>
<path d="M148.37 56.9292C149.508 56.9292 150.431 56.0064 150.431 54.868C150.431 53.7296 149.508 52.8068 148.37 52.8068C147.231 52.8068 146.309 53.7296 146.309 54.868C146.309 56.0064 147.231 56.9292 148.37 56.9292Z" fill="#0A6FCB"/>
<path d="M161.32 60.5822L160.27 58.8192V58.8016L160.265 58.8104L160.26 58.803V58.8174L159.211 60.5805C158.992 60.9475 158.992 61.3999 159.211 61.7669C159.428 62.1313 159.827 62.3567 160.26 62.3602V62.3619C160.697 62.3619 161.101 62.1357 161.319 61.7687C161.537 61.4017 161.537 60.9492 161.319 60.5822H161.32Z" fill="#8CEB4D"/>
<path d="M155.581 81.6567C156.357 81.6567 156.987 80.9856 156.987 80.1576C156.987 79.3297 156.357 78.6586 155.581 78.6586C154.805 78.6586 154.176 79.3297 154.176 80.1576C154.176 80.9856 154.805 81.6567 155.581 81.6567Z" fill="#9CD9F8"/>
<path d="M157.824 78.4717C158.289 78.4717 158.667 78.0523 158.667 77.5348C158.667 77.0174 158.289 76.5979 157.824 76.5979C157.358 76.5979 156.98 77.0174 156.98 77.5348C156.98 78.0523 157.358 78.4717 157.824 78.4717Z" fill="#9CD9F8"/>
<path d="M100.734 92.6372L96.886 86.0389V81.7807L97.3225 80.2509H92.527L92.9636 81.7807V86.0389L89.1157 92.6372C88.5871 93.5435 89.248 94.6766 90.3048 94.6766H99.5448C100.602 94.6766 101.262 93.5439 100.734 92.6372Z" fill="#5FBCFF"/>
<circle cx="94.9263" cy="87.1093" r="12.52" fill="url(#paint0_radial_2_4983)" fill-opacity="0.7"/>
<path d="M94.9272 84.5125L90.0923 92.3276C89.6523 93.0385 90.2024 93.9275 91.0819 93.9275H98.7725C99.6525 93.9275 100.202 93.0389 99.7622 92.3276L94.9272 84.5125Z" fill="#5FBCFF"/>
<path d="M94.9272 84.5125L90.0923 92.3276C89.6523 93.0385 90.2024 93.9275 91.0819 93.9275H98.7725C99.6525 93.9275 100.202 93.0389 99.7622 92.3276L94.9272 84.5125Z" fill="#BA85FF"/>
<rect x="93.75" y="81.932" width="2.35669" height="4.45434" fill="#BA85FF"/>
<path d="M101.323 74.8495L101.018 76.7256L102.718 77.5916L100.841 77.8875L100.544 79.7676L99.6797 78.0749L97.7943 78.3668L99.1408 77.0215L98.2762 75.3288L99.9763 76.1948L101.323 74.8495Z" fill="#FFE500"/>
<path d="M89.5491 81.748L90.2355 82.5913L91.2519 82.1936L90.6648 83.1087L91.3558 83.9502L90.3035 83.6764L89.7116 84.5934L89.6483 83.5064L88.596 83.2327L89.6124 82.835L89.5491 81.748Z" fill="#FFE500"/>
<path d="M89.2637 70.4376L90.4518 71.8972L92.2113 71.2089L91.1949 72.793L92.3911 74.2495L90.5696 73.7756L89.5451 75.3629L89.4354 73.4813L87.6139 73.0075L89.3734 72.3191L89.2637 70.4376Z" fill="#FFE500"/>
<rect width="28.8624" height="4.73113" rx="0.79795" transform="matrix(-0.455719 -0.890124 -0.890124 0.455719 161.652 30.4431)" fill="#FA78C3"/>
<path d="M93.8026 7.91628L96.9456 7.96473L96.7529 6.67296L94.866 6.64357L94.4129 4.1368L91.8979 4.09777L91.4445 1.59078L88.3015 1.54188L88.4939 2.83388L90.3813 2.86326L90.8346 5.37025L93.3495 5.40951L93.8026 7.91628Z" fill="#FF5A00"/>
<path d="M137.24 25.836L140.383 25.8844L140.19 24.5926L138.304 24.5633L137.85 22.0565L135.335 22.0174L134.882 19.5105L131.739 19.4616L131.931 20.7536L133.819 20.7829L134.272 23.2899L136.787 23.3292L137.24 25.836Z" fill="#FF5A00"/>
<path d="M74.1652 20.0502C75.691 20.0502 76.928 18.8307 76.928 17.3263C76.928 15.822 75.691 14.6024 74.1652 14.6024C72.6394 14.6024 71.4023 15.822 71.4023 17.3263C71.4023 18.8307 72.6394 20.0502 74.1652 20.0502Z" fill="#00C800"/>
<path d="M51.8833 29.8939L53.2269 27.0522L51.9711 26.6935L51.1642 28.3994L48.6944 27.7756L47.619 30.0494L45.1489 29.4257L43.8048 32.2673L45.0608 32.6262L45.8679 30.9199L48.338 31.5437L49.4135 29.2701L51.8833 29.8939Z" fill="#00C800"/>
<defs>
<radialGradient id="paint0_radial_2_4983" cx="0" cy="0" r="1" gradientUnits="userSpaceOnUse" gradientTransform="translate(94.9263 87.1093) rotate(90) scale(12.52)">
<stop stop-color="#C5AFF5"/>
<stop offset="1" stop-color="#C5AFF5" stop-opacity="0"/>
</radialGradient>
</defs>
</svg>
