<svg width="191" height="140" viewBox="0 0 191 140" fill="none" xmlns="http://www.w3.org/2000/svg">
<path d="M71.1072 47.5292C74.1026 60.8521 65.7309 74.081 52.408 77.0764C39.085 80.0718 25.8561 71.7002 22.8607 58.3772L71.1072 47.5292Z" fill="#231F20"/>
<path d="M22.8593 58.3771C24.6568 66.3708 32.5939 71.3937 40.5876 69.5962L37.333 55.1226L22.8593 58.3771Z" fill="#231F20"/>
<path d="M84.0036 59.8297L80.7501 45.3559L37.3282 55.1164L40.5817 69.5901L84.0036 59.8297Z" fill="#231F20"/>
<path d="M50.7094 66.106C52.8794 74.0069 61.0429 78.6525 68.9434 76.4829L65.0149 62.1774L50.7094 66.106Z" fill="#231F20"/>
<path d="M60.7445 64.2781C62.9145 72.179 71.0781 76.8246 78.9786 74.655L75.05 60.3495L60.7445 64.2781Z" fill="#6E00FF"/>
<path d="M40.0453 72.4157C42.2153 80.3166 50.3788 84.9622 58.2794 82.7926L54.3508 68.4871L40.0453 72.4157Z" fill="#6E00FF"/>
<path d="M69.4554 61.4936C71.6255 69.3945 79.789 74.0401 87.6895 71.8705L83.7609 57.565L69.4554 61.4936Z" fill="#231F20"/>
<path d="M79.5023 59.5788C81.6723 67.4797 89.8359 72.1252 97.7364 69.9557L93.8078 55.6502L79.5023 59.5788Z" fill="#6E00FF"/>
<path d="M59.5678 39.5525C62.7797 53.8383 53.803 68.0234 39.5171 71.2353C25.2313 74.4471 11.0462 65.4704 7.83434 51.1846L59.5678 39.5525Z" fill="#231F20"/>
<path d="M7.83491 51.1852C9.76232 59.7566 18.2731 65.1426 26.8445 63.2152L23.3547 47.6954L7.83491 51.1852Z" fill="#231F20"/>
<path d="M73.395 52.7415L69.9064 37.2216L23.3461 47.6875L26.8347 63.2074L73.395 52.7415Z" fill="#231F20"/>
<path d="M48.4592 57.5117C50.786 65.9837 59.5396 70.965 68.0111 68.6386L63.7986 53.2992L48.4592 57.5117Z" fill="#C7EAFB"/>
<path d="M57.799 54.5265C60.1258 62.9985 68.8794 67.9798 77.3509 65.6534L73.1384 50.314L57.799 54.5265Z" fill="#231F20"/>
<path d="M68.5646 52.4723C70.8915 60.9443 79.645 65.9256 88.1166 63.5992L83.9041 48.2598L68.5646 52.4723Z" fill="#C7EAFB"/>
<path d="M60.1095 28.1155C60.1072 28.4768 59.8403 28.7819 59.4824 28.8322L50.4736 30.099C50.0052 30.1648 49.5993 29.7739 49.6474 29.3034L49.9603 26.2432C50.0026 25.8291 50.3827 25.5346 50.7942 25.597L59.4933 26.9156C59.8511 26.9699 60.1149 27.2786 60.1126 27.6406L60.1095 28.1155Z" fill="#FF9900"/>
<path d="M52.9744 21.9179C52.8661 22.2627 52.5214 22.4759 52.1646 22.4189L43.1808 20.9846C42.7138 20.91 42.4405 20.4172 42.6247 19.9816L43.8224 17.1481C43.9844 16.7647 44.4342 16.5948 44.8093 16.7752L52.7377 20.59C53.0638 20.7469 53.2253 21.1195 53.1168 21.4649L52.9744 21.9179Z" fill="#FF9900"/>
<path d="M65.4242 22.1154C65.2125 22.3552 64.8628 22.4159 64.5825 22.2617L55.9022 17.4825C55.4567 17.2372 55.3932 16.6225 55.7792 16.2914L57.1792 15.0904C57.4496 14.8585 57.8481 14.8561 58.1213 15.0848L65.3508 21.1392C65.6455 21.386 65.6787 21.8273 65.4242 22.1154V22.1154Z" fill="#FF9900"/>
<path d="M64.6218 29.0325C64.8851 29.2946 64.9091 29.7128 64.6774 30.0032L62.1016 33.2321C61.8177 33.5879 61.2806 33.5992 60.9821 33.2555L59.9453 32.062C59.6437 31.7148 59.7352 31.1786 60.1348 30.9511L63.7339 28.9023C64.0185 28.7403 64.3761 28.7881 64.6082 29.019L64.6218 29.0325Z" fill="#FF9900"/>
<path d="M44.6347 93.8316L41.3556 95.8694L43.2303 98.8861L46.5094 96.8483L44.6347 93.8316Z" fill="#0A6FCB"/>
<path d="M37.6896 59.4719C40.0165 67.9439 48.77 72.9252 57.2416 70.5989L53.0291 55.2594L37.6896 59.4719Z" fill="#231F20"/>
<path d="M25.4045 64.6998C27.7313 73.1718 36.4849 78.1531 44.9564 75.8268L40.7439 60.4873L25.4045 64.6998Z" fill="#C7EAFB"/>
<path d="M114.256 48.711C111.261 62.034 119.632 75.2629 132.955 78.2583C146.278 81.2537 159.507 72.882 162.503 59.5591L114.256 48.711Z" fill="#231F20"/>
<path d="M162.504 59.559C160.706 67.5527 152.769 72.5756 144.776 70.7781L148.03 56.3045L162.504 59.559Z" fill="#231F20"/>
<path d="M101.36 61.0116L104.613 46.5378L148.035 56.2983L144.782 70.772L101.36 61.0116Z" fill="#231F20"/>
<path d="M134.654 67.2879C132.484 75.1888 124.32 79.8344 116.42 77.6648L120.348 63.3593L134.654 67.2879Z" fill="#231F20"/>
<path d="M124.619 65.46C122.449 73.3609 114.285 78.0065 106.385 75.8369L110.313 61.5314L124.619 65.46Z" fill="#6E00FF"/>
<path d="M146.88 70.9607C144.71 78.8617 136.547 83.5072 128.646 81.3377L132.575 67.0322L146.88 70.9607Z" fill="#6E00FF"/>
<path d="M115.908 62.6755C113.738 70.5764 105.574 75.2219 97.6738 73.0524L101.602 58.7469L115.908 62.6755Z" fill="#231F20"/>
<path d="M105.861 60.7607C103.691 68.6616 95.5274 73.3071 87.6269 71.1376L91.5555 56.8321L105.861 60.7607Z" fill="#6E00FF"/>
<path d="M125.795 40.7344C122.584 55.0202 131.56 69.2053 145.846 72.4171C160.132 75.629 174.317 66.6523 177.529 52.3664L125.795 40.7344Z" fill="#231F20"/>
<path d="M177.528 52.3671C175.601 60.9385 167.09 66.3244 158.519 64.397L162.009 48.8773L177.528 52.3671Z" fill="#231F20"/>
<path d="M111.968 53.9234L115.457 38.4035L162.017 48.8694L158.529 64.3893L111.968 53.9234Z" fill="#231F20"/>
<path d="M147.674 60.6538C145.347 69.1258 136.593 74.1071 128.122 71.7807L132.334 56.4413L147.674 60.6538Z" fill="#231F20"/>
<path d="M136.818 58.7006C134.491 67.1725 125.738 72.1538 117.266 69.8275L121.479 54.4881L136.818 58.7006Z" fill="#C7EAFB"/>
<path d="M159.838 64.0548C157.511 72.5268 148.757 77.5081 140.286 75.1817L144.498 59.8423L159.838 64.0548Z" fill="#C7EAFB"/>
<path d="M127.564 55.7084C125.237 64.1803 116.484 69.1616 108.012 66.8353L112.225 51.4959L127.564 55.7084Z" fill="#231F20"/>
<path d="M116.799 53.6542C114.472 62.1261 105.718 67.1074 97.2467 64.7811L101.459 49.4417L116.799 53.6542Z" fill="#C7EAFB"/>
<path d="M125.369 27.9716C125.371 28.325 125.632 28.6233 125.982 28.6725L131.946 29.5111C132.414 29.577 132.82 29.1861 132.772 28.7156L132.6 27.031C132.558 26.6169 132.178 26.3224 131.766 26.3848L125.974 27.2627C125.625 27.3157 125.367 27.6177 125.369 27.9716V27.9716Z" fill="#FF9900"/>
<path d="M127.939 23.2973C128.151 23.5371 128.501 23.5978 128.781 23.4436L137.461 18.6644C137.907 18.4191 137.97 17.8044 137.584 17.4733L136.184 16.2723C135.914 16.0404 135.515 16.038 135.242 16.2667L128.012 22.3211C127.718 22.5679 127.685 23.0092 127.939 23.2973V23.2973Z" fill="#FF9900"/>
<path d="M120.741 30.2144C120.478 30.4765 120.454 30.8947 120.686 31.1851L123.262 34.414C123.546 34.7698 124.083 34.7811 124.381 34.4374L125.418 33.2439C125.72 32.8967 125.628 32.3605 125.228 32.133L121.629 30.0842C121.345 29.9222 120.987 29.97 120.755 30.2009L120.741 30.2144Z" fill="#FF9900"/>
<path d="M140.729 95.0135L144.008 97.0513L142.133 100.068L138.854 98.0302L140.729 95.0135Z" fill="#0A6FCB"/>
<path d="M91.2546 121.158H87.0974L82.3188 90.0971C82.2471 89.6309 81.8109 89.3112 81.3447 89.3829C80.8786 89.4546 80.5589 89.8908 80.6306 90.3569L85.3693 121.158H76.5849C76.1131 121.158 75.7305 121.541 75.7305 122.013C75.7305 122.485 76.1131 122.867 76.5849 122.867H86.3614C86.3614 122.867 86.3633 122.867 86.3639 122.867C86.3651 122.867 86.3657 122.867 86.367 122.867H91.2553C91.727 122.867 92.1096 122.485 92.1096 122.013C92.1096 121.541 91.727 121.158 91.2553 121.158L91.2546 121.158Z" fill="#2D2D2D"/>
<path d="M86.1802 121.449C84.5317 117.553 80.0366 115.73 76.14 117.379" stroke="#2D2D2D" stroke-width="2.07467" stroke-linecap="round"/>
<path d="M90.7921 116.953C88.5878 116.859 86.7242 118.569 86.6297 120.773" stroke="#2D2D2D" stroke-width="1.67569" stroke-linecap="round"/>
<path d="M112.168 121.203L103.383 121.147L108.316 90.3763C108.39 89.9106 108.073 89.4723 107.608 89.3977C107.142 89.3231 106.704 89.6401 106.629 90.1058L101.655 121.136L97.498 121.11C97.0263 121.107 96.6413 121.487 96.6383 121.959C96.6353 122.43 97.0155 122.815 97.4873 122.818L102.375 122.849C102.375 122.849 102.377 122.849 102.379 122.849C102.379 122.849 102.38 122.849 102.381 122.849L112.157 122.911C112.629 122.914 113.014 122.534 113.017 122.062C113.02 121.59 112.64 121.205 112.168 121.202L112.168 121.203Z" fill="#2D2D2D"/>
<path d="M108.048 56.2595C102.977 49.0854 104.681 39.1589 111.855 34.0878L121.038 47.0774L108.048 56.2595Z" fill="#231F20"/>
<path d="M79.2357 56.2468C84.3069 49.0728 82.6023 39.1463 75.4282 34.0751L66.2461 47.0647L79.2357 56.2468Z" fill="#231F20"/>
<path d="M117.582 38.4425H69.8281V62.3192H117.582V38.4425Z" fill="#2D2D2D"/>
<path d="M117.582 62.3199H69.8281V86.1967H117.582V62.3199Z" fill="#2D2D2D"/>
<path d="M93.697 62.3193C106.884 62.3193 117.574 51.6294 117.574 38.4426C117.574 25.2559 106.884 14.5659 93.697 14.5659C80.5103 14.5659 69.8203 25.2559 69.8203 38.4426C69.8203 51.6294 80.5103 62.3193 93.697 62.3193Z" fill="#2D2D2D"/>
<path d="M93.7048 110.073C106.892 110.073 117.582 99.3834 117.582 86.1967C117.582 73.0099 106.892 62.3199 93.7048 62.3199C80.5181 62.3199 69.8281 73.0099 69.8281 86.1967C69.8281 99.3834 80.5181 110.073 93.7048 110.073Z" fill="#2D2D2D"/>
<path d="M83.5439 36.3593C87.2248 36.3593 90.2088 33.3753 90.2088 29.6944C90.2088 26.0134 87.2248 23.0294 83.5439 23.0294C79.8629 23.0294 76.8789 26.0134 76.8789 29.6944C76.8789 33.3753 79.8629 36.3593 83.5439 36.3593Z" fill="white"/>
<path d="M83.5476 34.5961C85.3883 34.5961 86.8804 33.104 86.8804 31.2633C86.8804 29.4227 85.3883 27.9305 83.5476 27.9305C81.707 27.9305 80.2148 29.4227 80.2148 31.2633C80.2148 33.104 81.707 34.5961 83.5476 34.5961Z" fill="#231F20"/>
<path d="M81.2694 30.8239C82.7191 30.8239 83.8942 29.6487 83.8942 28.1991C83.8942 26.7494 82.7191 25.5742 81.2694 25.5742C79.8197 25.5742 78.6445 26.7494 78.6445 28.1991C78.6445 29.6487 79.8197 30.8239 81.2694 30.8239Z" fill="white"/>
<path d="M80.532 51.692C85.928 51.692 90.3023 47.3177 90.3023 41.9218C90.3023 36.5258 85.928 32.1515 80.532 32.1515C75.136 32.1515 70.7617 36.5258 70.7617 41.9218C70.7617 47.3177 75.136 51.692 80.532 51.692Z" fill="#2D2D2D"/>
<path d="M103.841 36.3595C107.522 36.3595 110.506 33.3755 110.506 29.6945C110.506 26.0135 107.522 23.0295 103.841 23.0295C100.16 23.0295 97.1758 26.0135 97.1758 29.6945C97.1758 33.3755 100.16 36.3595 103.841 36.3595Z" fill="white"/>
<path d="M103.845 34.5961C105.685 34.5961 107.177 33.104 107.177 31.2633C107.177 29.4227 105.685 27.9305 103.845 27.9305C102.004 27.9305 100.512 29.4227 100.512 31.2633C100.512 33.104 102.004 34.5961 103.845 34.5961Z" fill="#231F20"/>
<path d="M101.566 30.8239C103.016 30.8239 104.191 29.6487 104.191 28.1991C104.191 26.7494 103.016 25.5742 101.566 25.5742C100.117 25.5742 98.9414 26.7494 98.9414 28.1991C98.9414 29.6487 100.117 30.8239 101.566 30.8239Z" fill="white"/>
<path d="M106.872 51.6921C112.268 51.6921 116.642 47.3178 116.642 41.9218C116.642 36.5258 112.268 32.1515 106.872 32.1515C101.476 32.1515 97.1016 36.5258 97.1016 41.9218C97.1016 47.3178 101.476 51.6921 106.872 51.6921Z" fill="#2D2D2D"/>
<path d="M119.56 22.2371C119.428 21.9093 119.557 21.5343 119.862 21.3561L125.062 18.3185C125.471 18.0799 125.995 18.2877 126.129 18.7413L126.608 20.3654C126.726 20.7646 126.486 21.1812 126.081 21.2796L120.39 22.6635C120.046 22.7471 119.692 22.5655 119.56 22.2371V22.2371Z" fill="#FF9900"/>
<path d="M120.343 15.0517C120.107 14.7957 120.086 14.4085 120.291 14.1276L130.041 0.812129C130.334 0.411906 130.933 0.415209 131.221 0.818643L133.863 4.51152C134.081 4.81636 134.032 5.23692 133.75 5.48371L121.98 15.7806C121.683 16.0407 121.233 16.0165 120.965 15.7261L120.343 15.0517Z" fill="#FF9900"/>
<path d="M136.992 34.1833C137.068 33.8197 137.406 33.5715 137.775 33.6073L141.887 34.0053C142.34 34.0492 142.642 34.4932 142.517 34.9308L142.082 36.4508C141.955 36.8929 141.456 37.1087 141.047 36.8978L137.367 34.9986C137.076 34.8484 136.921 34.5226 136.988 34.2021L136.992 34.1833Z" fill="#FF9900"/>
<path d="M93.8572 31.7135C88.6333 31.7135 84.3984 35.6227 84.3984 40.4446L93.8578 56.6868V31.7135H93.8572Z" fill="#C7EAFB"/>
<path d="M103.314 40.4446C103.314 35.6227 99.0793 31.7135 93.8555 31.7135V56.6868L103.315 40.4446H103.314Z" fill="#6E00FF"/>
<path d="M107.066 41.6078C101.109 41.6078 96.0206 37.5187 94.9685 31.8855C94.8568 31.289 94.3225 30.856 93.6974 30.856C93.0723 30.856 92.5373 31.289 92.4263 31.8855C91.3735 37.5187 86.286 41.6078 80.3283 41.6078C77.0477 41.6078 73.9616 40.3769 71.6384 38.1417C69.3152 35.9064 68.0352 32.9371 68.0352 29.7807C68.0352 23.2592 73.5495 17.9536 80.3276 17.9536H107.066C113.845 17.9536 119.359 23.2592 119.359 29.7807C119.359 32.9371 118.08 35.9064 115.756 38.1417C113.433 40.3769 110.347 41.6078 107.066 41.6078Z" fill="#D4D4D4" fill-opacity="0.3"/>
<path d="M107.066 41.6078C101.109 41.6078 96.0206 37.5187 94.9685 31.8855C94.8568 31.289 94.3225 30.856 93.6974 30.856C93.0723 30.856 92.5373 31.289 92.4263 31.8855C91.3735 37.5187 86.286 41.6078 80.3283 41.6078C77.0477 41.6078 73.9616 40.3769 71.6384 38.1417C69.3152 35.9064 68.0352 32.9371 68.0352 29.7807C68.0352 23.2592 73.5495 17.9536 80.3276 17.9536H107.066C113.845 17.9536 119.359 23.2592 119.359 29.7807C119.359 32.9371 118.08 35.9064 115.756 38.1417C113.433 40.3769 110.347 41.6078 107.066 41.6078ZM93.6967 28.7054C95.4051 28.7054 96.8648 29.8832 97.168 31.5055C98.0286 36.1129 102.191 39.4572 107.066 39.4572C109.75 39.4572 112.274 38.4499 114.175 36.6212C116.077 34.7924 117.123 32.3629 117.123 29.7807C117.123 24.445 112.611 20.1043 107.066 20.1043H80.3276C74.7819 20.1043 70.2704 24.445 70.2704 29.7807C70.2704 32.3629 71.3173 34.7917 73.218 36.6212C75.1187 38.4507 77.6438 39.4572 80.3276 39.4572C85.2019 39.4572 89.3647 36.1129 90.2253 31.5055C90.5285 29.8832 91.9882 28.7054 93.6967 28.7054Z" fill="#FFCC01"/>
<path d="M190.292 122.632H1.39453V139.624H190.292V122.632Z" fill="#C5C900"/>
<path d="M25.3757 66.7982H11.7068V68.317H25.3757V66.7982Z" fill="#AFA2FB"/>
<path d="M35.0589 73.6327H12.2773V76.2905H35.0589V73.6327Z" fill="#0A6FCB"/>
<path d="M35.0589 73.6327H12.2773V70.9972H23.9333L24.7235 65.3714L31.7242 62.4318L35.0589 73.6327Z" fill="#AFA2FB"/>
<path d="M20.7997 37.7571L17.0898 36.6884L16.1067 40.1013L19.8166 41.17L20.7997 37.7571Z" fill="#0A6FCB"/>
<path d="M22.0352 40.2924L14.7031 38.1803L10.8903 51.4161L18.2224 53.5283L22.0352 40.2924Z" fill="#AFA2FB"/>
<path d="M19.9645 50.6613C21.6945 50.6613 23.0969 49.2588 23.0969 47.5288C23.0969 45.7988 21.6945 44.3964 19.9645 44.3964C18.2345 44.3964 16.832 45.7988 16.832 47.5288C16.832 49.2588 18.2345 50.6613 19.9645 50.6613Z" fill="#0A6FCB"/>
<path d="M24.5158 66.6088V64.3993C29.1069 64.3993 32.8423 60.8344 32.8423 56.4521C32.8423 52.0697 29.1069 48.5048 24.5158 48.5048H17.4023V46.2953H24.5158C27.3237 46.2953 29.9657 47.3466 31.9551 49.2552C33.9559 51.1752 35.058 53.7308 35.058 56.4521C35.058 59.1733 33.9559 61.7288 31.9551 63.6489C29.9657 65.5575 27.3237 66.6088 24.5158 66.6088Z" fill="#0A6FCB"/>
<path d="M173.017 76.2904H169.41V122.613H173.017V76.2904Z" fill="#C5C900"/>
<path d="M10.8883 76.2904H7.28125V122.613H10.8883V76.2904Z" fill="#C5C900"/>
<path d="M166.742 59.4734V53.252L167.561 51.4208H160.258L160.872 53.252V59.4734C158.189 60.6263 156.309 63.3126 156.309 66.4419C156.309 70.623 159.666 74.0125 163.808 74.0125C167.949 74.0125 171.306 70.623 171.306 66.4419C171.306 63.3126 169.426 60.6268 166.743 59.4734H166.742Z" fill="#E2F4FD"/>
<path d="M163.715 41.7388L170.36 32.816H157.07L163.715 41.7388Z" fill="#E2F4FD"/>
<path d="M167.134 36.9926H160.109L162.687 40.4852V44.2067L164.556 42.4656V40.4852L167.134 36.9926Z" fill="#8CEB4D"/>
<path d="M178.141 76.2904H1.39453V83.3147H178.141V76.2904Z" fill="#C5C900"/>
<path d="M171.306 66.4188C171.306 70.6127 167.949 74.0127 163.808 74.0127C159.666 74.0127 156.309 70.6127 156.309 66.4188H171.306H171.306Z" fill="#8CEB4D"/>
<path d="M174.345 73.8226H151.184V76.1008H174.345V73.8226Z" fill="#5FBCFF"/>
<path d="M151.184 34.9046V75.5316H152.323V34.9046H151.184Z" fill="#5FBCFF"/>
<path d="M173.966 39.84H147.008V40.979H173.966V39.84Z" fill="#5FBCFF"/>
<path d="M151.752 42.688C152.906 42.688 153.841 41.753 153.841 40.5997C153.841 39.4463 152.906 38.5114 151.752 38.5114C150.599 38.5114 149.664 39.4463 149.664 40.5997C149.664 41.753 150.599 42.688 151.752 42.688Z" fill="#0A6FCB"/>
<path d="M164.877 46.3903L163.813 44.6041V44.5863L163.808 44.5952L163.803 44.5876V44.6023L162.74 46.3885C162.519 46.7603 162.519 47.2188 162.74 47.5906C162.96 47.9597 163.364 48.1881 163.803 48.1916V48.1934C164.246 48.1934 164.655 47.9642 164.876 47.5923C165.098 47.2205 165.098 46.7621 164.876 46.3903H164.877Z" fill="#8CEB4D"/>
<path d="M159.064 67.7474C159.851 67.7474 160.488 67.0674 160.488 66.2286C160.488 65.3898 159.851 64.7098 159.064 64.7098C158.278 64.7098 157.641 65.3898 157.641 66.2286C157.641 67.0674 158.278 67.7474 159.064 67.7474Z" fill="#9CD9F8"/>
<path d="M161.343 64.5202C161.814 64.5202 162.197 64.0952 162.197 63.5709C162.197 63.0467 161.814 62.6217 161.343 62.6217C160.871 62.6217 160.488 63.0467 160.488 63.5709C160.488 64.0952 160.871 64.5202 161.343 64.5202Z" fill="#9CD9F8"/>
<path d="M103.481 78.8752L99.582 72.1888V67.8739L100.024 66.3236H95.1649L95.6072 67.8739V72.1888L91.708 78.8752C91.1724 79.7935 91.8421 80.9418 92.913 80.9418H102.276C103.348 80.9418 104.017 79.7939 103.481 78.8752Z" fill="#E2F4FD"/>
<circle cx="97.5945" cy="77.1764" r="7.82107" fill="url(#paint0_radial_2_4811)"/>
<path d="M97.5988 70.6422L92.6998 78.5608C92.254 79.2811 92.8113 80.1818 93.7026 80.1818H101.495C102.387 80.1818 102.944 79.2815 102.498 78.5608L97.5988 70.6422Z" fill="#5FBCFF"/>
<path d="M97.5988 70.6422L92.6998 78.5608C92.254 79.2811 92.8113 80.1818 93.7026 80.1818H101.495C102.387 80.1818 102.944 79.2815 102.498 78.5608L97.5988 70.6422Z" fill="#BA85FF"/>
<rect x="96.4062" y="68.0272" width="2.38766" height="4.51287" fill="#BA85FF"/>
<path d="M102.861 122.055C104.478 118.145 108.958 116.287 112.868 117.905" stroke="#2D2D2D" stroke-width="2.07467" stroke-linecap="round"/>
<path d="M98.2133 117.596C100.417 117.484 102.294 119.179 102.406 121.382" stroke="#2D2D2D" stroke-width="1.67569" stroke-linecap="round"/>
<g opacity="0.4">
<path d="M94.221 65.1252C95.6159 65.1252 96.7467 63.9944 96.7467 62.5995C96.7467 61.2046 95.6159 60.0738 94.221 60.0738C92.8261 60.0738 91.6953 61.2046 91.6953 62.5995C91.6953 63.9944 92.8261 65.1252 94.221 65.1252Z" fill="#AD79F4"/>
<path d="M94.8096 61.6863C95.8608 61.6863 96.7129 60.8341 96.7129 59.783C96.7129 58.7318 95.8608 57.8796 94.8096 57.8796C93.7584 57.8796 92.9062 58.7318 92.9062 59.783C92.9062 60.8341 93.7584 61.6863 94.8096 61.6863Z" fill="#AD79F4"/>
<path d="M97.1614 60.4091C98.2126 60.4091 99.0647 59.557 99.0647 58.5058C99.0647 57.4546 98.2126 56.6025 97.1614 56.6025C96.1102 56.6025 95.2581 57.4546 95.2581 58.5058C95.2581 59.557 96.1102 60.4091 97.1614 60.4091Z" fill="#AD79F4"/>
<path d="M100.341 62.3126C101.392 62.3126 102.244 61.4604 102.244 60.4092C102.244 59.3581 101.392 58.5059 100.341 58.5059C99.2895 58.5059 98.4374 59.3581 98.4374 60.4092C98.4374 61.4604 99.2895 62.3126 100.341 62.3126Z" fill="#AD79F4"/>
<path d="M96.7444 65.1252C98.1393 65.1252 99.2701 63.9944 99.2701 62.5995C99.2701 61.2046 98.1393 60.0739 96.7444 60.0739C95.3495 60.0739 94.2188 61.2046 94.2188 62.5995C94.2188 63.9944 95.3495 65.1252 96.7444 65.1252Z" fill="#AD79F4"/>
<path d="M97.2324 66.6238C97.8041 66.305 98.0091 65.5832 97.6903 65.0115C97.3716 64.4398 96.6497 64.2348 96.0781 64.5536C95.5064 64.8723 95.3014 65.5942 95.6201 66.1658C95.9389 66.7375 96.6607 66.9425 97.2324 66.6238Z" fill="#AD79F4"/>
<path d="M98.4397 62.2322C99.8346 62.2322 100.965 61.1014 100.965 59.7065C100.965 58.3116 99.8346 57.1808 98.4397 57.1808C97.0448 57.1808 95.9141 58.3116 95.9141 59.7065C95.9141 61.1014 97.0448 62.2322 98.4397 62.2322Z" fill="#AD79F4"/>
<path d="M99.721 60.4092C101.116 60.4092 102.247 59.2784 102.247 57.8835C102.247 56.4886 101.116 55.3578 99.721 55.3578C98.3261 55.3578 97.1953 56.4886 97.1953 57.8835C97.1953 59.2784 98.3261 60.4092 99.721 60.4092Z" fill="#AD79F4"/>
<path d="M99.8968 65.1252C101.292 65.1252 102.422 63.9944 102.422 62.5995C102.422 61.2046 101.292 60.0739 99.8968 60.0739C98.5019 60.0739 97.3711 61.2046 97.3711 62.5995C97.3711 63.9944 98.5019 65.1252 99.8968 65.1252Z" fill="#AD79F4"/>
<path d="M98.9004 66.2103C99.4721 65.8915 99.6771 65.1697 99.3583 64.598C99.0395 64.0264 98.3177 63.8213 97.746 64.1401C97.1744 64.4589 96.9693 65.1807 97.2881 65.7524C97.6069 66.3241 98.3287 66.5291 98.9004 66.2103Z" fill="#AD79F4"/>
<path d="M98.5605 67.3646C99.1322 67.0458 99.3372 66.324 99.0185 65.7523C98.6997 65.1807 97.9779 64.9756 97.4062 65.2944C96.8345 65.6132 96.6295 66.335 96.9483 66.9067C97.267 67.4784 97.9889 67.6834 98.5605 67.3646Z" fill="#AD79F4"/>
<path d="M98.0332 68.0278C98.6049 67.7091 98.8099 66.9872 98.4911 66.4155C98.1724 65.8439 97.4505 65.6389 96.8788 65.9576C96.3072 66.2764 96.1022 66.9982 96.4209 67.5699C96.7397 68.1416 97.4615 68.3466 98.0332 68.0278Z" fill="#AD79F4"/>
<path d="M101.592 62.2322C102.987 62.2322 104.118 61.1014 104.118 59.7065C104.118 58.3116 102.987 57.1808 101.592 57.1808C100.197 57.1808 99.0664 58.3116 99.0664 59.7065C99.0664 61.1014 100.197 62.2322 101.592 62.2322Z" fill="#AD79F4"/>
</g>
<defs>
<radialGradient id="paint0_radial_2_4811" cx="0" cy="0" r="1" gradientUnits="userSpaceOnUse" gradientTransform="translate(97.5945 77.1764) rotate(90) scale(7.82107)">
<stop stop-color="#C5AFF5"/>
<stop offset="1" stop-color="#C5AFF5" stop-opacity="0"/>
</radialGradient>
</defs>
</svg>
