<svg width="184" height="155" viewBox="0 0 184 155" fill="none" xmlns="http://www.w3.org/2000/svg">
<g clip-path="url(#clip0_1_3)">
<rect width="184" height="155" fill="#FF6C2D"/>
<path d="M47.1838 33V18.4H50.2438L54.3038 30.2C54.2638 29.7733 54.2171 29.2733 54.1638 28.7C54.1238 28.1133 54.0904 27.52 54.0638 26.92C54.0371 26.3067 54.0238 25.7733 54.0238 25.32V18.4H56.3038V33H53.2438L49.2238 21.2C49.2504 21.5867 49.2838 22.0533 49.3238 22.6C49.3638 23.1467 49.3971 23.7067 49.4238 24.28C49.4504 24.8533 49.4638 25.38 49.4638 25.86V33H47.1838ZM63.3359 33.2C62.4026 33.2 61.5893 33.0267 60.8959 32.68C60.2159 32.32 59.6893 31.82 59.3159 31.18C58.9559 30.5267 58.7759 29.76 58.7759 28.88V22.52C58.7759 21.64 58.9559 20.88 59.3159 20.24C59.6893 19.5867 60.2159 19.0867 60.8959 18.74C61.5893 18.38 62.4026 18.2 63.3359 18.2C64.2826 18.2 65.0959 18.38 65.7759 18.74C66.4559 19.0867 66.9759 19.5867 67.3359 20.24C67.7093 20.88 67.8959 21.6333 67.8959 22.5V28.88C67.8959 29.76 67.7093 30.5267 67.3359 31.18C66.9759 31.82 66.4559 32.32 65.7759 32.68C65.0959 33.0267 64.2826 33.2 63.3359 33.2ZM63.3359 31C64.0159 31 64.5293 30.82 64.8759 30.46C65.2226 30.0867 65.3959 29.56 65.3959 28.88V22.52C65.3959 21.8267 65.2226 21.3 64.8759 20.94C64.5293 20.58 64.0159 20.4 63.3359 20.4C62.6559 20.4 62.1426 20.58 61.7959 20.94C61.4493 21.3 61.2759 21.8267 61.2759 22.52V28.88C61.2759 29.56 61.4493 30.0867 61.7959 30.46C62.1559 30.82 62.6693 31 63.3359 31ZM73.6681 33V20.72H69.8481V18.4H80.0081V20.72H76.1881V33H73.6681ZM98.1525 33.2C97.1525 33.2 96.2858 33.0333 95.5525 32.7C94.8192 32.3667 94.2525 31.8933 93.8525 31.28C93.4658 30.6533 93.2658 29.92 93.2525 29.08H95.7525C95.7525 29.68 95.9658 30.1533 96.3925 30.5C96.8325 30.8333 97.4258 31 98.1725 31C98.8925 31 99.4525 30.8333 99.8525 30.5C100.266 30.1667 100.473 29.7067 100.473 29.12C100.473 28.6267 100.326 28.2 100.033 27.84C99.7525 27.4667 99.3458 27.2133 98.8125 27.08L97.1325 26.62C95.9858 26.3267 95.0992 25.8 94.4725 25.04C93.8592 24.28 93.5525 23.36 93.5525 22.28C93.5525 21.4533 93.7392 20.7333 94.1125 20.12C94.4858 19.5067 95.0125 19.0333 95.6925 18.7C96.3858 18.3667 97.1992 18.2 98.1325 18.2C99.5458 18.2 100.666 18.5667 101.493 19.3C102.319 20.02 102.739 20.9933 102.753 22.22H100.253C100.253 21.6467 100.066 21.2 99.6925 20.88C99.3192 20.5467 98.7925 20.38 98.1125 20.38C97.4592 20.38 96.9525 20.5333 96.5925 20.84C96.2325 21.1467 96.0525 21.58 96.0525 22.14C96.0525 22.6467 96.1858 23.08 96.4525 23.44C96.7325 23.7867 97.1325 24.0333 97.6525 24.18L99.3925 24.66C100.553 24.9533 101.439 25.48 102.053 26.24C102.666 26.9867 102.973 27.9133 102.973 29.02C102.973 29.8467 102.773 30.58 102.373 31.22C101.973 31.8467 101.413 32.3333 100.693 32.68C99.9725 33.0267 99.1258 33.2 98.1525 33.2ZM109.705 33.2C108.278 33.2 107.158 32.8133 106.345 32.04C105.545 31.2533 105.145 30.1867 105.145 28.84V18.4H107.665V28.82C107.665 29.5133 107.838 30.0533 108.185 30.44C108.531 30.8267 109.038 31.02 109.705 31.02C110.358 31.02 110.858 30.8267 111.205 30.44C111.565 30.0533 111.745 29.5133 111.745 28.82V18.4H114.265V28.84C114.265 30.1867 113.865 31.2533 113.065 32.04C112.265 32.8133 111.145 33.2 109.705 33.2ZM116.817 33V18.4H121.437C122.41 18.4 123.25 18.58 123.957 18.94C124.677 19.3 125.237 19.8067 125.637 20.46C126.037 21.1 126.237 21.86 126.237 22.74C126.237 23.7 125.99 24.5467 125.497 25.28C125.017 26.0133 124.364 26.5333 123.537 26.84L126.437 33H123.637L121.097 27.2H119.317V33H116.817ZM119.317 25H121.437C122.144 25 122.697 24.8067 123.097 24.42C123.497 24.0333 123.697 23.5 123.697 22.82C123.697 22.1267 123.497 21.5867 123.097 21.2C122.697 20.8 122.144 20.6 121.437 20.6H119.317V25ZM128.649 33V18.4H137.409V20.58H131.109V24.38H136.709V26.54H131.109V30.82H137.409V33H128.649Z" fill="black"/>
<g clip-path="url(#clip1_1_3)">
<g clip-path="url(#clip2_1_3)">
<path d="M88.7412 156.581C89.6656 149.052 87.5615 141.465 82.8919 135.489C80.7789 132.784 78.2189 130.509 75.3516 128.744L75.6686 126.162L77.1207 114.335C75.5676 114.145 73.9921 114.262 72.4842 114.68C70.9763 115.098 69.5655 115.809 68.3324 116.773C67.0993 117.736 66.068 118.933 65.2975 120.295C64.5269 121.657 64.0322 123.157 63.8415 124.71L58.3232 169.653L56.871 181.48C64.3992 182.405 71.9862 180.301 77.963 175.631C83.9398 170.961 87.8169 164.109 88.7412 156.581Z" fill="#242121"/>
<path d="M96.7604 156.582C95.8361 149.054 97.9402 141.467 102.61 135.49C104.723 132.786 107.283 130.511 110.15 128.745L109.833 126.164L108.381 114.337C109.934 114.146 111.51 114.263 113.017 114.682C114.525 115.1 115.936 115.811 117.169 116.774C118.402 117.738 119.434 118.934 120.204 120.296C120.975 121.658 121.469 123.159 121.66 124.712L127.178 169.655L128.631 181.482C121.102 182.406 113.515 180.302 107.539 175.632C101.562 170.963 97.6848 164.11 96.7604 156.582Z" fill="#242121"/>
</g>
<path d="M70.507 152.5C70.507 164.784 80.4655 174.743 92.7499 174.743C105.034 174.743 114.993 164.784 114.993 152.5V108.014H70.507V152.5Z" fill="#2D2D2D"/>
<path d="M70.5071 108.013C70.5071 95.7281 80.4656 85.7695 92.7501 85.7695C105.035 85.7695 114.993 95.7281 114.993 108.013V122.844C114.993 126.937 111.675 130.256 107.581 130.256H77.9188C73.8254 130.256 70.5071 126.937 70.5071 122.844V108.013Z" fill="#2D2D2D"/>
<path d="M82.7405 107.061C86.4259 107.061 89.4134 104.073 89.4134 100.388C89.4134 96.7024 86.4259 93.7148 82.7405 93.7148C79.0552 93.7148 76.0676 96.7024 76.0676 100.388C76.0676 104.073 79.0552 107.061 82.7405 107.061Z" fill="white"/>
<path d="M82.7404 101.977C83.6179 101.977 84.3292 101.266 84.3292 100.388C84.3292 99.5106 83.6179 98.7993 82.7404 98.7993C81.863 98.7993 81.1517 99.5106 81.1517 100.388C81.1517 101.266 81.863 101.977 82.7404 101.977Z" fill="#2D2D2D"/>
<path d="M102.759 107.061C106.445 107.061 109.432 104.073 109.432 100.388C109.432 96.7024 106.445 93.7148 102.759 93.7148C99.0738 93.7148 96.0863 96.7024 96.0863 100.388C96.0863 104.073 99.0738 107.061 102.759 107.061Z" fill="white"/>
<path d="M102.759 103.963C104.733 103.963 106.334 102.362 106.334 100.388C106.334 98.4138 104.733 96.8133 102.759 96.8133C100.785 96.8133 99.1844 98.4138 99.1844 100.388C99.1844 102.362 100.785 103.963 102.759 103.963Z" fill="#2D2D2D"/>
<path d="M84.0164 110.72C83.5413 111.877 83.2968 113.117 83.2968 114.368L92.7501 130.256L92.7501 104.836C91.5086 104.836 90.2794 105.082 89.1324 105.561C87.9855 106.04 86.9434 106.743 86.0656 107.628C85.1878 108.513 84.4914 109.564 84.0164 110.72Z" fill="#CACACA"/>
<path d="M101.484 110.72C101.959 111.877 102.203 113.117 102.203 114.368L92.75 130.256V104.836C93.9914 104.836 95.2207 105.082 96.3676 105.561C97.5145 106.04 98.5566 106.743 99.4344 107.628C100.312 108.513 101.009 109.564 101.484 110.72Z" fill="#6E00FF"/>
<path fill-rule="evenodd" clip-rule="evenodd" d="M88.5006 92.116C88.7305 91.7423 88.614 91.253 88.2404 91.0231L85.7418 89.4855C85.4355 89.297 85.049 89.297 84.7426 89.4855L82.6605 90.7669L80.5783 89.4855C80.2719 89.297 79.8855 89.297 79.5791 89.4855L77.4969 90.7669L75.3315 89.4343C74.9578 89.2044 74.4685 89.3209 74.2386 89.6945C74.0087 90.0682 74.1252 90.5575 74.4988 90.7874L76.9973 92.3249C77.3037 92.5135 77.6901 92.5135 77.9965 92.3249L80.0787 91.0436L82.1609 92.3249C82.4672 92.5135 82.8537 92.5135 83.1601 92.3249L85.2422 91.0436L87.4077 92.3762C87.7813 92.6061 88.2706 92.4896 88.5006 92.116Z" fill="white"/>
<path fill-rule="evenodd" clip-rule="evenodd" d="M96.9996 92.116C96.7696 91.7423 96.8861 91.253 97.2598 91.0231L99.7583 89.4855C100.065 89.297 100.451 89.297 100.758 89.4855L102.84 90.7669L104.922 89.4855C105.228 89.297 105.615 89.297 105.921 89.4855L108.003 90.7669L110.169 89.4343C110.542 89.2044 111.032 89.3209 111.262 89.6945C111.491 90.0682 111.375 90.5575 111.001 90.7874L108.503 92.3249C108.196 92.5135 107.81 92.5135 107.504 92.3249L105.421 91.0436L103.339 92.3249C103.033 92.5135 102.646 92.5135 102.34 92.3249L100.258 91.0436L98.0925 92.3762C97.7188 92.6061 97.2295 92.4896 96.9996 92.116Z" fill="white"/>
</g>
<path d="M122.189 87.1053C121.693 86.8624 121.439 86.3029 121.582 85.7699L124.8 73.761C125.245 72.0985 127.186 71.3576 128.626 72.3002V72.3002C129.714 73.0125 130.084 74.4342 129.481 75.5866L123.72 86.6037C123.43 87.1584 122.751 87.3809 122.189 87.1053V87.1053Z" fill="#2D2D2D"/>
<path d="M48.2615 92.7163C48.6441 92.3187 48.6918 91.706 48.3754 91.2539L41.2464 81.0683C40.2595 79.6582 38.1825 79.6253 37.1514 81.0035V81.0035C36.3723 82.0448 36.5105 83.5073 37.4708 84.3843L46.651 92.7684C47.1132 93.1905 47.8275 93.1674 48.2615 92.7163V92.7163Z" fill="#6E00FF"/>
<path d="M129.374 96.8518C129.107 96.1868 129.367 95.4263 129.986 95.0648L138.907 89.8542C140.563 88.8869 142.687 89.7294 143.23 91.5687V91.5687C143.708 93.1876 142.735 94.877 141.095 95.2758L131.056 97.7165C130.358 97.8861 129.642 97.5178 129.374 96.8518V96.8518Z" fill="white"/>
<path d="M43.5255 102.614C43.5456 101.897 43.0375 101.274 42.3316 101.15L32.157 99.3589C30.2682 99.0264 28.5681 100.554 28.6972 102.467V102.467C28.8108 104.151 30.3098 105.398 31.9863 105.203L42.2481 104.008C42.9613 103.925 43.5053 103.331 43.5255 102.614V102.614Z" fill="white"/>
<path d="M153.725 96.9218C154.012 95.9342 154.996 95.3209 156.009 95.4982L164.964 97.0662C167.281 97.4719 168.663 99.8797 167.844 102.085V102.085C167.017 104.313 164.358 105.226 162.336 103.978L154.602 99.2009C153.83 98.7246 153.472 97.7923 153.725 96.9218V96.9218Z" fill="#6E00FF"/>
<path fill-rule="evenodd" clip-rule="evenodd" d="M153.42 63.7516C153.422 63.913 153.292 64.0453 153.131 64.047C150.556 64.0739 148.428 66.4429 148.591 68.8401L148.592 68.8482L148.592 68.8563C148.622 71.2751 150.858 73.2653 153.107 73.1065L153.115 73.1059L153.123 73.1058C155.395 73.0711 157.251 70.9756 157.097 68.8815L157.096 68.8734L157.096 68.8653C157.058 66.7497 155.096 65.0309 153.15 65.1806L153.142 65.1813L153.134 65.1814C151.166 65.2231 149.583 67.0461 149.727 68.8365L149.728 68.8446L149.728 68.8526C149.773 70.6657 151.461 72.112 153.103 71.9723L153.111 71.9716L153.119 71.9714C154.784 71.9226 156.096 70.3732 155.961 68.8864L155.96 68.8782L155.96 68.87C155.908 67.3598 154.494 66.1856 153.156 66.3147L153.148 66.3155L153.14 66.3158C151.778 66.3714 150.739 67.6461 150.862 68.8296L150.863 68.8377L150.864 68.8458C150.922 70.0533 152.061 70.9568 153.095 70.8386L153.103 70.8377L153.111 70.8372C154.17 70.7764 154.938 69.7756 154.826 68.8968L154.825 68.8886L154.825 68.8804C154.761 67.9751 153.898 67.3432 153.169 67.4476L153.161 67.4488L153.153 67.4495C152.397 67.5144 151.9 68.2383 151.996 68.8116L151.998 68.8201L151.998 68.8286C152.064 69.4317 152.648 69.7931 153.07 69.708L153.078 69.7063L153.087 69.7051C153.542 69.6405 153.767 69.1996 153.697 68.934L153.695 68.9254L153.693 68.9167C153.665 68.773 153.58 68.6707 153.481 68.6116C153.374 68.548 153.277 68.5486 153.232 68.5658L153.223 68.5694L153.213 68.5724C153.209 68.5738 153.205 68.5752 153.2 68.5767C153.317 68.6066 153.408 68.7073 153.419 68.8341C153.444 69.1089 153.204 69.2326 153.062 69.2496C152.89 69.2701 152.712 69.192 152.603 69.0256C152.475 68.848 152.488 68.6185 152.557 68.449C152.633 68.2622 152.793 68.0923 153.033 68.016C153.28 67.9256 153.56 67.9784 153.78 68.109C154.007 68.2445 154.2 68.4792 154.265 68.7947C154.422 69.4167 153.947 70.1686 153.177 70.2828C152.409 70.4321 151.523 69.8229 151.418 68.8998C151.27 67.9809 152.02 66.9647 153.095 66.8676C154.164 66.7198 155.316 67.604 155.407 68.8314C155.557 70.0504 154.533 71.3364 153.153 71.4205C151.781 71.572 150.359 70.4134 150.28 68.8823C150.126 67.3609 151.423 65.8054 153.108 65.7319C154.781 65.5756 156.476 67.0061 156.544 68.8418C156.704 70.6651 155.133 72.4925 153.145 72.5556C151.168 72.7186 149.202 71.0143 149.144 68.8754C148.977 66.7499 150.82 64.6505 153.114 64.597C155.393 64.4267 157.632 66.4047 157.681 68.8466C157.855 71.2756 155.737 73.6458 153.14 73.6903C150.559 73.8676 148.047 71.6177 148.007 68.8718C147.826 66.138 150.221 63.4926 153.125 63.4623C153.286 63.4606 153.419 63.5901 153.42 63.7516ZM153.091 68.7111C153.091 68.7111 153.091 68.7109 153.091 68.7104Z" fill="white"/>
<path fill-rule="evenodd" clip-rule="evenodd" d="M39.6992 116.234C39.6975 116.398 39.8294 116.533 39.9939 116.534C42.6166 116.562 44.7842 118.975 44.6178 121.416L44.6172 121.425L44.6171 121.433C44.5862 123.897 42.3089 125.924 40.018 125.762L40.0098 125.761L40.0016 125.761C37.6878 125.726 35.7973 123.591 35.9546 121.459L35.9553 121.45L35.9554 121.442C35.9942 119.287 37.9923 117.537 39.9741 117.689L39.9824 117.69L39.9907 117.69C41.9956 117.732 43.608 119.589 43.4609 121.413L43.4603 121.421L43.46 121.429C43.4136 123.276 41.6948 124.749 40.0222 124.607L40.014 124.606L40.0057 124.606C38.31 124.556 36.974 122.978 37.1114 121.464L37.1121 121.455L37.1124 121.447C37.1654 119.909 38.6059 118.713 39.9684 118.844L39.9766 118.845L39.9849 118.845C41.3722 118.902 42.4305 120.2 42.3044 121.406L42.3036 121.414L42.3032 121.422C42.2435 122.652 41.0838 123.572 40.0308 123.452L40.0225 123.451L40.0141 123.45C38.9358 123.389 38.1538 122.369 38.2674 121.474L38.2684 121.466L38.269 121.457C38.3337 120.535 39.2126 119.892 39.9548 119.998L39.9631 119.999L39.9715 120C40.7414 120.066 41.2477 120.803 41.1498 121.387L41.1483 121.396L41.1474 121.405C41.0811 122.019 40.4855 122.387 40.0559 122.3L40.0474 122.299L40.0389 122.297C39.5755 122.232 39.3464 121.783 39.4172 121.512L39.4195 121.503L39.4213 121.494C39.4502 121.348 39.5364 121.244 39.6377 121.184C39.7467 121.119 39.8447 121.119 39.8905 121.137L39.9003 121.141L39.9102 121.144C39.9147 121.145 39.919 121.147 39.9232 121.148C39.8043 121.179 39.7119 121.281 39.7004 121.41C39.6756 121.69 39.9199 121.816 40.0646 121.833C40.2394 121.854 40.4208 121.775 40.5318 121.605C40.6616 121.424 40.6483 121.191 40.5784 121.018C40.5013 120.828 40.338 120.655 40.0935 120.577C39.8418 120.485 39.5571 120.539 39.3334 120.672C39.1012 120.81 38.9049 121.049 38.8388 121.37C38.6793 122.004 39.1631 122.77 39.9467 122.886C40.7293 123.038 41.632 122.417 41.7385 121.477C41.8897 120.541 41.1255 119.506 40.0308 119.407C38.9418 119.257 37.7681 120.157 37.6755 121.407C37.5233 122.649 38.5654 123.959 39.9716 124.045C41.3684 124.199 42.8171 123.019 42.8976 121.459C43.0544 119.91 41.7336 118.326 40.0174 118.251C38.3136 118.091 36.5868 119.548 36.5175 121.418C36.3543 123.275 37.9544 125.136 39.98 125.201C41.993 125.367 43.9955 123.631 44.0552 121.452C44.2246 119.287 42.3474 117.149 40.0116 117.095C37.6901 116.921 35.4099 118.936 35.3601 121.423C35.1828 123.897 37.3395 126.311 39.9842 126.356C42.6139 126.537 45.1724 124.245 45.2125 121.449C45.3971 118.664 42.9581 115.97 40.0001 115.939C39.8357 115.937 39.701 116.069 39.6992 116.234ZM40.0348 121.285C40.0348 121.285 40.0349 121.285 40.0349 121.284Z" fill="white"/>
<path fill-rule="evenodd" clip-rule="evenodd" d="M23.211 55.788C23.2078 56.0869 23.4477 56.3319 23.7467 56.335C28.5153 56.3848 32.4563 60.772 32.1538 65.2112L32.1528 65.2262L32.1526 65.2412C32.0964 69.7205 27.9559 73.406 23.7905 73.1119L23.7756 73.1109L23.7606 73.1107C19.5538 73.0463 16.1166 69.1658 16.4026 65.2878L16.4037 65.2728L16.404 65.2578C16.4746 61.3402 20.1075 58.1571 23.7108 58.4344L23.7258 58.4356L23.7409 58.4359C27.3862 58.5131 30.3178 61.889 30.0504 65.2045L30.0492 65.2194L30.0488 65.2344C29.9644 68.5919 26.8392 71.2703 23.7983 71.0115L23.7833 71.0102L23.7682 71.0098C20.6851 70.9194 18.256 68.0503 18.5058 65.2969L18.5072 65.2818L18.5077 65.2666C18.6039 62.4699 21.2231 60.2954 23.7003 60.5345L23.7153 60.5359L23.7303 60.5365C26.2527 60.6395 28.1769 63.0001 27.9477 65.1917L27.9461 65.2067L27.9454 65.2218C27.837 67.4578 25.7284 69.1309 23.8138 68.9121L23.7986 68.9104L23.7834 68.9095C21.8229 68.797 20.401 66.9436 20.6076 65.3162L20.6095 65.3011L20.6106 65.2859C20.7281 63.6094 22.3261 62.4392 23.6756 62.6325L23.6908 62.6347L23.706 62.636C25.1058 62.7561 26.0263 64.0967 25.8483 65.1585L25.8457 65.1741L25.844 65.1899C25.7234 66.3068 24.6406 66.9759 23.8594 66.8183L23.844 66.8152L23.8285 66.813C22.986 66.6934 22.5694 65.8769 22.6982 65.3851L22.7024 65.3692L22.7056 65.353C22.7581 65.087 22.9149 64.8975 23.0992 64.788C23.2972 64.6702 23.4754 64.6713 23.5588 64.7032L23.5765 64.71L23.5946 64.7155C23.6027 64.718 23.6105 64.7206 23.6181 64.7234C23.4019 64.7787 23.2339 64.9652 23.2131 65.2002C23.1679 65.7089 23.6122 65.9381 23.8753 65.9695C24.1932 66.0074 24.5228 65.8628 24.7248 65.5548C24.9607 65.2258 24.9366 64.8008 24.8094 64.4869C24.6692 64.1411 24.3724 63.8264 23.9277 63.6852C23.4701 63.5176 22.9525 63.6154 22.5458 63.8572C22.1236 64.1082 21.7668 64.5428 21.6465 65.1271C21.3566 66.2789 22.2361 67.6714 23.6608 67.8828C25.0838 68.1593 26.7251 67.0313 26.9188 65.3218C27.1936 63.6201 25.8041 61.7382 23.8139 61.5585C21.8338 61.2848 19.6998 62.9221 19.5315 65.195C19.2547 67.4525 21.1495 69.8339 23.7061 69.9896C26.2459 70.2702 28.8798 68.1246 29.0262 65.2893C29.3113 62.4719 26.9099 59.5914 23.7894 59.4553C20.6917 59.1658 17.552 61.8148 17.426 65.2143C17.1293 68.5909 20.0386 71.9748 23.7215 72.0917C27.3814 72.3937 31.0223 69.2375 31.1309 65.2766C31.439 61.3405 28.0257 57.4526 23.7789 57.3536C19.558 57.0382 15.4121 60.7012 15.3216 65.2232C14.9993 69.7213 18.9206 74.1106 23.7291 74.1931C28.5104 74.5213 33.1623 70.3549 33.2351 65.2698C33.5707 60.2073 29.1362 55.3084 23.758 55.2522C23.459 55.2491 23.2141 55.489 23.211 55.788ZM23.8211 64.9723C23.8211 64.9724 23.8212 64.9719 23.8213 64.971Z" fill="black"/>
<path fill-rule="evenodd" clip-rule="evenodd" d="M157.336 120.521C157.334 120.731 157.502 120.902 157.711 120.904C161.049 120.939 163.808 124.01 163.596 127.118L163.595 127.128L163.595 127.139C163.556 130.274 160.657 132.854 157.742 132.648L157.731 132.647L157.721 132.647C154.776 132.602 152.37 129.886 152.57 127.171L152.571 127.161L152.571 127.15C152.62 124.408 155.164 122.18 157.686 122.374L157.696 122.375L157.707 122.375C160.259 122.429 162.311 124.792 162.124 127.113L162.123 127.123L162.122 127.134C162.063 129.484 159.876 131.359 157.747 131.178L157.737 131.177L157.726 131.177C155.568 131.113 153.867 129.105 154.042 127.178L154.043 127.167L154.044 127.156C154.111 125.199 155.944 123.676 157.679 123.844L157.689 123.845L157.699 123.845C159.465 123.917 160.812 125.57 160.652 127.104L160.651 127.114L160.65 127.125C160.574 128.69 159.098 129.861 157.758 129.708L157.747 129.707L157.737 129.706C156.364 129.628 155.369 128.33 155.514 127.191L155.515 127.18L155.516 127.17C155.598 125.996 156.717 125.177 157.661 125.312L157.672 125.314L157.683 125.315C158.662 125.399 159.307 126.337 159.182 127.081L159.18 127.092L159.179 127.103C159.095 127.884 158.337 128.353 157.79 128.243L157.779 128.24L157.768 128.239C157.178 128.155 156.887 127.584 156.977 127.239L156.98 127.228L156.982 127.217C157.019 127.031 157.129 126.898 157.258 126.821C157.396 126.739 157.521 126.74 157.579 126.762L157.592 126.767L157.604 126.771C157.61 126.772 157.616 126.774 157.621 126.776C157.47 126.815 157.352 126.945 157.337 127.11C157.306 127.466 157.617 127.626 157.801 127.648C158.023 127.675 158.254 127.574 158.396 127.358C158.561 127.128 158.544 126.83 158.455 126.611C158.357 126.368 158.149 126.148 157.838 126.049C157.517 125.932 157.155 126 156.87 126.17C156.575 126.345 156.325 126.65 156.241 127.059C156.038 127.865 156.654 128.84 157.651 128.988C158.647 129.181 159.796 128.392 159.931 127.195C160.124 126.004 159.151 124.686 157.758 124.561C156.372 124.369 154.878 125.515 154.76 127.106C154.567 128.686 155.893 130.353 157.683 130.462C159.46 130.659 161.304 129.157 161.407 127.172C161.606 125.2 159.925 123.184 157.741 123.088C155.572 122.886 153.375 124.74 153.287 127.12C153.079 129.483 155.115 131.852 157.693 131.934C160.255 132.145 162.804 129.936 162.88 127.163C163.096 124.408 160.706 121.686 157.733 121.617C154.779 121.396 151.877 123.961 151.813 127.126C151.588 130.275 154.333 133.347 157.699 133.405C161.046 133.635 164.302 130.718 164.353 127.159C164.588 123.615 161.484 120.186 157.719 120.146C157.51 120.144 157.338 120.312 157.336 120.521ZM157.763 126.95C157.763 126.95 157.763 126.95 157.763 126.949Z" fill="black"/>
<path d="M61.0779 112.81C61.0779 107.728 61.0779 102.647 61.0779 97.5653C61.0779 96.8258 61.0779 96.0863 61.0779 95.3486C61.0779 94.2056 59.2983 94.2021 59.2983 95.3486C59.2983 100.431 59.2983 105.511 59.2983 110.593C59.2983 111.333 59.2983 112.072 59.2983 112.81C59.2983 113.953 61.0779 113.956 61.0779 112.81Z" fill="#6F00FF"/>
<path d="M56.9726 116.7C56.9548 108.916 56.9388 101.132 56.921 93.3495C56.9192 92.235 56.9156 91.1222 56.9138 90.0077C56.9121 88.8931 55.1324 88.8611 55.1342 90.0059C55.152 97.79 55.168 105.574 55.1858 113.356C55.1876 114.471 55.1911 115.584 55.1929 116.698C55.1947 117.813 56.9744 117.845 56.9726 116.698V116.7Z" fill="#6F00FF"/>
<path d="M114.218 92.4385C117.377 96.4221 120.536 100.406 123.695 104.387C124.154 104.967 124.613 105.546 125.074 106.126C125.784 107.022 127.037 105.756 126.332 104.869C123.173 100.886 120.014 96.902 116.855 92.9202C116.396 92.3407 115.937 91.7612 115.476 91.1817C114.766 90.2858 113.513 91.5515 114.218 92.4385Z" fill="#6F00FF"/>
<path d="M115.005 86.83C119.858 92.92 124.71 99.0118 129.563 105.102C130.257 105.973 130.951 106.846 131.645 107.717C132.339 108.588 133.61 107.347 132.903 106.46C128.05 100.37 123.199 94.2781 118.346 88.1881C117.652 87.317 116.957 86.4442 116.263 85.5732C115.569 84.7022 114.299 85.943 115.005 86.83Z" fill="#6F00FF"/>
<circle cx="64.3368" cy="83.8499" r="3.25832" fill="#6F00FF"/>
<circle cx="111.023" cy="69.3418" r="3.25832" fill="#6F00FF"/>
<ellipse cx="134.917" cy="122.241" rx="6.2839" ry="6.2839" fill="#6F00FF"/>
<circle cx="54.0368" cy="70.9708" r="4.88748" fill="#CACACA"/>
</g>
<defs>
<clipPath id="clip0_1_3">
<rect width="184" height="155" fill="white"/>
</clipPath>
<clipPath id="clip1_1_3">
<rect width="170" height="113.863" fill="white" transform="translate(7.75 72.7266)"/>
</clipPath>
<clipPath id="clip2_1_3">
<rect width="71.7575" height="100.888" fill="white" transform="translate(56.8711 85.7715)"/>
</clipPath>
</defs>
</svg>
