<svg width="187" height="125" viewBox="0 0 187 125" fill="none" xmlns="http://www.w3.org/2000/svg">
<path d="M124.862 47.6003C112.269 48.9353 103.143 60.226 104.477 72.8187C105.812 85.4115 117.103 94.5379 129.696 93.2035L124.862 47.6009V47.6003Z" fill="#231F20"/>
<path d="M108.766 26.2492C116.321 25.4482 123.096 30.9239 123.897 38.4801L110.216 39.9301L108.766 26.2492Z" fill="#231F20"/>
<path d="M129.693 93.2035C122.138 94.0045 115.363 88.5288 114.562 80.9726L128.243 79.5226L129.693 93.2035Z" fill="#6E00FF"/>
<path d="M114.565 80.9714L128.246 79.5215L123.896 38.4791L110.216 39.9291L114.565 80.9714Z" fill="#231F20"/>
<path d="M74.8181 43.4941L72.7461 40.334L66.4216 44.4808L68.4937 47.6409L74.8181 43.4941Z" fill="#E2F4FD"/>
<path d="M88.8964 105.692H84.7807L80.0498 74.9415C79.9789 74.48 79.547 74.1635 79.0855 74.2345C78.624 74.3054 78.3075 74.7373 78.3785 75.1988L83.0698 105.693H74.3732C73.9062 105.693 73.5273 106.071 73.5273 106.538C73.5273 107.005 73.9062 107.384 74.3732 107.384H84.052C84.052 107.384 84.0539 107.384 84.0545 107.384C84.0557 107.384 84.0564 107.384 84.0576 107.384H88.897C89.3641 107.384 89.7429 107.005 89.7429 106.538C89.7429 106.071 89.3641 105.693 88.897 105.693L88.8964 105.692Z" fill="#2D2D2D"/>
<path d="M83.8769 105.98C82.2449 102.123 77.7947 100.319 73.9371 101.951" stroke="#2D2D2D" stroke-width="2.07467" stroke-linecap="round"/>
<path d="M88.4436 101.529C86.2613 101.436 84.4164 103.129 84.3228 105.311" stroke="#2D2D2D" stroke-width="1.67569" stroke-linecap="round"/>
<path d="M109.596 105.736L100.9 105.681L105.783 75.2178C105.857 74.7568 105.543 74.3229 105.082 74.2491C104.621 74.1752 104.187 74.489 104.113 74.95L99.1892 105.67L95.0735 105.644C94.6065 105.641 94.2253 106.018 94.2224 106.485C94.2194 106.952 94.5958 107.333 95.0629 107.336L99.9022 107.366C99.9022 107.366 99.9041 107.366 99.9053 107.366C99.9059 107.366 99.9071 107.366 99.9078 107.366L109.586 107.427C110.053 107.43 110.435 107.054 110.438 106.587C110.441 106.12 110.064 105.739 109.597 105.736L109.596 105.736Z" fill="#2D2D2D"/>
<path d="M74.8164 26.633C66.448 25.7458 58.9449 31.8106 58.0578 40.1797L73.2104 41.7856L74.8164 26.633Z" fill="#231F20"/>
<path d="M70.9101 63.4844L55.7578 61.8785L58.0577 40.1784L73.21 41.7844L70.9101 63.4844Z" fill="#231F20"/>
<path d="M114.957 23.8031H67.6797V47.4412H114.957V23.8031Z" fill="#2D2D2D"/>
<path d="M114.957 47.442H67.6797V71.0802H114.957V47.442Z" fill="#2D2D2D"/>
<path d="M91.3061 47.4413C104.361 47.4413 114.944 36.8582 114.944 23.8032C114.944 10.7482 104.361 0.165039 91.3061 0.165039C78.2511 0.165039 67.668 10.7482 67.668 23.8032C67.668 36.8582 78.2511 47.4413 91.3061 47.4413Z" fill="#2D2D2D"/>
<path d="M91.3178 94.7183C104.373 94.7183 114.956 84.1352 114.956 71.0802C114.956 58.0252 104.373 47.442 91.3178 47.442C78.2628 47.442 67.6797 58.0252 67.6797 71.0802C67.6797 84.1352 78.2628 94.7183 91.3178 94.7183Z" fill="#2D2D2D"/>
<path d="M81.2623 21.7406C84.9065 21.7406 87.8607 18.7864 87.8607 15.1422C87.8607 11.498 84.9065 8.54382 81.2623 8.54382C77.6181 8.54382 74.6639 11.498 74.6639 15.1422C74.6639 18.7864 77.6181 21.7406 81.2623 21.7406Z" fill="white"/>
<path d="M81.2641 19.9949C83.0864 19.9949 84.5636 18.5176 84.5636 16.6954C84.5636 14.8731 83.0864 13.3959 81.2641 13.3959C79.4418 13.3959 77.9646 14.8731 77.9646 16.6954C77.9646 18.5176 79.4418 19.9949 81.2641 19.9949Z" fill="#231F20"/>
<path d="M79.0165 16.2604C80.4517 16.2604 81.6151 15.0969 81.6151 13.6617C81.6151 12.2266 80.4517 11.0631 79.0165 11.0631C77.5813 11.0631 76.4178 12.2266 76.4178 13.6617C76.4178 15.0969 77.5813 16.2604 79.0165 16.2604Z" fill="white"/>
<path d="M78.2819 36.92C83.624 36.92 87.9546 32.5894 87.9546 27.2474C87.9546 21.9053 83.624 17.5747 78.2819 17.5747C72.9399 17.5747 68.6093 21.9053 68.6093 27.2474C68.6093 32.5894 72.9399 36.92 78.2819 36.92Z" fill="#2D2D2D"/>
<path d="M101.364 21.7406C105.008 21.7406 107.962 18.7864 107.962 15.1423C107.962 11.4981 105.008 8.54388 101.364 8.54388C97.7198 8.54388 94.7656 11.4981 94.7656 15.1423C94.7656 18.7864 97.7198 21.7406 101.364 21.7406Z" fill="white"/>
<path d="M101.366 19.9948C103.188 19.9948 104.665 18.5176 104.665 16.6953C104.665 14.8731 103.188 13.3958 101.366 13.3958C99.5435 13.3958 98.0663 14.8731 98.0663 16.6953C98.0663 18.5176 99.5435 19.9948 101.366 19.9948Z" fill="#231F20"/>
<path d="M99.1182 16.2604C100.553 16.2604 101.717 15.097 101.717 13.6618C101.717 12.2266 100.553 11.0632 99.1182 11.0632C97.683 11.0632 96.5195 12.2266 96.5195 13.6618C96.5195 15.097 97.683 16.2604 99.1182 16.2604Z" fill="white"/>
<path d="M104.356 36.9201C109.698 36.9201 114.029 32.5895 114.029 27.2474C114.029 21.9053 109.698 17.5747 104.356 17.5747C99.0141 17.5747 94.6835 21.9053 94.6835 27.2474C94.6835 32.5895 99.0141 36.9201 104.356 36.9201Z" fill="#2D2D2D"/>
<path d="M91.4697 17.1415C86.2981 17.1415 82.1055 21.0116 82.1055 25.7853L91.4703 41.8653V17.1415H91.4697Z" fill="#C7EAFB"/>
<path d="M100.833 25.7853C100.833 21.0116 96.6404 17.1415 91.4688 17.1415V41.8653L100.834 25.7853H100.833Z" fill="#6E00FF"/>
<rect x="75.1445" y="5.08289" width="12.9549" height="2.29828" rx="1.14914" fill="#B3B3B3"/>
<rect x="99.1523" y="5.48315" width="12.9549" height="2.29828" rx="1.14914" transform="rotate(25.817 99.1523 5.48315)" fill="#B3B3B3"/>
<path d="M104.563 25.0507C98.665 25.0507 93.6277 21.0024 92.5861 15.4255C92.4755 14.835 91.9466 14.4063 91.3277 14.4063C90.7088 14.4063 90.1792 14.835 90.0693 15.4255C89.027 21.0024 83.9904 25.0507 78.0922 25.0507C74.8444 25.0507 71.7891 23.8321 69.4891 21.6192C67.1891 19.4063 65.9219 16.4666 65.9219 13.3417C65.9219 6.88543 71.3812 1.63281 78.0915 1.63281H104.563C111.274 1.63281 116.733 6.88543 116.733 13.3417C116.733 16.4666 115.466 19.4063 113.166 21.6192C110.866 23.8321 107.811 25.0507 104.563 25.0507Z" fill="#D4D4D4" fill-opacity="0.3"/>
<path d="M104.563 25.0507C98.665 25.0507 93.6277 21.0024 92.5861 15.4255C92.4755 14.835 91.9466 14.4063 91.3277 14.4063C90.7088 14.4063 90.1792 14.835 90.0693 15.4255C89.027 21.0024 83.9904 25.0507 78.0922 25.0507C74.8444 25.0507 71.7891 23.8321 69.4891 21.6192C67.1891 19.4063 65.9219 16.4666 65.9219 13.3417C65.9219 6.88543 71.3812 1.63281 78.0915 1.63281H104.563C111.274 1.63281 116.733 6.88543 116.733 13.3417C116.733 16.4666 115.466 19.4063 113.166 21.6192C110.866 23.8321 107.811 25.0507 104.563 25.0507ZM91.327 12.2772C93.0184 12.2772 94.4634 13.4432 94.7637 15.0493C95.6156 19.6107 99.7368 22.9215 104.562 22.9215C107.219 22.9215 109.719 21.9244 111.601 20.1139C113.484 18.3034 114.519 15.8981 114.519 13.3417C114.519 8.05931 110.053 3.76197 104.562 3.76197H78.0915C72.6012 3.76197 68.1348 8.05931 68.1348 13.3417C68.1348 15.8981 69.1712 18.3027 71.0529 20.1139C72.9346 21.9251 75.4345 22.9215 78.0915 22.9215C82.9171 22.9215 87.0383 19.6107 87.8903 15.0493C88.1905 13.4432 89.6356 12.2772 91.327 12.2772Z" fill="#FFCC01"/>
<path d="M187.01 107.384H0V124.206H187.01V107.384Z" fill="#D38C02"/>
<path d="M23.7391 52.108H10.2068V53.6116H23.7391V52.108Z" fill="#AFA2FB"/>
<path d="M33.3273 58.8743H10.7734V61.5056H33.3273V58.8743Z" fill="#0A6FCB"/>
<path d="M33.3273 58.8743H10.7734V56.2651H22.313L23.0953 50.6955L30.026 47.7853L33.3273 58.8743Z" fill="#AFA2FB"/>
<path d="M19.208 23.357L15.5352 22.299L14.5618 25.6778L18.2346 26.7358L19.208 23.357Z" fill="#0A6FCB"/>
<path d="M20.4346 25.867L13.1758 23.776L9.40105 36.8796L16.6599 38.9706L20.4346 25.867Z" fill="#AFA2FB"/>
<path d="M18.3824 36.1324C20.0951 36.1324 21.4836 34.7439 21.4836 33.0312C21.4836 31.3185 20.0951 29.9301 18.3824 29.9301C16.6697 29.9301 15.2812 31.3185 15.2812 33.0312C15.2812 34.7439 16.6697 36.1324 18.3824 36.1324Z" fill="#0A6FCB"/>
<path d="M22.8862 51.9203V49.7328C27.4314 49.7328 31.1294 46.2036 31.1294 41.865C31.1294 37.5264 27.4314 33.9971 22.8862 33.9971H15.8438V31.8097H22.8862C25.6659 31.8097 28.2816 32.8505 30.2511 34.74C32.2319 36.6409 33.323 39.1709 33.323 41.865C33.323 44.559 32.2319 47.0891 30.2511 48.9899C28.2816 50.8795 25.6659 51.9203 22.8862 51.9203Z" fill="#0A6FCB"/>
<path d="M169.903 61.5054H166.332V107.365H169.903V61.5054Z" fill="#C37A05"/>
<path d="M9.39916 61.5054H5.82812V107.365H9.39916V61.5054Z" fill="#C37A05"/>
<path d="M163.697 44.8563V38.6971L164.507 36.8841H157.278L157.885 38.6971V44.8563C155.229 45.9977 153.367 48.6572 153.367 51.7552C153.367 55.8945 156.691 59.2501 160.791 59.2501C164.891 59.2501 168.215 55.8945 168.215 51.7552C168.215 48.6572 166.353 45.9982 163.697 44.8563H163.697Z" fill="#E2F4FD"/>
<path d="M160.7 27.2989L167.278 18.4653H154.121L160.7 27.2989Z" fill="#E2F4FD"/>
<path d="M164.079 22.6002H157.125L159.677 26.058V29.7423L161.528 28.0185V26.058L164.079 22.6002Z" fill="#8CEB4D"/>
<path d="M174.981 61.5053H0V68.4594H174.981V61.5053Z" fill="#FFC24C"/>
<path d="M168.215 51.7321C168.215 55.8841 164.891 59.2501 160.791 59.2501C156.691 59.2501 153.367 55.8841 153.367 51.7321H168.215H168.215Z" fill="#8CEB4D"/>
<path d="M171.219 59.062H148.289V61.3174H171.219V59.062Z" fill="#5FBCFF"/>
<path d="M148.289 20.5328V60.7539H149.417L149.417 20.5328H148.289Z" fill="#5FBCFF"/>
<path d="M170.845 25.4191H144.156V26.5468H170.845V25.4191Z" fill="#5FBCFF"/>
<path d="M148.853 28.2385C149.994 28.2385 150.92 27.3129 150.92 26.1711C150.92 25.0293 149.994 24.1036 148.853 24.1036C147.711 24.1036 146.785 25.0293 146.785 26.1711C146.785 27.3129 147.711 28.2385 148.853 28.2385Z" fill="#0A6FCB"/>
<path d="M161.85 31.9041L160.797 30.1358V30.1182L160.792 30.127L160.787 30.1195V30.134L159.735 31.9024C159.516 32.2705 159.516 32.7243 159.735 33.0924C159.952 33.4579 160.352 33.6839 160.787 33.6874V33.6892C161.226 33.6892 161.63 33.4623 161.849 33.0942C162.068 32.7261 162.068 32.2722 161.849 31.9041H161.85Z" fill="#8CEB4D"/>
<path d="M156.093 53.0478C156.872 53.0478 157.503 52.3747 157.503 51.5442C157.503 50.7138 156.872 50.0406 156.093 50.0406C155.315 50.0406 154.684 50.7138 154.684 51.5442C154.684 52.3747 155.315 53.0478 156.093 53.0478Z" fill="#9CD9F8"/>
<path d="M158.35 49.8528C158.817 49.8528 159.195 49.432 159.195 48.913C159.195 48.394 158.817 47.9733 158.35 47.9733C157.883 47.9733 157.504 48.394 157.504 48.913C157.504 49.432 157.883 49.8528 158.35 49.8528Z" fill="#9CD9F8"/>
<path d="M101.069 64.0642L97.2086 57.4447V53.1728L97.6465 51.6381H92.8356L93.2735 53.1728V57.4447L89.4133 64.0642C88.883 64.9734 89.546 66.1102 90.6062 66.1102H99.8759C100.936 66.1102 101.599 64.9738 101.069 64.0642Z" fill="#E2F4FD"/>
<path fill-rule="evenodd" clip-rule="evenodd" d="M96.4146 55.8645H94.0508V57.7928H94.0734L90.3858 63.7533C89.9444 64.4665 90.4962 65.3582 91.3785 65.3582H99.0931C99.9758 65.3582 100.527 64.4668 100.086 63.7533L96.3983 57.7928H96.4146V55.8645Z" fill="#F45A7F"/>
<path d="M100.394 106.58C101.995 102.71 106.431 100.87 110.301 102.471" stroke="#2D2D2D" stroke-width="2.07467" stroke-linecap="round"/>
<path d="M95.7964 102.165C97.9779 102.054 99.8362 103.733 99.9472 105.914" stroke="#2D2D2D" stroke-width="1.67569" stroke-linecap="round"/>
<path d="M86.9269 49.5015L75.8679 50.0806C74.8618 50.1332 74.2999 51.2606 74.8564 52.1095L79.7228 59.5313C80.2796 60.3805 81.537 60.3146 81.9867 59.4126L86.9269 49.5015Z" fill="#E2F4FD"/>
<path d="M89.822 49.9717L87.75 46.8115L81.4255 50.9583L83.4976 54.1185L89.822 49.9717Z" fill="#E2F4FD"/>
<path d="M55.7578 62.6423C56.5835 54.8532 63.5673 49.2081 71.3564 50.0335C79.1455 50.8592 84.7905 57.843 83.9652 65.6321L55.7582 62.6423L55.7578 62.6423Z" fill="#231F20"/>
</svg>
